<?xml version="1.0" standalone="no"?>
<!DOCTYPE svg PUBLIC "-//W3C//DTD SVG 1.1//EN" "http://www.w3.org/Graphics/SVG/1.1/DTD/svg11.dtd" >
<svg xmlns="http://www.w3.org/2000/svg">
<metadata>Generated by IcoMoon</metadata>
<defs>
<font id="Buderus-Webfont-2017-02-07" horiz-adv-x="1024">
<font-face units-per-em="1024" ascent="877.7142857142858" descent="-146.28571428571428" />
<missing-glyph horiz-adv-x="1024" />
<glyph unicode="&#x20;" horiz-adv-x="256" d="" />
<glyph unicode="&#xe111;" glyph-name="pellet-heating" d="M832 711.68c-56.32-145.92-322.56-56.32-512-135.68-97.28-40.96-273.92-209.92-158.72-401.92-28.16-28.16-56.32-61.44-81.92-94.72l40.96-30.72c20.48 28.16 43.52 56.32 69.12 81.92 46.080-51.2 128-76.8 220.16-76.8 296.96 0 691.2 248.32 422.4 657.92zM312.32 245.76l-33.28 38.4c92.16 84.48 176.64 117.76 312.32 128l2.56-51.2c-122.88-7.68-197.12-38.4-281.6-115.2z" />
<glyph unicode="&#xe112;" glyph-name="heat-pump" d="M578.56 471.040l133.12 296.96h-294.4l-184.32-478.72h263.68l-148.48-340.48h186.88l256 522.24z" />
<glyph unicode="&#xe900;" glyph-name="check" d="M954.859 546.965c0-14.293-5.717-28.565-16-38.848l-491.435-491.435c-10.283-10.283-24.576-16-38.848-16s-28.565 5.717-38.848 16l-284.565 284.565c-10.283 10.283-16 24.576-16 38.848s5.717 28.565 16 38.848l77.717 77.717c10.283 10.283 24.576 16 38.848 16s28.565-5.717 38.848-16l168-168.576 374.848 375.424c10.283 10.283 24.576 16 38.848 16s28.565-5.717 38.848-16l77.717-77.717c10.283-10.283 16-24.576 16-38.848z" />
<glyph unicode="&#xe901;" glyph-name="comfort" horiz-adv-x="875" d="M201.152 65.835v-73.152h-201.152v73.152h201.152zM402.283 138.965c20.011 0 36.565-16.576 36.565-36.565v-146.283c0-20.011-16.576-36.565-36.565-36.565h-146.283c-20.011 0-36.565 16.576-36.565 36.565v146.283c0 20.011 16.576 36.565 36.565 36.565h146.283zM493.717 358.4v-73.152h-493.717v73.152h493.717zM128 650.965v-73.152h-128v73.152h128zM877.717 65.835v-73.152h-420.565v73.152h420.565zM329.152 724.117c20.011 0 36.565-16.576 36.565-36.565v-146.283c0-20.011-16.576-36.565-36.565-36.565h-146.283c-19.989 0-36.565 16.576-36.565 36.565v146.283c0 20.011 16.576 36.565 36.565 36.565h146.283zM694.848 431.552c20.011 0 36.565-16.576 36.565-36.565v-146.283c0-20.011-16.576-36.565-36.565-36.565h-146.283c-20.011 0-36.565 16.576-36.565 36.565v146.283c0 20.011 16.576 36.565 36.565 36.565h146.283zM877.717 358.4v-73.152h-128v73.152h128zM877.717 650.965v-73.152h-493.717v73.152h493.717z" />
<glyph unicode="&#xe902;" glyph-name="contact" d="M1024 464.683v-453.717c0-50.283-41.152-91.435-91.435-91.435h-841.152c-50.283 0-91.435 41.152-91.435 91.435v453.717c17.152-18.859 36.565-35.435 57.707-49.707 94.848-64.576 190.848-129.152 283.989-197.141 48-35.435 107.435-78.848 169.707-78.848h1.152c62.293 0 121.707 43.435 169.707 78.848 93.141 67.435 189.141 132.565 284.565 197.141 20.565 14.293 40 30.848 57.152 49.707zM1024 632.683c0-64-47.424-121.707-97.707-156.565-89.152-61.717-178.859-123.435-267.435-185.707-37.141-25.707-100.011-78.293-146.283-78.293h-1.152c-46.293 0-109.141 52.565-146.283 78.293-88.576 62.293-178.283 124.011-266.859 185.707-40.576 27.435-98.283 92.011-98.283 144 0 56 30.293 104 91.435 104h841.152c49.707 0 91.435-41.152 91.435-91.435z" />
<glyph unicode="&#xe903;" glyph-name="energy-cost" horiz-adv-x="1173" d="M1170.283-7.317v-73.152h-1170.283v877.717h73.152v-804.565h1097.152zM950.848 577.835l146.283-512h-950.848v329.152l256 329.152 329.152-329.152z" />
<glyph unicode="&#xe904;" glyph-name="environment" d="M731.435 468.117c0 20.011-16.576 36.565-36.565 36.565-202.283 0-332.565-84.565-464.576-230.293-6.848-7.424-10.859-15.424-10.859-25.707 0-20.011 16.576-36.565 36.565-36.565 10.283 0 18.283 4.011 25.707 10.859 28.011 25.152 53.141 52.565 80.576 78.293 103.424 93.141 192 130.283 332.565 130.283 20.011 0 36.565 16.576 36.565 36.565zM1024 581.248c0-36.565-4.011-73.707-11.435-110.293-36.565-177.707-150.848-293.141-309.717-372.011-77.141-38.848-163.435-61.717-250.283-61.717-54.848 0-111.424 9.152-163.435 26.859-27.435 9.152-82.283 45.141-105.152 45.141-28.565 0-62.848-116.565-112.576-116.565-36.011 0-46.848 17.707-62.293 44.011-5.141 9.707-9.152 13.141-9.152 25.152 0 59.435 113.152 105.707 113.152 138.859 0 5.141-14.848 35.435-17.152 46.848-3.435 19.435-5.141 39.424-5.141 59.435 0 181.717 144.576 311.424 306.859 365.141 117.141 38.848 366.293-6.293 445.717 69.141 31.424 29.141 46.848 56 94.848 56 64.576 0 85.717-167.424 85.717-216z" />
<glyph unicode="&#xe907;" glyph-name="leaflet" horiz-adv-x="875" d="M838.848 598.4c5.717-5.717 10.859-12.565 16-20.565h-269.717v269.717c8-5.141 14.848-10.283 20.565-16zM566.848 504.683h310.848v-603.435c0-30.293-24.576-54.848-54.848-54.848h-768c-30.293 0-54.848 24.576-54.848 54.848v914.283c0 30.293 24.576 54.848 54.848 54.848h457.152v-310.848c0-30.293 24.576-54.848 54.848-54.848zM658.283 84.117v36.565c0 10.283-8 18.283-18.283 18.283h-402.283c-10.283 0-18.283-8-18.283-18.283v-36.565c0-10.283 8-18.283 18.283-18.283h402.283c10.283 0 18.283 8 18.283 18.283zM658.283 230.4v36.565c0 10.283-8 18.283-18.283 18.283h-402.283c-10.283 0-18.283-8-18.283-18.283v-36.565c0-10.283 8-18.283 18.283-18.283h402.283c10.283 0 18.283 8 18.283 18.283zM658.283 376.683v36.565c0 10.283-8 18.283-18.283 18.283h-402.283c-10.283 0-18.283-8-18.283-18.283v-36.565c0-10.283 8-18.283 18.283-18.283h402.283c10.283 0 18.283 8 18.283 18.283z" />
<glyph unicode="&#xe908;" glyph-name="link-arrow-bottom" horiz-adv-x="661" d="M614.293 449.835c0-4.565-2.283-9.707-5.717-13.141l-266.283-266.283c-3.435-3.435-8.576-5.717-13.141-5.717s-9.707 2.283-13.141 5.717l-266.283 266.283c-3.435 3.435-5.717 8.576-5.717 13.141s2.283 9.707 5.717 13.141l28.565 28.565c3.435 3.435 8 5.717 13.141 5.717 4.565 0 9.707-2.283 13.141-5.717l224.576-224.576 224.576 224.576c3.435 3.435 8.576 5.717 13.141 5.717s9.707-2.283 13.141-5.717l28.565-28.565c3.435-3.435 5.717-8.576 5.717-13.141z" />
<glyph unicode="&#xe909;" glyph-name="link-arrow-left" horiz-adv-x="384" d="M358.293 559.552c0-4.565-2.283-9.707-5.717-13.141l-224.576-224.576 224.576-224.576c3.435-3.435 5.717-8.576 5.717-13.141s-2.283-9.707-5.717-13.141l-28.565-28.565c-3.435-3.435-8.576-5.717-13.141-5.717s-9.707 2.283-13.141 5.717l-266.283 266.283c-3.435 3.435-5.717 8.576-5.717 13.141s2.283 9.707 5.717 13.141l266.283 266.283c3.435 3.435 8.576 5.717 13.141 5.717s9.707-2.283 13.141-5.717l28.565-28.565c3.435-3.435 5.717-8 5.717-13.141z" />
<glyph unicode="&#xe90a;" glyph-name="link-arrow-right" horiz-adv-x="341" d="M340.011 321.835c0-4.565-2.283-9.707-5.717-13.141l-266.283-266.283c-3.435-3.435-8.576-5.717-13.141-5.717s-9.707 2.283-13.141 5.717l-28.565 28.565c-3.435 3.435-5.717 8-5.717 13.141 0 4.565 2.283 9.707 5.717 13.141l224.576 224.576-224.576 224.576c-3.435 3.435-5.717 8.576-5.717 13.141s2.283 9.707 5.717 13.141l28.565 28.565c3.435 3.435 8.576 5.717 13.141 5.717s9.707-2.283 13.141-5.717l266.283-266.283c3.435-3.435 5.717-8.576 5.717-13.141z" />
<glyph unicode="&#xe90b;" glyph-name="link-arrow-up" horiz-adv-x="661" d="M614.293 193.835c0-4.565-2.283-9.707-5.717-13.141l-28.565-28.565c-3.435-3.435-8-5.717-13.141-5.717-4.565 0-9.707 2.283-13.141 5.717l-224.576 224.576-224.576-224.576c-3.435-3.435-8.576-5.717-13.141-5.717s-9.707 2.283-13.141 5.717l-28.565 28.565c-3.435 3.435-5.717 8.576-5.717 13.141s2.283 9.707 5.717 13.141l266.283 266.283c3.435 3.435 8.576 5.717 13.141 5.717s9.707-2.283 13.141-5.717l266.283-266.283c3.435-3.435 5.717-8.576 5.717-13.141z" />
<glyph unicode="&#xe90c;" glyph-name="scroll-up" horiz-adv-x="661" d="M614.293 120.683c0-4.565-2.283-9.707-5.717-13.141l-28.565-28.565c-3.435-3.435-8-5.717-13.141-5.717-4.565 0-9.707 2.283-13.141 5.717l-224.576 224.576-224.576-224.576c-3.435-3.435-8.576-5.717-13.141-5.717s-9.707 2.283-13.141 5.717l-28.565 28.565c-3.435 3.435-5.717 8.576-5.717 13.141s2.283 9.707 5.717 13.141l266.283 266.283c3.435 3.435 8.576 5.717 13.141 5.717s9.707-2.283 13.141-5.717l266.283-266.283c3.435-3.435 5.717-8.576 5.717-13.141zM614.293 340.117c0-4.565-2.283-9.707-5.717-13.141l-28.565-28.565c-3.435-3.435-8-5.717-13.141-5.717-4.565 0-9.707 2.283-13.141 5.717l-224.576 224.576-224.576-224.576c-3.435-3.435-8.576-5.717-13.141-5.717s-9.707 2.283-13.141 5.717l-28.565 28.565c-3.435 3.435-5.717 8.576-5.717 13.141s2.283 9.707 5.717 13.141l266.283 266.283c3.435 3.435 8.576 5.717 13.141 5.717s9.707-2.283 13.141-5.717l266.283-266.283c3.435-3.435 5.717-8.576 5.717-13.141z" />
<glyph unicode="&#xe90d;" glyph-name="cancel" horiz-adv-x="875" d="M656.576 229.248c0 9.707-4.011 18.859-10.859 25.707l-103.424 103.424 103.424 103.424c6.848 6.848 10.859 16 10.859 25.707s-4.011 19.435-10.859 26.283l-51.435 51.435c-6.848 6.848-16.576 10.859-26.283 10.859s-18.859-4.011-25.707-10.859l-103.424-103.424-103.424 103.424c-6.848 6.848-16 10.859-25.707 10.859s-19.435-4.011-26.283-10.859l-51.435-51.435c-6.848-6.848-10.859-16.576-10.859-26.283s4.011-18.859 10.859-25.707l103.424-103.424-103.424-103.424c-6.848-6.848-10.859-16-10.859-25.707s4.011-19.435 10.859-26.283l51.435-51.435c6.848-6.848 16.576-10.859 26.283-10.859s18.859 4.011 25.707 10.859l103.424 103.424 103.424-103.424c6.848-6.848 16-10.859 25.707-10.859s19.435 4.011 26.283 10.859l51.435 51.435c6.848 6.848 10.859 16.576 10.859 26.283zM877.717 358.4c0-242.283-196.565-438.848-438.848-438.848s-438.848 196.565-438.848 438.848 196.565 438.848 438.848 438.848 438.848-196.565 438.848-438.848z" />
<glyph unicode="&#xe90e;" glyph-name="profile" horiz-adv-x="725" d="M731.435 70.976c0-83.435-54.848-151.424-121.707-151.424h-488c-66.859 0-121.707 68.011-121.707 151.424 0 150.293 37.141 324.011 186.859 324.011 46.293-45.141 109.141-73.152 178.859-73.152s132.565 28.011 178.859 73.152c149.717 0 186.859-173.717 186.859-324.011zM585.152 577.835c0-121.152-98.283-219.435-219.435-219.435s-219.435 98.283-219.435 219.435 98.283 219.435 219.435 219.435 219.435-98.283 219.435-219.435z" />
<glyph unicode="&#xe90f;" glyph-name="search" horiz-adv-x="960" d="M658.283 394.965c0 141.141-114.859 256-256 256s-256-114.859-256-256 114.859-256 256-256 256 114.859 256 256zM950.848-80.448c0-40-33.152-73.152-73.152-73.152-19.435 0-38.293 8-51.435 21.717l-196.011 195.435c-66.859-46.293-146.859-70.848-228.011-70.848-222.293 0-402.283 180.011-402.283 402.283s180.011 402.283 402.283 402.283 402.283-180.011 402.283-402.283c0-81.152-24.576-161.152-70.848-228.011l196.011-196.011c13.141-13.141 21.141-32 21.141-51.435z" />
<glyph unicode="&#xe910;" glyph-name="system" horiz-adv-x="1237" d="M365.717-62.165l219.435 109.717v179.435l-219.435-93.717v-195.435zM329.152 197.248l230.848 98.859-230.848 98.859-230.848-98.859zM950.848-62.165l219.435 109.717v179.435l-219.435-93.717v-195.435zM914.283 197.248l230.848 98.859-230.848 98.859-230.848-98.859zM658.283 364.693l219.435 94.293v152l-219.435-93.717v-152.576zM621.717 581.248l252.011 108.011-252.011 107.989-252.011-107.989zM1243.435 285.248v-237.717c0-27.435-15.424-53.141-40.576-65.152l-256-128c-10.283-5.717-21.141-8-32.576-8s-22.293 2.283-32.576 8l-256 128c-1.707 0.576-2.859 1.152-4.011 2.283-1.152-1.152-2.283-1.707-4.011-2.283l-256-128c-10.283-5.717-21.141-8-32.576-8s-22.293 2.283-32.576 8l-256 128c-25.152 12.011-40.576 37.717-40.576 65.152v237.717c0 29.141 17.707 55.424 44.565 67.435l248 106.283v228.565c0 29.141 17.707 55.424 44.565 67.435l256 109.717c9.152 4.011 18.859 5.717 28.565 5.717s19.435-1.707 28.565-5.717l256-109.717c26.859-12.011 44.565-38.293 44.565-67.435v-228.565l248-106.283c27.435-12.011 44.565-38.293 44.565-67.435z" />
<glyph unicode="&#xe917;" glyph-name="controls" d="M460.8 128c0-14.138-11.462-25.6-25.6-25.6s-25.6 11.462-25.6 25.6c0 14.138 11.462 25.6 25.6 25.6s25.6-11.462 25.6-25.6zM640 153.6c-12.8 0-25.6-12.8-25.6-25.6s12.8-25.6 25.6-25.6 25.6 12.8 25.6 25.6-12.8 25.6-25.6 25.6zM640 153.6c-12.8 0-25.6-12.8-25.6-25.6s12.8-25.6 25.6-25.6 25.6 12.8 25.6 25.6-12.8 25.6-25.6 25.6zM819.2 870.4h-563.2c-56.32 0-102.4-46.080-102.4-102.4v-819.2c0-56.32 46.080-102.4 102.4-102.4h563.2c56.32 0 102.4 46.080 102.4 102.4v819.2c0 56.32-46.080 102.4-102.4 102.4zM435.2 51.2c-43.52 0-76.8 33.28-76.8 76.8s33.28 76.8 76.8 76.8 76.8-33.28 76.8-76.8-33.28-76.8-76.8-76.8zM640 51.2c-43.52 0-76.8 33.28-76.8 76.8s33.28 76.8 76.8 76.8 76.8-33.28 76.8-76.8-33.28-76.8-76.8-76.8zM537.6 256c-128 0-230.4 102.4-230.4 230.4s102.4 230.4 230.4 230.4 230.4-102.4 230.4-230.4-102.4-230.4-230.4-230.4zM409.6 486.4h256v51.2h-256v-51.2zM640 153.6c-12.8 0-25.6-12.8-25.6-25.6s12.8-25.6 25.6-25.6 25.6 12.8 25.6 25.6-12.8 25.6-25.6 25.6zM448 384h179.2v51.2h-179.2v-51.2zM448 435.2h179.2v-51.2h-179.2v51.2zM409.6 537.6h256v-51.2h-256v51.2zM409.6 537.6h256v-51.2h-256v51.2zM448 435.2h179.2v-51.2h-179.2v51.2z" />
<glyph unicode="&#xe918;" glyph-name="electro-boilers" d="M640 230.4h102.4v-128h-102.4v128zM819.2 563.2h-256c-43.52 0-76.8-33.28-76.8-76.8v-409.6h-130.56c-2.56 0-5.12 0-10.24 0-17.92 0-35.84 7.68-46.080 23.040-12.8 12.8-17.92 30.72-17.92 51.2v232.96c0 0 0 0 0 2.56 84.48 7.68 128 58.88 128 151.040v128h-51.2v128h-51.2v-128h-102.4v128h-51.2v-128h-51.2v-128c0-92.16 43.52-143.36 128-151.040 0 0 0 0 0-2.56v-232.96c-2.56-30.72 10.24-61.44 30.72-87.040 20.48-23.040 51.2-38.4 81.92-38.4 2.56 0 5.12 0 5.12 0 2.56 0 5.12 0 7.68 0h128c0-43.52 33.28-76.8 76.8-76.8h256c43.52 0 76.8 33.28 76.8 76.8v460.8c2.56 43.52-30.72 76.8-74.24 76.8zM793.6 51.2h-204.8v230.4h204.8v-230.4zM793.6 409.6h-204.8v51.2h204.8v-51.2z" />
<glyph unicode="&#xe919;" glyph-name="floor-heating" d="M844.8 128h-665.6c-15.36 0-25.6 10.24-25.6 25.6s10.24 25.6 25.6 25.6h716.8v51.2h-716.8c-43.52 0-76.8-33.28-76.8-76.8s33.28-76.8 76.8-76.8h665.6c15.36 0 25.6-10.24 25.6-25.6s-10.24-25.6-25.6-25.6h-716.8v-51.2h716.8c43.52 0 76.8 33.28 76.8 76.8s-33.28 76.8-76.8 76.8zM465.92 496.64c20.48-17.92 20.48-48.64 2.56-69.12l-69.12-69.12 35.84-35.84 69.12 69.12c38.4 40.96 35.84 102.4-2.56 140.8l-46.080 46.080c-20.48 17.92-20.48 48.64-2.56 69.12l69.12 69.12-35.84 35.84-69.12-69.12c-38.4-40.96-35.84-102.4 2.56-140.8l46.080-46.080zM619.52 496.64c20.48-17.92 20.48-48.64 2.56-69.12l-69.12-69.12 35.84-35.84 69.12 69.12c38.4 40.96 35.84 102.4-2.56 140.8l-46.080 46.080c-20.48 17.92-20.48 48.64-2.56 69.12l69.12 69.12-35.84 35.84-69.12-69.12c-38.4-40.96-35.84-102.4 2.56-140.8l46.080-46.080zM773.12 496.64c20.48-17.92 20.48-48.64 2.56-69.12l-69.12-69.12 35.84-35.84 69.12 69.12c38.4 40.96 35.84 102.4-2.56 140.8l-46.080 46.080c-20.48 17.92-20.48 48.64-2.56 69.12l69.12 69.12-35.84 35.84-69.12-69.12c-38.4-40.96-35.84-102.4 2.56-140.8l46.080-46.080z" />
<glyph unicode="&#xe91a;" glyph-name="floor-standing-boilers" d="M230.4 61.44v476.16h-51.2v-476.16l-76.8 76.8-35.84-35.84 138.24-138.24 138.24 138.24-35.84 35.84zM76.8-51.2h256v-51.2h-256v51.2zM793.6 819.2h-307.2c-56.32 0-102.4-46.080-102.4-102.4v-716.8c0-56.32 46.080-102.4 102.4-102.4h307.2c56.32 0 102.4 46.080 102.4 102.4v716.8c0 56.32-46.080 102.4-102.4 102.4zM793.6 51.2h-307.2v332.8h307.2v-332.8zM793.6 614.4h-307.2v51.2h307.2v-51.2zM537.6 332.8h204.8v-230.4h-204.8v230.4z" />
<glyph unicode="&#xe91b;" glyph-name="gas" d="M512 768c-84.48-245.76-286.72-294.4-286.72-532.48 0-133.12 89.6-248.32 220.16-279.040l-10.24 12.8c-107.52 107.52-33.28 209.92-15.36 276.48 38.4-25.6 56.32-94.72 56.32-94.72 38.4 69.12 56.32 145.92 48.64 225.28 215.040-202.24 94.72-358.4 20.48-417.28l-12.8-10.24c151.040 10.24 266.24 135.68 266.24 286.72 0 240.64-168.96 414.72-286.72 532.48z" />
<glyph unicode="&#xe91c;" glyph-name="gas-appliances-to-100kw" d="M445.44 30.72c-17.92 0-30.72-23.040-30.72-56.32 0-35.84 10.24-58.88 30.72-58.88 17.92 0 30.72 23.040 30.72 58.88s-12.8 56.32-30.72 56.32zM578.56 30.72c-17.92 0-30.72-23.040-30.72-56.32 0-35.84 10.24-58.88 30.72-58.88 17.92 0 30.72 23.040 30.72 58.88s-12.8 56.32-30.72 56.32zM675.84 102.4c74.24 51.2 122.88 138.24 122.88 235.52 0 240.64-168.96 414.72-286.72 532.48-84.48-245.76-286.72-294.4-286.72-532.48 0-94.72 48.64-181.76 122.88-235.52h-348.16v-256h1024v256h-348.16zM417.28 348.16c38.4-23.040 56.32-94.72 56.32-94.72 38.4 69.12 56.32 145.92 48.64 225.28 174.080-166.4 128-299.52 61.44-376.32h-179.2c-64 94.72-2.56 184.32 12.8 245.76zM181.76-5.12l-58.88-28.16 58.88-28.16v-20.48l-79.36 38.4v17.92l81.92 40.96-2.56-20.48zM368.64-99.84h-87.040v17.92h33.28v94.72c-7.68-2.56-17.92-5.12-30.72-5.12v15.36c23.040 2.56 33.28 10.24 38.4 25.6h15.36v-130.56h30.72v-17.92zM445.44-102.4c-33.28 0-53.76 30.72-53.76 76.8s20.48 74.24 53.76 74.24c30.72 0 51.2-28.16 51.2-74.24 2.56-46.080-20.48-76.8-51.2-76.8zM578.56-102.4c-33.28 0-53.76 30.72-53.76 76.8s20.48 74.24 53.76 74.24c30.72 0 51.2-28.16 51.2-74.24 2.56-46.080-17.92-76.8-51.2-76.8zM732.16-99.84l-30.72 48.64-15.36-15.36v-33.28h-20.48v153.6h20.48v-94.72l40.96 48.64h25.6l-35.84-40.96 40.96-64h-25.6v-2.56zM898.56-99.84h-23.040l-23.040 79.36-25.6-79.36h-23.040l-30.72 107.52h23.040l20.48-81.92 25.6 81.92h20.48l23.040-81.92 23.040 81.92h20.48l-30.72-107.52z" />
<glyph unicode="&#xe91d;" glyph-name="gas-boilers" d="M665.6 230.4h102.4v-128h-102.4v128zM844.8 563.2h-256c-43.52 0-76.8-33.28-76.8-76.8v-460.8c0-43.52 33.28-76.8 76.8-76.8h256c43.52 0 76.8 33.28 76.8 76.8v460.8c0 43.52-33.28 76.8-76.8 76.8zM819.2 51.2h-204.8v230.4h204.8v-230.4zM819.2 409.6h-204.8v51.2h204.8v-51.2zM102.4 435.2c0-81.92 56.32-153.6 135.68-174.080l-7.68 7.68c-46.080 53.76-12.8 74.24 2.56 120.32 12.8-17.92 28.16-33.28 46.080-43.52 20.48 40.96 33.28 87.040 43.52 133.12 43.52-51.2 23.040-179.2-23.040-215.040l-5.12-7.68c94.72 7.68 166.4 84.48 166.4 179.2 0 151.040-104.96 258.56-179.2 332.8-53.76-153.6-179.2-184.32-179.2-332.8z" />
<glyph unicode="&#xe91e;" glyph-name="heating" d="M972.8 512v51.2h-51.2v25.6c0 43.52-33.28 76.8-76.8 76.8s-76.8-33.28-76.8-76.8v-25.6h-51.2v25.6c0 43.52-33.28 76.8-76.8 76.8s-76.8-33.28-76.8-76.8v-25.6h-51.2v25.6c0 43.52-33.28 76.8-76.8 76.8s-76.8-33.28-76.8-76.8v-25.6h-51.2v25.6c0 43.52-33.28 76.8-76.8 76.8s-76.8-33.28-76.8-76.8v-25.6h-51.2v51.2h-51.2v-153.6h51.2v51.2h51.2v-435.2c0-43.52 33.28-76.8 76.8-76.8s76.8 33.28 76.8 76.8v25.6h51.2v-25.6c0-43.52 33.28-76.8 76.8-76.8s76.8 33.28 76.8 76.8v25.6h51.2v-25.6c0-43.52 33.28-76.8 76.8-76.8s76.8 33.28 76.8 76.8v25.6h51.2v-25.6c0-43.52 33.28-76.8 76.8-76.8s76.8 33.28 76.8 76.8v25.6h51.2v51.2h-51.2v358.4h51.2zM358.4 153.6h-51.2v358.4h51.2v-358.4zM563.2 153.6h-51.2v358.4h51.2v-358.4zM768 153.6h-51.2v358.4h51.2v-358.4z" />
<glyph unicode="&#xe91f;" glyph-name="heat-pumps" d="M870.4 716.8h-716.8c-56.32 0-102.4-46.080-102.4-102.4v-512c0-56.32 46.080-102.4 102.4-102.4h716.8c56.32 0 102.4 46.080 102.4 102.4v512c0 56.32-46.080 102.4-102.4 102.4zM576 115.2c-133.12 0-243.2 110.080-243.2 243.2s110.080 243.2 243.2 243.2 243.2-110.080 243.2-243.2-110.080-243.2-243.2-243.2zM719.36 360.96c-10.24 2.56-17.92 7.68-28.16 10.24s-20.48 5.12-30.72 7.68c-7.68 0-15.36 2.56-23.040 2.56-2.56 10.24-7.68 17.92-15.36 25.6 2.56 7.68 5.12 12.8 7.68 20.48 2.56 10.24 7.68 20.48 10.24 30.72s5.12 20.48 7.68 28.16c2.56 10.24 5.12 17.92 5.12 28.16s-2.56 23.040-10.24 30.72c-5.12 7.68-15.36 15.36-25.6 15.36-7.68 0-12.8 2.56-20.48 2.56h-38.4c-7.68 0-12.8 0-20.48 0-10.24-2.56-20.48-7.68-25.6-15.36-7.68-7.68-10.24-17.92-10.24-30.72 0-10.24 2.56-20.48 2.56-28.16s5.12-20.48 7.68-28.16c2.56-10.24 5.12-20.48 10.24-30.72 2.56-7.68 5.12-12.8 7.68-20.48-7.68-7.68-12.8-15.36-15.36-25.6-7.68 0-15.36-2.56-23.040-2.56-10.24-2.56-20.48-5.12-30.72-7.68s-20.48-5.12-28.16-10.24c-7.68-2.56-17.92-7.68-28.16-10.24-10.24-5.12-17.92-12.8-20.48-23.040s-2.56-20.48 0-30.72c2.56-5.12 5.12-12.8 7.68-17.92s5.12-12.8 7.68-17.92c2.56-5.12 7.68-10.24 10.24-15.36s7.68-10.24 12.8-15.36c7.68-7.68 15.36-12.8 28.16-15.36 10.24-2.56 23.040 0 30.72 7.68 7.68 5.12 15.36 12.8 23.040 17.92s15.36 12.8 23.040 20.48 15.36 12.8 20.48 23.040 10.24 12.8 12.8 17.92c5.12 0 10.24-2.56 15.36-2.56s10.24 0 15.36 2.56c5.12-5.12 7.68-12.8 12.8-17.92 7.68-7.68 12.8-15.36 20.48-23.040s15.36-15.36 23.040-20.48c7.68-5.12 15.36-12.8 23.040-17.92 10.24-5.12 20.48-7.68 30.72-7.68 10.24 2.56 20.48 7.68 28.16 15.36 5.12 5.12 7.68 10.24 12.8 15.36 2.56 5.12 7.68 10.24 10.24 15.36s5.12 10.24 7.68 15.36 5.12 12.8 7.68 17.92c2.56 10.24 2.56 20.48 0 30.72-5.12 10.24-12.8 17.92-20.48 23.040-10.24 5.12-20.48 7.68-28.16 10.24z" />
<glyph unicode="&#xe920;" glyph-name="heat-pumps-split" d="M921.6 819.2h-51.2c-56.32 0-102.4-46.080-102.4-102.4v-716.8c0-56.32 46.080-102.4 102.4-102.4h51.2c56.32 0 102.4 46.080 102.4 102.4v716.8c0 56.32-46.080 102.4-102.4 102.4zM637.44 455.68h-558.080c-43.52 0-79.36-35.84-79.36-79.36v-399.36c0-43.52 35.84-79.36 79.36-79.36h558.080c43.52 0 79.36 35.84 79.36 79.36v399.36c0 43.52-35.84 79.36-79.36 79.36zM435.2 25.6c-84.48 0-153.6 69.12-153.6 153.6s69.12 153.6 153.6 153.6 153.6-69.12 153.6-153.6-69.12-153.6-153.6-153.6zM524.8 181.76c-5.12 2.56-12.8 5.12-17.92 5.12s-12.8 5.12-20.48 5.12l-15.36 2.56c-2.56 5.12-5.12 10.24-7.68 15.36 2.56 5.12 5.12 10.24 5.12 15.36 2.56 5.12 5.12 12.8 5.12 17.92 2.56 5.12 2.56 12.8 5.12 17.92 0 5.12 2.56 12.8 2.56 17.92 0 7.68-2.56 12.8-5.12 20.48-2.56 2.56-7.68 7.68-15.36 7.68-5.12 0-7.68 0-12.8 2.56h-25.6c-5.12 0-7.68 0-12.8-2.56-7.68 0-12.8-5.12-17.92-10.24s-7.68-12.8-5.12-20.48c0-7.68 2.56-12.8 2.56-17.92s2.56-12.8 5.12-17.92 2.56-12.8 5.12-17.92 2.56-7.68 5.12-12.8c-5.12-5.12-7.68-10.24-10.24-17.92l-15.36-2.56c-7.68 0-12.8-2.56-20.48-5.12s-12.8-2.56-17.92-5.12-10.24-5.12-17.92-7.68c-5.12-2.56-10.24-7.68-12.8-15.36-2.56-5.12-2.56-12.8 0-20.48 2.56-5.12 2.56-7.68 5.12-12.8 2.56-2.56 2.56-7.68 5.12-10.24s5.12-7.68 7.68-10.24c2.56-2.56 5.12-7.68 7.68-10.24 5.12-5.12 10.24-7.68 17.92-10.24 7.68 0 12.8 0 20.48 5.12 5.12 5.12 10.24 7.68 15.36 10.24 5.12 5.12 10.24 7.68 15.36 12.8s10.24 10.24 12.8 15.36c2.56 2.56 5.12 7.68 7.68 10.24 2.56 0 5.12 0 10.24 0 2.56 0 5.12 0 10.24 0 2.56-2.56 5.12-7.68 7.68-10.24 5.12-5.12 7.68-10.24 12.8-15.36s10.24-10.24 12.8-12.8c5.12-5.12 10.24-7.68 15.36-10.24 5.12-5.12 12.8-5.12 20.48-5.12s12.8 5.12 17.92 10.24c2.56 2.56 5.12 5.12 7.68 10.24 2.56 2.56 5.12 7.68 7.68 10.24s5.12 7.68 5.12 10.24c2.56 2.56 2.56 7.68 5.12 10.24 2.56 5.12 2.56 12.8 0 20.48s-7.68 12.8-12.8 15.36c-7.68 7.68-12.8 10.24-20.48 12.8z" />
<glyph unicode="&#xe921;" glyph-name="heat-recovery-ventilation" d="M793.6 512c0 12.8-12.8 25.6-25.6 25.6h-102.4c-10.24-2.56-20.48-7.68-25.6-15.36l-71.68-163.84 71.68-163.84c5.12-10.24 15.36-15.36 25.6-15.36h102.4c12.8 0 25.6 12.8 25.6 25.6s-12.8 25.6-25.6 25.6v256c12.8 0 25.6 12.8 25.6 25.6zM256 640h102.4c51.2-2.56 97.28-30.72 117.76-76.8l35.84-79.36 35.84 79.36c23.040 46.080 69.12 74.24 117.76 76.8h102.4c12.8 0 25.6 12.8 25.6 25.6s-12.8 25.6-25.6 25.6v76.8c0 56.32-46.080 102.4-102.4 102.4h-307.2c-56.32 0-102.4-46.080-102.4-102.4v-76.8c-12.8 0-25.6-12.8-25.6-25.6s12.8-25.6 25.6-25.6zM230.4 204.8c0-12.8 12.8-25.6 25.6-25.6h102.4c10.24 2.56 20.48 7.68 25.6 15.36l71.68 163.84-71.68 163.84c-5.12 10.24-15.36 15.36-25.6 15.36h-102.4c-12.8 0-25.6-12.8-25.6-25.6s12.8-25.6 25.6-25.6v-256c-12.8 0-25.6-12.8-25.6-25.6zM768 76.8h-102.4c-51.2 2.56-97.28 30.72-117.76 76.8l-35.84 79.36-35.84-79.36c-23.040-46.080-69.12-74.24-117.76-76.8h-102.4c-12.8 0-25.6-12.8-25.6-25.6s12.8-25.6 25.6-25.6v-76.8c0-56.32 46.080-102.4 102.4-102.4h307.2c56.32 0 102.4 46.080 102.4 102.4v76.8c12.8 0 25.6 12.8 25.6 25.6s-12.8 25.6-25.6 25.6zM888.32 248.32c-10.24 10.24-25.6 10.24-35.84 0s-10.24-25.6 0-35.84l58.88-58.88h-245.76c-20.48 2.56-38.4 12.8-48.64 30.72l-76.8 174.080 76.8 174.080c10.24 17.92 28.16 30.72 48.64 30.72h204.8c15.36 0 25.6 10.24 25.6 25.6s-10.24 25.6-25.6 25.6h-204.8c-40.96-2.56-76.8-25.6-94.72-61.44l-58.88-130.56-58.88 130.56c-17.92 35.84-53.76 58.88-94.72 61.44h-204.8c-15.36 0-25.6-10.24-25.6-25.6s10.24-25.6 25.6-25.6h204.8c20.48-2.56 38.4-12.8 48.64-30.72l76.8-174.080-76.8-174.080c-10.24-17.92-28.16-30.72-48.64-30.72h-245.76l58.88 58.88c10.24 10.24 10.24 25.6 0 35.84s-25.6 10.24-35.84 0l-120.32-120.32 120.32-120.32c5.12-5.12 10.24-7.68 17.92-7.68s12.8 2.56 17.92 7.68c10.24 10.24 10.24 25.6 0 35.84l-58.88 58.88h245.76c40.96 2.56 76.8 25.6 94.72 61.44l58.88 130.56 58.88-130.56c17.92-35.84 53.76-58.88 94.72-61.44h245.76l-58.88-58.88c-10.24-10.24-10.24-25.6 0-35.84 5.12-5.12 12.8-7.68 17.92-7.68s12.8 2.56 17.92 7.68l120.32 120.32-120.32 120.32z" />
<glyph unicode="&#xe922;" glyph-name="px" horiz-adv-x="811" d="M800.576-13.611l-3.435-3.435c-42.859-42.859-92.565-76.565-148.011-100.011-57.707-24-118.293-36.565-181.141-36.565s-124.011 12.565-181.141 36.565c-55.424 23.424-105.707 57.152-148.011 100.011-42.859 42.283-76.565 92.011-100.011 147.435-14.293 34.859-25.707 70.848-30.848 108.011v0c-2.283 16 20.011 19.435 27.435 20.565 17.707 2.859 29.717 1.707 32-11.435 0.576-0.576 0.576-1.152 0.576-2.283 2.283-11.435 8-45.717 26.283-90.859 18.859-46.848 48-90.283 86.848-129.152 37.141-37.141 80.576-66.283 129.152-86.848 49.707-21.141 102.848-32 157.717-32 54.293 0 107.435 10.859 157.717 32 48 20.565 91.435 49.707 128.576 86.848l3.435 3.435c4.011 4.011 8.576 5.141 14.293 3.435 5.141-1.152 11.435-5.717 18.859-12.565v0c18.283-18.859 14.293-28.011 9.707-33.152zM530.859 337.835l-37.717-37.717 36.011-36.011c4.011-4.011 11.435-12.565-4.011-28.011-6.293-6.293-12.565-9.707-18.283-9.707-4.011 0-7.424 1.707-10.859 5.717l-35.435 34.859-37.717-37.717c-1.152-1.152-4.011-2.859-8.576-2.859-5.141 0-11.435 2.859-17.707 9.152l-1.152 1.152c-4.011 3.435-10.283 9.707-10.283 16.576 0 3.435 1.707 6.293 4.565 9.707l37.717 37.141-37.717 37.717c-6.293 6.293-3.435 14.293 8 25.707 6.848 6.848 12.565 10.283 17.707 10.283 2.859 0 5.141-1.152 7.424-2.859l37.141-37.717 37.141 37.141c6.293 6.293 16.576 3.435 27.435-7.424 6.848-6.848 14.293-16.576 6.293-25.152zM800 305.259c0-45.141-9.152-89.152-26.283-130.283-17.152-40-41.152-75.435-72-106.283s-66.859-54.848-106.859-72c-41.152-17.707-85.141-26.283-130.283-26.283s-89.152 8.576-130.283 26.283c-40 17.152-76.011 41.152-106.859 72s-54.848 66.283-71.424 106.283c-3.435 7.424-8.576 21.717-8.576 22.848h-0.576c-5.141 16 17.707 22.848 24.576 25.152 16.576 5.141 29.141 7.424 34.283-6.848 13.717-36.565 34.859-72 55.424-95.424h0.576v194.859c1.152 48 21.141 96.576 58.283 132.565 38.293 37.717 89.707 58.859 144.576 58.859 112 0 202.859-90.283 202.859-201.152 0-112-91.435-202.859-202.859-202.859-22.293 0-38.848 1.707-64 9.152-2.859 1.152-16 6.848-7.424 34.859 2.283 7.424 9.152 29.141 25.152 24.576 1.152 0 29.141-6.848 44.011-6.848 79.424 0 141.717 61.717 141.717 140.565 0 37.141-14.848 72-41.152 97.707-26.283 26.283-61.717 40.576-100.011 40.576-39.424 0-75.435-16-101.717-45.717-22.848-25.707-36.565-60.011-36.565-91.435v-236.011c41.152-25.152 88.576-38.293 138.283-38.293 73.152 0 144 29.141 194.859 80 51.435 51.435 80 120.576 80 193.152 0 73.152-28.565 141.717-80.576 193.707-51.435 51.435-120 80-193.707 80s-142.848-28.565-194.283-80c-0.576-0.576-33.152-34.283-44.011-49.707l-1.152-1.152c-6.848-9.707-13.141-18.859-41.707-12.565-14.293 3.435-29.717 12.011-29.717 24.576v388.565c0 10.283 8 21.717 21.717 21.717h501.141c17.152 0 17.152-24 17.152-31.424 0-8 0-31.424-17.152-31.424h-463.424v-276.011h0.576c32 33.707 87.424 69.141 120 82.859 40.576 17.152 86.293 26.283 132.011 26.283 45.141 0 89.152-8.576 130.283-26.283 40-17.152 76.011-41.152 106.859-72s54.848-66.283 72-106.283c17.152-41.707 26.283-85.141 26.283-130.859zM782.293 637.248c10.859-9.707 3.435-20.011-7.424-32.576-6.848-6.848-14.293-14.848-22.293-14.848-3.435 0-6.293 1.152-9.152 4.011-41.152 35.435-78.293 59.435-118.293 76.011-49.707 21.717-102.848 32-157.717 32-48.576 0-101.717-9.707-149.717-28.011-14.848-5.717-22.848 13.717-25.707 21.141-3.435 9.152-5.141 16.576-4.565 21.717 1.152 5.717 4.011 9.707 9.152 11.435 46.848 20.565 110.848 32.576 170.859 32.576 62.293 0 123.435-12.565 180.565-36.565 52.565-22.293 95.424-49.707 134.293-86.848z" />
<glyph unicode="&#xe923;" glyph-name="installer" d="M588.8 588.8c0-127.246-103.154-230.4-230.4-230.4s-230.4 103.154-230.4 230.4c0 127.246 103.154 230.4 230.4 230.4s230.4-103.154 230.4-230.4zM555.52 248.32c-56.32 38.4-125.44 58.88-197.12 58.88-197.12 0-358.4-161.28-358.4-358.4h389.12c-28.16 48.64-20.48 112.64 20.48 153.6l145.92 145.92zM1013.76 450.56l-40.96 38.4c-5.12 5.12-12.8 7.68-20.48 7.68v0c-5.12 0-10.24-2.56-15.36-5.12l-81.92-58.88c-12.8-7.68-15.36-25.6-5.12-38.4 0-2.56 2.56-2.56 2.56-2.56l12.8-12.8-145.92-143.36-17.92 17.92c-10.24 10.24-23.040 15.36-35.84 15.36v0c-12.8 0-25.6-5.12-35.84-15.36l-184.32-184.32c-30.72-30.72-30.72-79.36 0-107.52l35.84-35.84c30.72-30.72 79.36-30.72 107.52 0l184.32 184.32c20.48 20.48 20.48 51.2 0 71.68l-17.92 17.92 145.92 143.36 12.8-15.36c10.24-10.24 28.16-7.68 38.4 2.56l2.56 2.56 58.88 81.92c10.24 10.24 7.68 25.6 0 35.84zM931.84 384l-23.040 23.040 40.96 30.72 10.24-10.24-28.16-43.52z" />
<glyph unicode="&#xe924;" glyph-name="oil" d="M512 768c-117.76-117.76-286.72-289.28-286.72-532.48 0-158.72 128-286.72 286.72-286.72s286.72 128 286.72 286.72c0 238.080-202.24 286.72-286.72 532.48zM537.6 46.080h-25.6c-104.96 0-189.44 84.48-189.44 189.44v25.6h51.2v-25.6c0-76.8 61.44-138.24 138.24-138.24h25.6v-51.2z" />
<glyph unicode="&#xe925;" glyph-name="oil-boilers" d="M844.8 563.2h-256c-43.52 0-76.8-33.28-76.8-76.8v-460.8c0-43.52 33.28-76.8 76.8-76.8h256c43.52 0 76.8 33.28 76.8 76.8v460.8c0 43.52-33.28 76.8-76.8 76.8zM819.2 51.2h-204.8v230.4h204.8v-230.4zM819.2 409.6h-204.8v51.2h204.8v-51.2zM665.6 230.4h102.4v-128h-102.4v128zM102.4 414.72c0-99.84 79.36-179.2 179.2-179.2s179.2 79.36 179.2 179.2c0 148.48-125.44 179.2-179.2 332.8-74.24-71.68-179.2-179.2-179.2-332.8zM309.76 360.96l-5.12-51.2-25.6 2.56c-51.2 5.12-92.16 46.080-99.84 99.84l-2.56 25.6 51.2 5.12 2.56-25.6c2.56-28.16 25.6-51.2 53.76-53.76l25.6-2.56z" />
<glyph unicode="&#xe926;" glyph-name="partner" d="M384 486.4c0-25.6 2.56-51.2 10.24-74.24-12.8-2.56-25.6-2.56-35.84-2.56-128 0-230.4 102.4-230.4 230.4s102.4 230.4 230.4 230.4c87.040 0 163.84-48.64 202.24-122.88-104.96-40.96-176.64-143.36-176.64-261.12zM537.6 235.52c-115.2-38.4-207.36-125.44-250.88-235.52h-286.72c0 197.12 161.28 358.4 358.4 358.4 20.48 0 40.96-2.56 58.88-5.12 25.6-51.2 69.12-92.16 120.32-117.76zM665.6 256c-128 0-230.4 102.4-230.4 230.4s102.4 230.4 230.4 230.4 230.4-102.4 230.4-230.4-104.96-230.4-230.4-230.4zM1024-153.6h-716.8c0 197.12 161.28 358.4 358.4 358.4s358.4-161.28 358.4-358.4z" />
<glyph unicode="&#xe927;" glyph-name="photovoltaik-cells" d="M750.080 819.2v0h-476.16c-64 2.56-117.76-51.2-120.32-115.2v0-691.2c0-64 53.76-115.2 120.32-115.2v0h478.72c64-2.56 117.76 51.2 120.32 115.2v0 691.2c-2.56 64-56.32 115.2-122.88 115.2zM384 76.8h-51.2v-76.8h-51.2v204.8h51.2v-76.8h51.2v-51.2zM384 332.8h-51.2v-76.8h-51.2v204.8h51.2v-76.8h51.2v-51.2zM384 588.8h-51.2v-76.8h-51.2v204.8h51.2v-76.8h51.2v-51.2zM588.8 76.8h-51.2v-76.8h-51.2v76.8h-51.2v51.2h51.2v76.8h51.2v-76.8h51.2v-51.2zM588.8 332.8h-51.2v-76.8h-51.2v76.8h-51.2v51.2h51.2v76.8h51.2v-76.8h51.2v-51.2zM588.8 588.8h-51.2v-76.8h-51.2v76.8h-51.2v51.2h51.2v76.8h51.2v-76.8h51.2v-51.2zM742.4 128v-128h-51.2v76.8h-51.2v51.2h51.2v76.8h51.2v-76.8zM742.4 384v-128h-51.2v76.8h-51.2v51.2h51.2v76.8h51.2v-76.8zM742.4 640v-128h-51.2v76.8h-51.2v51.2h51.2v76.8h51.2v-76.8z" />
<glyph unicode="&#xe928;" glyph-name="photovoltaik-systems" d="M819.2 563.2h-204.8c-56.32 0-102.4-46.080-102.4-102.4v-409.6c0-56.32 46.080-102.4 102.4-102.4h204.8c56.32 0 102.4 46.080 102.4 102.4v409.6c0 56.32-46.080 102.4-102.4 102.4zM704 102.4h-38.4v-76.8h-51.2v76.8h-25.6v51.2h25.6v76.8h51.2v-76.8h38.4v-51.2zM704 358.4h-38.4v-76.8h-51.2v76.8h-25.6v51.2h25.6v76.8h51.2v-76.8h38.4v-51.2zM844.8 102.4h-25.6v-76.8h-51.2v76.8h-38.4v51.2h38.4v76.8h51.2v-76.8h25.6v-51.2zM844.8 358.4h-25.6v-76.8h-51.2v76.8h-38.4v51.2h38.4v76.8h51.2v-76.8h25.6v-51.2zM345.6 537.6c0-56.554-45.846-102.4-102.4-102.4s-102.4 45.846-102.4 102.4c0 56.554 45.846 102.4 102.4 102.4s102.4-45.846 102.4-102.4zM358.4 563.2h128v-51.2h-128v51.2zM308.898 635.891l90.509 90.509 36.204-36.204-90.509-90.509-36.204 36.204zM217.6 780.8h51.2v-128h-51.2v128zM55.46 690.196l36.204 36.204 90.509-90.509-36.204-36.204-90.509 90.509zM0 563.2h128v-51.2h-128v51.2zM53.65 384.264l90.509 90.509 36.204-36.204-90.509-90.509-36.204 36.204zM217.6 422.4h51.2v-128h-51.2v128zM307.087 438.569l36.204 36.204 90.509-90.509-36.204-36.204-90.509 90.509z" />
<glyph unicode="&#xe929;" glyph-name="retailer" d="M588.8 588.8c0-127.246-103.154-230.4-230.4-230.4s-230.4 103.154-230.4 230.4c0 127.246 103.154 230.4 230.4 230.4s230.4-103.154 230.4-230.4zM947.2 102.4l-51.2 102.4h-204.8l76.8-128 102.4 15.36v-71.68l-153.6-38.4v81.92l-25.6 40.96-25.6-40.96v-81.92l-153.6 38.4v71.68l102.4-15.36 76.8 128h-204.8l-51.2-102.4 25.6-2.56v-120.32l230.4-56.32 230.4 56.32v120.32zM675.84 179.2l-2.56-2.56c2.56 0 2.56 0 2.56 2.56v0zM389.12 125.44l51.2 102.4 12.8 28.16h87.040c-53.76 33.28-117.76 51.2-184.32 51.2-197.12 0-358.4-161.28-358.4-358.4h409.6v104.96l-51.2 7.68 33.28 64z" />
<glyph unicode="&#xe92a;" glyph-name="route-a" d="M465.92 483.84h84.48l-40.96 125.44zM512 870.4c-215.040 0-391.68-176.64-391.68-391.68 0-209.92 358.4-583.68 373.76-599.040l17.92-17.92 17.92 17.92c15.36 15.36 373.76 389.12 373.76 599.040 0 215.040-176.64 391.68-391.68 391.68zM583.68 386.56l-17.92 53.76h-115.2l-17.92-53.76h-58.88l102.4 281.6h71.68l102.4-281.6h-66.56z" />
<glyph unicode="&#xe92b;" glyph-name="route-b" d="M563.2 586.24c0 23.040-12.8 33.28-38.4 33.28h-58.88v-66.56h61.44c25.6 0 35.84 12.8 35.84 33.28zM529.92 509.44h-64v-74.24h64c25.6 0 40.96 12.8 40.96 38.4 2.56 23.040-12.8 35.84-40.96 35.84zM512 870.4c-215.040 0-391.68-176.64-391.68-391.68 0-209.92 358.4-583.68 373.76-599.040l17.92-17.92 17.92 17.92c15.36 15.36 373.76 389.12 373.76 599.040 0 215.040-176.64 391.68-391.68 391.68zM537.6 386.56h-133.12v281.6h128c58.88 0 92.16-25.6 92.16-74.24 0-30.72-10.24-48.64-40.96-61.44 35.84-12.8 51.2-33.28 51.2-66.56 0-53.76-33.28-79.36-97.28-79.36z" />
<glyph unicode="&#xe92c;" glyph-name="service" d="M588.8 588.8c0-127.246-103.154-230.4-230.4-230.4s-230.4 103.154-230.4 230.4c0 127.246 103.154 230.4 230.4 230.4s230.4-103.154 230.4-230.4zM478.72 138.24l97.28 97.28c-61.44 43.52-135.68 71.68-217.6 71.68-197.12 0-358.4-161.28-358.4-358.4h378.88c-12.8 40.96-2.56 89.6 30.72 120.32l69.12 69.12zM704 38.4l-92.16-89.6h104.96c0 30.72-5.12 64-12.8 89.6v0zM949.76 358.4l-81.92-81.92-69.12 17.92-17.92 69.12 81.92 81.92c-15.36 5.12-30.72 7.68-43.52 7.68-30.72 0-58.88-10.24-81.92-28.16-5.12-5.12-10.24-7.68-15.36-12.8-38.4-38.4-51.2-92.16-33.28-143.36 0 0-240.64-240.64-243.2-243.2-20.48-23.040-20.48-56.32-5.12-79.36 2.56-2.56 5.12-7.68 7.68-10.24 25.6-23.040 66.56-20.48 89.6 5.12l238.080 240.64c48.64-15.36 104.96-2.56 140.8 33.28 35.84 38.4 48.64 92.16 33.28 143.36z" />
<glyph unicode="&#xe92d;" glyph-name="solar-thermal-systems" d="M243.2 640c-56.32 0-102.4-46.080-102.4-102.4s46.080-102.4 102.4-102.4 102.4 46.080 102.4 102.4-46.080 102.4-102.4 102.4zM243.2 486.4c-28.16 0-51.2 23.040-51.2 51.2s23.040 51.2 51.2 51.2 51.2-23.040 51.2-51.2-23.040-51.2-51.2-51.2zM358.4 563.2h128v-51.2h-128v51.2zM308.898 635.891l90.509 90.509 36.204-36.204-90.509-90.509-36.204 36.204zM217.6 780.8h51.2v-128h-51.2v128zM55.46 690.196l36.204 36.204 90.509-90.509-36.204-36.204-90.509 90.509zM0 563.2h128v-51.2h-128v51.2zM53.65 384.264l90.509 90.509 36.204-36.204-90.509-90.509-36.204 36.204zM217.6 422.4h51.2v-128h-51.2v128zM307.087 438.569l36.204 36.204 90.509-90.509-36.204-36.204-90.509 90.509zM281.6 38.4c0-48.64 40.96-89.6 89.6-89.6s89.6 40.96 89.6 89.6c0 74.24-64 89.6-89.6 166.4-35.84-35.84-89.6-89.6-89.6-166.4zM819.2 563.2h-204.8c-56.32 0-102.4-46.080-102.4-102.4v-409.6c0-56.32 46.080-102.4 102.4-102.4h204.8c56.32 0 102.4 46.080 102.4 102.4v409.6c0 56.32-46.080 102.4-102.4 102.4zM665.6 179.2h102.4c43.52 0 76.8-33.28 76.8-76.8s-33.28-76.8-76.8-76.8h-153.6v51.2h153.6c12.8 0 25.6 12.8 25.6 25.6s-12.8 25.6-25.6 25.6h-102.4c-43.52 0-76.8 33.28-76.8 76.8s33.28 76.8 76.8 76.8h102.4c12.8 0 25.6 12.8 25.6 25.6s-12.8 25.6-25.6 25.6h-102.4c-43.52 0-76.8 33.28-76.8 76.8s33.28 76.8 76.8 76.8h153.6v-51.2h-153.6c-12.8 0-25.6-12.8-25.6-25.6s12.8-25.6 25.6-25.6h102.4c43.52 0 76.8-33.28 76.8-76.8s-33.28-76.8-76.8-76.8h-102.4c-12.8 0-25.6-12.8-25.6-25.6s12.8-25.6 25.6-25.6z" />
<glyph unicode="&#xe92e;" glyph-name="solid-fuel-boilers" d="M844.8 563.2h-256c-43.52 0-76.8-33.28-76.8-76.8v-460.8c0-43.52 33.28-76.8 76.8-76.8h256c43.52 0 76.8 33.28 76.8 76.8v460.8c0 43.52-33.28 76.8-76.8 76.8zM819.2 51.2h-204.8v230.4h204.8v-230.4zM819.2 409.6h-204.8v51.2h204.8v-51.2zM665.6 230.4h102.4v-128h-102.4v128zM263.68 606.72c-17.92 10.24-35.84 7.68-74.24-17.92-20.48-17.92-33.28-43.52-33.28-71.68s12.8-56.32 33.28-74.24c20.48-20.48 46.080-30.72 74.24-30.72s56.32 12.8 69.12 38.4c20.48 15.36 33.28 38.4 33.28 64 0 28.16-7.68 53.76-25.6 74.24-17.92 17.92-48.64 17.92-76.8 17.92zM445.44 535.040c0 2.56 0 7.68 2.56 10.24 2.56 5.12 5.12 10.24 2.56 12.8-2.56 7.68-5.12 12.8-7.68 17.92v5.12c-2.56 5.12-5.12 7.68-7.68 10.24-2.56 5.12-2.56 7.68-5.12 12.8 0 7.68-2.56 12.8-7.68 20.48l-2.56 2.56c0 2.56 0 7.68-2.56 7.68-7.68 5.12-12.8 10.24-20.48 12.8l-5.12 5.12c-7.68 7.68-15.36 15.36-23.040 23.040-5.12 2.56-10.24 7.68-15.36 10.24v0c-5.12 2.56-12.8 5.12-17.92 7.68-7.68 2.56-12.8 2.56-20.48 2.56-2.56 0-2.56 0-5.12 0-5.12 0-10.24 0-15.36 0-7.68 0-17.92 0-25.6 0h-12.8c-5.12 0-7.68 0-12.8 2.56s-10.24 5.12-15.36 2.56c-5.12 0-12.8-2.56-17.92-5.12s-12.8-2.56-17.92-7.68c-5.12-2.56-10.24-5.12-15.36-7.68s-10.24-5.12-15.36-10.24c-7.68-5.12-15.36-7.68-23.040-10.24-10.24-2.56-20.48-7.68-28.16-15.36-5.12-5.12 0-12.8 2.56-15.36s5.12-7.68 2.56-10.24c-5.12-5.12-7.68-10.24-12.8-12.8-7.68-5.12-17.92-12.8-20.48-20.48s0-15.36 2.56-23.040c2.56-5.12 2.56-10.24 2.56-15.36s-2.56-10.24-5.12-15.36c-2.56-7.68-5.12-17.92-5.12-25.6s2.56-12.8 7.68-17.92c2.56-5.12 5.12-7.68 5.12-12.8s2.56-10.24 2.56-15.36c0-7.68 0-17.92 2.56-25.6 2.56-5.12 7.68-10.24 12.8-12.8s7.68-7.68 10.24-12.8c2.56-12.8 10.24-23.040 17.92-33.28 5.12-2.56 7.68-2.56 7.68 0 2.56-2.56 5.12-2.56 7.68-2.56h2.56c2.56-2.56 2.56-2.56 5.12-5.12 5.12-7.68 10.24-12.8 17.92-15.36 5.12-2.56 7.68-2.56 12.8-5.12 5.12-5.12 10.24-7.68 17.92-10.24 10.24 0 23.040 2.56 33.28 2.56h2.56c5.12 0 10.24-5.12 15.36-5.12 7.68-2.56 15.36-7.68 23.040-7.68h15.36c12.8 0 23.040 2.56 35.84 5.12 7.68 2.56 15.36 7.68 20.48 12.8 5.12 2.56 10.24 7.68 12.8 10.24 5.12 0 7.68 5.12 7.68 10.24 0 2.56 0 0 5.12 2.56 2.56 2.56 7.68 2.56 10.24 2.56 5.12 0 10.24 2.56 12.8 5.12 7.68 7.68 10.24 17.92 12.8 30.72 2.56 7.68 5.12 15.36 10.24 23.040 2.56 5.12 5.12 7.68 10.24 10.24 5.12 5.12 10.24 10.24 12.8 15.36 2.56 7.68 5.12 12.8 5.12 20.48 2.56 10.24 5.12 20.48 5.12 28.16s-2.56 12.8-5.12 20.48c-5.12 0-7.68 5.12-7.68 10.24zM391.68 440.32c-20.48-33.28-51.2-56.32-89.6-66.56-38.4-7.68-76.8-2.56-107.52 17.92-43.52 28.16-69.12 74.24-69.12 122.88 0 25.6 7.68 51.2 20.48 76.8v0c43.52 66.56 130.56 87.040 199.68 46.080v0c33.28-20.48 56.32-51.2 64-89.6 7.68-35.84 2.56-74.24-17.92-107.52z" />
<glyph unicode="&#xe92f;" glyph-name="stationary-boilers-up-to-60kw" d="M614.4 435.2h153.6v-230.4h-153.6v230.4zM230.4 332.8h102.4v-128h-102.4v128zM386.56-23.040c-17.92 0-28.16-12.8-28.16-30.72s12.8-30.72 30.72-30.72c15.36 0 28.16 12.8 28.16 30.72-2.56 17.92-12.8 30.72-30.72 30.72zM947.2 102.4v691.2c0 43.52-33.28 76.8-76.8 76.8h-358.4c-43.52 0-76.8-33.28-76.8-76.8v-179.2c51.2 5.12 97.28-33.28 102.4-84.48 0-5.12 0-12.8 0-17.92v-409.6h-51.2v384c0 43.52-33.28 76.8-76.8 76.8h-256c-43.52 0-76.8-33.28-76.8-76.8v-384h-76.8v-256h1024v256h-76.8zM563.2 716.8h256v-51.2h-256v51.2zM563.2 486.4h256v-332.8h-256v332.8zM179.2 486.4h204.8v-51.2h-204.8v51.2zM179.2 384h204.8v-230.4h-204.8v230.4zM243.2-5.12l-58.88-28.16 58.88-28.16v-20.48l-81.92 40.96v15.36l81.92 40.96v-20.48zM389.12-102.4c-17.92 0-30.72 7.68-40.96 20.48-7.68 12.8-12.8 25.6-12.8 48.64 0 48.64 20.48 79.36 56.32 79.36 20.48 0 33.28-10.24 40.96-30.72l-17.92-7.68c-7.68 15.36-12.8 20.48-25.6 20.48-20.48 0-30.72-17.92-33.28-56.32 7.68 12.8 20.48 17.92 35.84 17.92 28.16 0 46.080-20.48 46.080-46.080s-20.48-46.080-48.64-46.080zM517.12-102.4c-33.28 0-53.76 30.72-53.76 76.8s20.48 74.24 53.76 74.24c30.72 0 51.2-28.16 51.2-74.24 2.56-46.080-20.48-76.8-51.2-76.8zM670.72-99.84l-30.72 48.64-15.36-15.36v-33.28h-20.48v153.6h20.48v-94.72l40.96 48.64h25.6l-35.84-40.96 40.96-64h-25.6v-2.56zM837.12-99.84h-23.040l-23.040 79.36-25.6-79.36h-23.040l-30.72 107.52h23.040l20.48-81.92 25.6 81.92h20.48l23.040-81.92 23.040 81.92h23.040l-33.28-107.52zM517.12 30.72c-17.92 0-30.72-23.040-30.72-56.32 0-35.84 10.24-58.88 30.72-58.88 17.92 0 30.72 23.040 30.72 58.88s-12.8 56.32-30.72 56.32z" />
<glyph unicode="&#xe930;" glyph-name="sun" d="M512 614.4c-140.8 0-256-115.2-256-256s115.2-256 256-256 256 115.2 256 256-115.2 256-256 256zM0 384h204.8v-51.2h-204.8v51.2zM819.2 384h204.8v-51.2h-204.8v51.2zM486.4 870.4h51.2v-204.8h-51.2v204.8zM486.4 51.2h51.2v-204.8h-51.2v204.8zM133.12 701.44l35.84 35.84 145.92-145.92-35.84-35.84c-2.56 2.56-145.92 145.92-145.92 145.92zM711.68 122.88l35.84 35.84 145.92-145.92-35.84-35.84c-2.56 0-145.92 145.92-145.92 145.92zM711.68 593.92l145.92 145.92 35.84-35.84-145.92-145.92-35.84 35.84zM130.56 15.36l145.92 145.92 35.84-35.84-145.92-145.92-35.84 35.84z" />
<glyph unicode="&#xe931;" glyph-name="ventilation-systems" d="M916.48 240.64c-7.68 23.040-25.6 38.4-46.080 51.2-20.48 10.24-38.4 17.92-56.32 23.040-20.48 7.68-38.4 12.8-58.88 20.48-20.48 5.12-43.52 10.24-64 15.36-15.36 2.56-33.28 5.12-48.64 7.68-5.12 20.48-15.36 38.4-30.72 51.2 7.68 15.36 12.8 30.72 17.92 46.080 7.68 20.48 12.8 40.96 20.48 61.44 5.12 20.48 10.24 43.52 12.8 61.44 2.56 20.48 5.12 40.96 7.68 61.44 2.56 23.040-5.12 46.080-20.48 64-12.8 17.92-33.28 30.72-56.32 33.28-12.8 2.56-28.16 5.12-40.96 5.12-15.36 0-28.16 0-40.96 0s-25.6 0-40.96-2.56c-12.8 0-28.16-2.56-40.96-5.12-23.040-5.12-40.96-15.36-56.32-33.28s-23.040-40.96-20.48-64c2.56-20.48 5.12-40.96 7.68-61.44s7.68-40.96 12.8-61.44 10.24-40.96 20.48-61.44c5.12-15.36 12.8-30.72 17.92-43.52-12.8-15.36-23.040-33.28-30.72-53.76-15.36-2.56-33.28-2.56-48.64-7.68-20.48-5.12-43.52-7.68-64-15.36-20.48-5.12-40.96-12.8-61.44-20.48-17.92-7.68-38.4-15.36-56.32-23.040-20.48-10.24-35.84-28.16-46.080-51.2-7.68-20.48-10.24-43.52-2.56-66.56 5.12-12.8 10.24-25.6 15.36-38.4s12.8-25.6 17.92-35.84 12.8-23.040 20.48-33.28 15.36-23.040 25.6-33.28c15.36-17.92 35.84-28.16 56.32-30.72 23.040-2.56 46.080 2.56 66.56 15.36 17.92 12.8 33.28 25.6 48.64 38.4s30.72 28.16 46.080 43.52c15.36 15.36 30.72 33.28 43.52 48.64 10.24 12.8 20.48 25.6 30.72 38.4 10.24-2.56 20.48-2.56 30.72-2.56s20.48 2.56 30.72 2.56c10.24-12.8 17.92-25.6 28.16-35.84 12.8-15.36 28.16-33.28 43.52-48.64s33.28-30.72 46.080-43.52c15.36-12.8 30.72-25.6 48.64-38.4 20.48-12.8 43.52-17.92 66.56-15.36s43.52 15.36 58.88 30.72c10.24 10.24 17.92 20.48 25.6 33.28 7.68 10.24 15.36 23.040 20.48 33.28 7.68 10.24 12.8 23.040 17.92 35.84s10.24 25.6 15.36 38.4c17.92 23.040 17.92 46.080 10.24 66.56z" />
<glyph unicode="&#xe932;" glyph-name="wall-mounted-boilers" d="M537.6 486.4h102.4v-128h-102.4v128zM716.8 819.2h-256c-43.52 0-76.8-33.28-76.8-76.8v-460.8c0-43.52 33.28-76.8 76.8-76.8h256c43.52 0 76.8 33.28 76.8 76.8v460.8c0 43.52-33.28 76.8-76.8 76.8zM691.2 307.2h-204.8v230.4h204.8v-230.4zM691.2 665.6h-204.8v51.2h204.8v-51.2zM230.4-51.2h256v-51.2h-256v51.2zM220.16 76.8l35.84-35.84 76.8 76.8v-143.36h51.2v143.36l76.8-76.8 35.84 35.84-138.24 138.24z" />
<glyph unicode="&#xe933;" glyph-name="wall-mounted-condensing-gas-boilers" d="M844.8 819.2h-256c-43.52 0-76.8-33.28-76.8-76.8v-460.8c0-43.52 33.28-76.8 76.8-76.8h256c43.52 0 76.8 33.28 76.8 76.8v460.8c0 43.52-33.28 76.8-76.8 76.8zM819.2 307.2h-204.8v230.4h204.8v-230.4zM819.2 665.6h-204.8v51.2h204.8v-51.2zM665.6 486.4h102.4v-128h-102.4v128zM358.4-51.2h256v-51.2h-256v51.2zM348.16 76.8l35.84-35.84 76.8 76.8v-143.36h51.2v143.36l76.8-76.8 35.84 35.84-138.24 138.24zM302.080 312.32l-7.68-5.12c94.72 7.68 166.4 84.48 166.4 179.2 0 151.040-104.96 258.56-179.2 332.8-53.76-153.6-179.2-184.32-179.2-332.8 0-81.92 56.32-153.6 135.68-174.080l-7.68 7.68c-46.080 53.76-12.8 74.24 2.56 120.32 12.8-17.92 28.16-33.28 46.080-43.52 20.48 40.96 33.28 87.040 43.52 133.12 46.080-51.2 25.6-181.76-20.48-217.6z" />
<glyph unicode="&#xe934;" glyph-name="wall-mounted-condensing-gas-boilers-above-50-kw" d="M665.6 614.4h102.4v-128h-102.4v128zM588.8 332.8h256c43.52 0 76.8 33.28 76.8 76.8v384c0 43.52-33.28 76.8-76.8 76.8h-256c-43.52 0-76.8-33.28-76.8-76.8v-384c0-43.52 33.28-76.8 76.8-76.8zM614.4 768h204.8v-51.2h-204.8v51.2zM614.4 665.6h204.8v-230.4h-204.8v230.4zM358.4 179.2h256v-51.2h-256v51.2zM409.6 220.16l51.2 51.2v-66.56h51.2v66.56l51.2-51.2 35.84 35.84-112.64 112.64-112.64-112.64zM238.080 363.52l-7.68 7.68c-46.080 53.76-12.8 74.24 2.56 120.32 12.8-17.92 28.16-33.28 46.080-43.52 20.48 40.96 33.28 87.040 43.52 133.12 43.52-51.2 23.040-179.2-23.040-215.040l-5.12-7.68c94.72 7.68 166.4 84.48 166.4 179.2 0 151.040-104.96 258.56-179.2 332.8-53.76-153.6-179.2-184.32-179.2-332.8 0-81.92 56.32-153.6 135.68-174.080zM517.12 30.72c-17.92 0-30.72-23.040-30.72-56.32 0-35.84 10.24-58.88 30.72-58.88 17.92 0 30.72 23.040 30.72 58.88-2.56 35.84-12.8 56.32-30.72 56.32zM0 102.4v-256h1024v256h-1024zM248.32-40.96l-81.92-40.96v20.48l58.88 28.16-58.88 28.16v20.48l81.92-40.96v-15.36zM386.56-102.4c-15.36 0-25.6 5.12-35.84 10.24-7.68 5.12-12.8 12.8-15.36 25.6l20.48 5.12c5.12-15.36 15.36-23.040 30.72-23.040 17.92 0 28.16 12.8 28.16 30.72 0 20.48-10.24 30.72-28.16 30.72-10.24 0-20.48-5.12-25.6-12.8h-17.92l7.68 79.36h79.36v-17.92h-64l-5.12-43.52c7.68 7.68 15.36 10.24 28.16 10.24 28.16 0 46.080-20.48 46.080-48.64 2.56-25.6-17.92-46.080-48.64-46.080zM517.12-102.4c-33.28 0-53.76 30.72-53.76 76.8 0 43.52 20.48 74.24 53.76 74.24 30.72 0 53.76-30.72 53.76-74.24s-23.040-76.8-53.76-76.8zM670.72-99.84l-30.72 51.2-15.36-17.92v-33.28h-20.48v153.6h20.48v-94.72l40.96 48.64h25.6l-35.84-40.96 40.96-64h-25.6v-2.56zM837.12-99.84h-23.040l-23.040 79.36-25.6-79.36h-23.040l-30.72 107.52h23.040l20.48-81.92 25.6 81.92h20.48l23.040-81.92 23.040 81.92h20.48l-30.72-107.52z" />
<glyph unicode="&#xe935;" glyph-name="wall-mounted-condensing-gas-boilers-to-50-kw" d="M665.6 614.4h102.4v-128h-102.4v128zM588.8 332.8h256c43.52 0 76.8 33.28 76.8 76.8v384c0 43.52-33.28 76.8-76.8 76.8h-256c-43.52 0-76.8-33.28-76.8-76.8v-384c0-43.52 33.28-76.8 76.8-76.8zM614.4 768h204.8v-51.2h-204.8v51.2zM614.4 665.6h204.8v-230.4h-204.8v230.4zM358.4 179.2h256v-51.2h-256v51.2zM409.6 220.16l51.2 51.2v-66.56h51.2v66.56l51.2-51.2 35.84 35.84-112.64 112.64-112.64-112.64zM238.080 363.52l-7.68 7.68c-46.080 53.76-12.8 74.24 2.56 120.32 12.8-17.92 28.16-33.28 46.080-43.52 20.48 40.96 33.28 87.040 43.52 133.12 43.52-51.2 23.040-179.2-23.040-215.040l-5.12-7.68c94.72 7.68 166.4 84.48 166.4 179.2 0 151.040-104.96 258.56-179.2 332.8-53.76-153.6-179.2-184.32-179.2-332.8 0-81.92 56.32-153.6 135.68-174.080zM517.12 30.72c-17.92 0-30.72-23.040-30.72-56.32 0-35.84 10.24-58.88 30.72-58.88 17.92 0 30.72 23.040 30.72 58.88-2.56 35.84-12.8 56.32-30.72 56.32zM0 102.4v-256h1024v256h-1024zM245.76-5.12l-58.88-28.16 58.88-28.16v-20.48l-81.92 40.96v15.36l81.92 40.96v-20.48zM386.56-102.4c-15.36 0-25.6 5.12-35.84 10.24-7.68 5.12-12.8 12.8-15.36 25.6l20.48 5.12c5.12-15.36 15.36-23.040 30.72-23.040 17.92 0 28.16 12.8 28.16 30.72 0 20.48-10.24 30.72-28.16 30.72-10.24 0-20.48-5.12-25.6-12.8h-17.92l7.68 79.36h79.36v-17.92h-64l-5.12-43.52c7.68 7.68 15.36 10.24 28.16 10.24 28.16 0 46.080-20.48 46.080-48.64 2.56-25.6-17.92-46.080-48.64-46.080zM517.12-102.4c-33.28 0-53.76 30.72-53.76 76.8 0 43.52 20.48 74.24 53.76 74.24 30.72 0 53.76-30.72 53.76-74.24s-23.040-76.8-53.76-76.8zM670.72-99.84l-30.72 51.2-15.36-17.92v-33.28h-20.48v153.6h20.48v-94.72l40.96 48.64h25.6l-35.84-40.96 40.96-64h-25.6v-2.56zM837.12-99.84h-23.040l-23.040 79.36-25.6-79.36h-23.040l-30.72 107.52h23.040l20.48-81.92 25.6 81.92h20.48l23.040-81.92 23.040 81.92h20.48l-30.72-107.52z" />
<glyph unicode="&#xe936;" glyph-name="water" d="M256 453.12c51.2-35.84 120.32-35.84 171.52 0 51.2-35.84 120.32-35.84 171.52 0 51.2-35.84 120.32-35.84 171.52 0 25.6-17.92 56.32-28.16 84.48-28.16 38.4 0 74.24 12.8 102.4 40.96l17.92 17.92-35.84 35.84-17.92-15.36c-38.4-35.84-97.28-35.84-135.68 0l-17.92 17.92-17.92-17.92c-38.4-35.84-97.28-35.84-135.68 0l-17.92 17.92-17.92-17.92c-38.4-35.84-97.28-35.84-135.68 0l-17.92 17.92-15.36-17.92c-38.4-35.84-97.28-35.84-135.68 0l-17.92 17.92-17.92-17.92c-38.4-35.84-97.28-35.84-135.68 0l-17.92 17.92-35.84-35.84 17.92-17.92c51.2-51.2 133.12-56.32 189.44-15.36zM921.6 350.72c-38.4-35.84-97.28-35.84-135.68 0l-17.92 17.92-17.92-17.92c-38.4-35.84-97.28-35.84-135.68 0l-17.92 17.92-17.92-17.92c-38.4-35.84-97.28-35.84-135.68 0l-17.92 17.92-15.36-17.92c-38.4-35.84-97.28-35.84-135.68 0l-17.92 17.92-17.92-17.92c-38.4-35.84-97.28-35.84-135.68 0l-17.92 17.92-35.84-35.84 17.92-17.92c51.2-51.2 130.56-56.32 189.44-15.36 51.2-35.84 120.32-35.84 171.52 0 51.2-35.84 120.32-35.84 171.52 0 51.2-35.84 120.32-35.84 171.52 0 25.6-17.92 56.32-28.16 84.48-28.16 38.4 0 74.24 12.8 102.4 40.96l17.92 17.92-35.84 35.84c0 0-17.92-15.36-17.92-15.36zM921.6 197.12c-38.4-35.84-97.28-35.84-135.68 0l-17.92 17.92-17.92-17.92c-38.4-35.84-97.28-35.84-135.68 0l-17.92 17.92-17.92-17.92c-38.4-35.84-97.28-35.84-135.68 0l-17.92 17.92-15.36-17.92c-38.4-35.84-97.28-35.84-135.68 0l-17.92 17.92-17.92-17.92c-38.4-35.84-97.28-35.84-135.68 0l-17.92 17.92-35.84-35.84 17.92-17.92c51.2-51.2 130.56-56.32 189.44-15.36 51.2-35.84 120.32-35.84 171.52 0 51.2-35.84 120.32-35.84 171.52 0 51.2-35.84 120.32-35.84 171.52 0 25.6-17.92 56.32-28.16 84.48-28.16 38.4 0 74.24 12.8 102.4 40.96l17.92 17.92-35.84 35.84c0 0-17.92-15.36-17.92-15.36z" />
<glyph unicode="&#xe937;" glyph-name="adjust" horiz-adv-x="875" d="M438.848 47.552v621.717c-171.435 0-310.848-139.435-310.848-310.848s139.435-310.848 310.848-310.848zM877.717 358.4c0-242.283-196.565-438.848-438.848-438.848s-438.848 196.565-438.848 438.848 196.565 438.848 438.848 438.848 438.848-196.565 438.848-438.848z" />
<glyph unicode="&#xe938;" glyph-name="adn" horiz-adv-x="875" d="M438.848 514.965l114.859-174.848h-229.717zM647.424 212.117h53.717l-262.293 394.859-262.293-394.859h53.717l59.435 91.435h298.283zM877.717 358.4c0-242.283-196.565-438.848-438.848-438.848s-438.848 196.565-438.848 438.848 196.565 438.848 438.848 438.848 438.848-196.565 438.848-438.848z" />
<glyph unicode="&#xe939;" glyph-name="align-center" d="M1024 102.4v-73.152c0-20.011-16.576-36.565-36.565-36.565h-950.848c-20.011 0-36.565 16.576-36.565 36.565v73.152c0 20.011 16.576 36.565 36.565 36.565h950.848c20.011 0 36.565-16.576 36.565-36.565zM804.565 321.835v-73.152c0-20.011-16.576-36.565-36.565-36.565h-512c-20.011 0-36.565 16.576-36.565 36.565v73.152c0 20.011 16.576 36.565 36.565 36.565h512c20.011 0 36.565-16.576 36.565-36.565zM950.848 541.248v-73.152c0-20.011-16.576-36.565-36.565-36.565h-804.565c-20.011 0-36.565 16.576-36.565 36.565v73.152c0 20.011 16.576 36.565 36.565 36.565h804.565c20.011 0 36.565-16.576 36.565-36.565zM731.435 760.683v-73.152c0-20.011-16.576-36.565-36.565-36.565h-365.717c-20.011 0-36.565 16.576-36.565 36.565v73.152c0 20.011 16.576 36.565 36.565 36.565h365.717c20.011 0 36.565-16.576 36.565-36.565z" />
<glyph unicode="&#xe93a;" glyph-name="align-justify" d="M1024 102.4v-73.152c0-20.011-16.576-36.565-36.565-36.565h-950.848c-20.011 0-36.565 16.576-36.565 36.565v73.152c0 20.011 16.576 36.565 36.565 36.565h950.848c20.011 0 36.565-16.576 36.565-36.565zM1024 321.835v-73.152c0-20.011-16.576-36.565-36.565-36.565h-950.848c-20.011 0-36.565 16.576-36.565 36.565v73.152c0 20.011 16.576 36.565 36.565 36.565h950.848c20.011 0 36.565-16.576 36.565-36.565zM1024 541.248v-73.152c0-20.011-16.576-36.565-36.565-36.565h-950.848c-20.011 0-36.565 16.576-36.565 36.565v73.152c0 20.011 16.576 36.565 36.565 36.565h950.848c20.011 0 36.565-16.576 36.565-36.565zM1024 760.683v-73.152c0-20.011-16.576-36.565-36.565-36.565h-950.848c-20.011 0-36.565 16.576-36.565 36.565v73.152c0 20.011 16.576 36.565 36.565 36.565h950.848c20.011 0 36.565-16.576 36.565-36.565z" />
<glyph unicode="&#xe93b;" glyph-name="align-left" d="M1024 102.4v-73.152c0-20.011-16.576-36.565-36.565-36.565h-950.848c-20.011 0-36.565 16.576-36.565 36.565v73.152c0 20.011 16.576 36.565 36.565 36.565h950.848c20.011 0 36.565-16.576 36.565-36.565zM804.565 321.835v-73.152c0-20.011-16.576-36.565-36.565-36.565h-731.435c-20.011 0-36.565 16.576-36.565 36.565v73.152c0 20.011 16.576 36.565 36.565 36.565h731.435c20.011 0 36.565-16.576 36.565-36.565zM950.848 541.248v-73.152c0-20.011-16.576-36.565-36.565-36.565h-877.717c-20.011 0-36.565 16.576-36.565 36.565v73.152c0 20.011 16.576 36.565 36.565 36.565h877.717c20.011 0 36.565-16.576 36.565-36.565zM731.435 760.683v-73.152c0-20.011-16.576-36.565-36.565-36.565h-658.283c-20.011 0-36.565 16.576-36.565 36.565v73.152c0 20.011 16.576 36.565 36.565 36.565h658.283c20.011 0 36.565-16.576 36.565-36.565z" />
<glyph unicode="&#xe93c;" glyph-name="align-right" d="M1024 102.4v-73.152c0-20.011-16.576-36.565-36.565-36.565h-950.848c-20.011 0-36.565 16.576-36.565 36.565v73.152c0 20.011 16.576 36.565 36.565 36.565h950.848c20.011 0 36.565-16.576 36.565-36.565zM1024 321.835v-73.152c0-20.011-16.576-36.565-36.565-36.565h-731.435c-20.011 0-36.565 16.576-36.565 36.565v73.152c0 20.011 16.576 36.565 36.565 36.565h731.435c20.011 0 36.565-16.576 36.565-36.565zM1024 541.248v-73.152c0-20.011-16.576-36.565-36.565-36.565h-877.717c-20.011 0-36.565 16.576-36.565 36.565v73.152c0 20.011 16.576 36.565 36.565 36.565h877.717c20.011 0 36.565-16.576 36.565-36.565zM1024 760.683v-73.152c0-20.011-16.576-36.565-36.565-36.565h-658.283c-20.011 0-36.565 16.576-36.565 36.565v73.152c0 20.011 16.576 36.565 36.565 36.565h658.283c20.011 0 36.565-16.576 36.565-36.565z" />
<glyph unicode="&#xe93d;" glyph-name="amazon" d="M886.293 26.965c17.152 8.576 30.293-4.565 12.565-27.435s-160-153.152-398.848-153.152-421.717 163.435-477.717 230.848c-15.424 17.707 2.283 25.707 12.565 18.859 167.424-101.717 429.141-269.141 851.435-69.141zM1004.565 92.693c8.576-11.435 0-61.717-14.848-98.283-14.848-36.011-36.565-61.141-48.576-70.848-12.565-10.283-21.717-6.293-14.848 8.576s44.011 106.283 29.141 125.717c-14.848 18.859-84.565 9.707-109.717 7.424-24.576-2.283-29.717-4.565-32 0.576-5.141 13.141 49.707 35.435 85.717 40 36.011 4.011 93.717 1.707 105.152-13.141zM779.435 345.835c0-62.848 73.707-120.576 73.707-120.576l-129.707-128c-50.859 48-89.152 88-89.152 88-5.717 5.717-10.283 12.565-14.293 18.859-103.424-161.707-419.435-151.424-419.435 98.859 0 233.152 276.011 264.576 387.435 268.565v72.576c0 15.424 5.717 85.717-81.152 85.717 0 0-86.848 0-124.011-113.152l-168 15.424c0 112.576 106.859 238.293 308.011 238.293 200.576 0 256.576-130.283 256.576-188.011v-336.576zM395.435 333.824c0-116.011 192.576-143.424 192.576 39.424v92.565c-77.141-2.283-192.576-24-192.576-132.011z" />
<glyph unicode="&#xe93e;" glyph-name="ambulance" horiz-adv-x="1131" d="M365.717 65.835c0 40.576-32.576 73.152-73.152 73.152s-73.152-32.576-73.152-73.152 32.576-73.152 73.152-73.152 73.152 32.576 73.152 73.152zM146.283 358.4h219.435v146.283h-90.283c-3.435-0.576-9.707-2.859-12.565-5.141l-111.424-111.424c-1.707-2.859-4.565-9.152-5.141-12.565v-17.152zM877.717 65.835c0 40.576-32.576 73.152-73.152 73.152s-73.152-32.576-73.152-73.152 32.576-73.152 73.152-73.152 73.152 32.576 73.152 73.152zM950.848 449.835v109.717c0 10.283-8 18.283-18.283 18.283h-128v128c0 10.283-8 18.283-18.283 18.283h-109.717c-10.283 0-18.283-8-18.283-18.283v-128h-128c-10.283 0-18.283-8-18.283-18.283v-109.717c0-10.283 8-18.283 18.283-18.283h128v-128c0-10.283 8-18.283 18.283-18.283h109.717c10.283 0 18.283 8 18.283 18.283v128h128c10.283 0 18.283 8 18.283 18.283zM1097.152 760.683v-658.283c0-20.011-16.576-36.565-36.565-36.565h-109.717c0-80.576-65.152-146.283-146.283-146.283-80.576 0-146.283 65.707-146.283 146.283h-219.435c0-80.576-65.152-146.283-146.283-146.283s-146.283 65.707-146.283 146.283h-73.152c-20.011 0-36.565 16.576-36.565 36.565s16.576 36.565 36.565 36.565v237.717c0 20.011 11.435 48 25.707 62.293l113.152 113.152c14.293 14.293 42.283 25.707 62.293 25.707h91.435v182.848c0 20.011 16.576 36.565 36.565 36.565h658.283c20.011 0 36.565-16.576 36.565-36.565z" />
<glyph unicode="&#xe93f;" glyph-name="american-sign-language-interpreting" horiz-adv-x="1323" d="M589.717 321.835c-20.011 0.576-38.848 12.011-48 31.424-12.565 25.707-37.717 41.707-66.283 41.707-40.576 0-73.152-32.576-73.152-73.152 0-19.435 6.848-38.293 20.565-50.859l5.717-4.565c12.565-11.435 29.141-17.707 46.848-17.707 28.565 0 53.717 16 66.283 41.707 9.152 19.435 28.011 30.848 48 31.424zM914.283 394.965c0 19.435-6.848 38.293-20.565 50.859l-5.717 4.565c-12.565 11.435-29.141 17.707-46.848 17.707-28.565 0-53.717-16-66.283-41.707-9.152-19.435-28.011-30.848-48-31.424 20.011-0.576 38.848-12.011 48-31.424 12.565-25.707 37.717-41.707 66.283-41.707 40.576 0 73.152 32.576 73.152 73.152zM670.848 521.259c-13.141-26.859-46.293-38.293-73.152-25.152-24 12.011-49.707 17.707-76.565 17.707-20.011 0-38.848-3.435-56.576-9.707 3.435 0 7.424 0.576 10.859 0.576 70.293 0 134.848-41.152 165.141-104.576 13.141-27.435 1.152-60.011-26.283-73.152-6.848-3.435-14.293-5.141-22.293-5.141 8 0 15.424-1.707 22.293-5.141 27.435-13.141 39.424-45.717 26.283-73.152-30.293-63.424-94.848-104.576-165.141-104.576v0h-3.435c-8.576 1.152-16.576 1.707-25.152 2.283l-165.717 15.424-136.576-68.565c-5.717-2.859-10.859-4.011-16.576-4.011-13.141 0-26.283 7.424-32.576 20.011l-91.435 182.848c-8.576 17.707-2.283 38.848 14.293 48.576l119.424 68.011 84.565 152.576c13.141 117.717 71.424 225.707 164.011 301.717 23.424 19.435 58.283 16 77.141-7.424 19.435-23.424 16-57.707-7.424-77.141-25.707-21.717-48.576-46.293-66.859-73.152 44.565 30.293 96 50.859 152.576 57.707 30.293 4.011 57.707-17.152 61.141-47.424 4.011-30.293-17.152-57.707-47.424-61.141-33.152-4.011-64-15.424-90.859-31.424 18.283 4.011 37.141 5.717 56.576 5.717 43.435 0 85.717-9.707 124.565-28.565 27.435-13.717 38.848-46.293 25.152-73.707zM1221.141 612.693l91.435-182.848c8.576-17.707 2.283-38.848-14.293-48.576l-119.424-68.011-84.565-152.576c-13.141-117.717-71.424-225.707-164.011-301.717-10.283-8.576-22.848-12.565-34.859-12.565-16 0-31.424 6.848-42.283 20.011-19.435 23.424-16 57.707 7.424 77.141 25.707 21.717 48.576 46.293 66.859 73.152-44.565-30.293-96-50.859-152.576-57.707-2.283-0.576-4.565-0.576-6.848-0.576-27.435 0-50.859 20.565-54.293 48-4.011 30.293 17.152 57.707 47.424 61.141 33.152 4.011 64 15.424 90.859 31.424-18.283-4.011-37.141-5.717-56.576-5.717-43.435 0-85.717 9.707-124.565 28.565-27.435 13.717-38.848 46.293-25.152 73.707 13.141 26.859 46.293 38.293 73.152 25.152 24-12.011 49.707-17.707 76.565-17.707 20.011 0 38.848 3.435 56.576 9.707-3.435 0-7.424-0.576-10.859-0.576-70.293 0-134.848 41.152-165.141 104.576-13.141 27.435-1.152 60.011 26.283 73.152 6.848 3.435 14.293 5.141 22.293 5.141-8 0-15.424 1.707-22.293 5.141-27.435 13.141-39.424 45.717-26.283 73.152 30.293 63.424 94.848 104.576 165.141 104.576v0h4.011c8-1.152 16-1.707 24-2.283l166.293-15.424 136.576 68.565c5.717 2.859 10.859 4.011 16.576 4.011 13.141 0 26.283-7.424 32.576-20.011z" />
<glyph unicode="&#xe940;" glyph-name="anchor" d="M548.565 724.117c0 20.011-16.576 36.565-36.565 36.565s-36.565-16.576-36.565-36.565 16.576-36.565 36.565-36.565 36.565 16.576 36.565 36.565zM1024 193.835v-201.152c0-7.424-4.565-14.293-11.435-17.152-2.283-0.576-4.565-1.152-6.848-1.152-4.565 0-9.152 1.707-13.141 5.141l-53.141 53.141c-89.707-108.011-250.859-177.152-427.435-177.152s-337.707 69.141-427.435 177.152l-53.141-53.141c-3.435-3.435-8.576-5.141-13.141-5.141-2.283 0-4.565 0.576-6.848 1.152-6.848 2.859-11.435 9.707-11.435 17.152v201.152c0 10.283 8 18.283 18.283 18.283h201.152c7.424 0 14.293-4.565 17.152-11.435s1.152-14.293-4.011-20.011l-57.152-57.152c51.435-69.141 150.293-119.424 263.424-134.848v369.707h-109.717c-20.011 0-36.565 16.576-36.565 36.565v73.152c0 20.011 16.576 36.565 36.565 36.565h109.717v93.141c-43.435 25.152-73.152 72-73.152 126.293 0 80.576 65.707 146.283 146.283 146.283s146.283-65.707 146.283-146.283c0-54.293-29.717-101.141-73.152-126.293v-93.141h109.717c20.011 0 36.565-16.576 36.565-36.565v-73.152c0-20.011-16.576-36.565-36.565-36.565h-109.717v-369.707c113.152 15.424 212.011 65.707 263.424 134.848l-57.152 57.152c-5.141 5.717-6.848 13.141-4.011 20.011s9.707 11.435 17.152 11.435h201.152c10.283 0 18.283-8 18.283-18.283z" />
<glyph unicode="&#xe941;" glyph-name="android" horiz-adv-x="811" d="M281.707 594.389c12.565 0 22.293 10.283 22.293 22.293s-9.707 22.293-22.293 22.293c-12.011 0-21.717-10.283-21.717-22.293s9.707-22.293 21.717-22.293zM522.859 594.389c12.011 0 21.717 10.283 21.717 22.293s-9.707 22.293-21.717 22.293c-12.565 0-22.293-10.283-22.293-22.293s9.707-22.293 22.293-22.293zM58.859 489.259c32 0 58.283-26.283 58.283-58.283v-245.717c0-32.576-25.707-58.859-58.283-58.859s-58.859 26.283-58.859 58.859v245.717c0 32 26.283 58.283 58.859 58.283zM664.576 478.4v-380.565c0-34.859-28.011-62.848-62.293-62.848h-42.859v-129.707c0-32.576-26.283-58.859-58.859-58.859s-58.859 26.283-58.859 58.859v129.707h-78.848v-129.707c0-32.576-26.283-58.859-58.859-58.859-32 0-58.283 26.283-58.283 58.859l-0.576 129.707h-42.283c-34.859 0-62.848 28.011-62.848 62.848v380.565h524.565zM532.011 709.824c80-41.152 134.293-120 134.293-210.859h-528.576c0 90.859 54.293 169.707 134.848 210.859l-40.576 74.859c-2.283 4.011-1.152 9.152 2.859 11.435 4.011 1.707 9.152 0.576 11.435-3.435l41.152-75.435c34.859 15.424 73.707 24 114.859 24s80-8.576 114.859-24l41.152 75.435c2.283 4.011 7.424 5.141 11.435 3.435 4.011-2.283 5.141-7.424 2.859-11.435zM804.565 430.976v-245.717c0-32.576-26.283-58.859-58.859-58.859-32 0-58.283 26.283-58.283 58.859v245.717c0 32.576 26.283 58.283 58.283 58.283 32.576 0 58.859-25.707 58.859-58.283z" />
<glyph unicode="&#xe942;" glyph-name="angellist" horiz-adv-x="725" d="M544.576 654.4l-65.152-187.435 66.859-12.011c17.152 46.848 94.293 257.707 94.293 296 0 14.293-4.565 32-21.717 32-32 0-66.283-104-74.283-128.576zM373.717 261.824c6.293-16.576 13.141-33.152 18.859-50.283 12.565 14.293 25.707 27.435 40.576 38.293-20.011 4.011-40 5.717-59.435 12.011zM206.848 773.824c0-58.283 69.141-240 90.859-297.707 8 4.565 18.283 5.717 28.011 5.717 13.717 0 29.141-1.707 42.859-2.859l-69.141 200.576c-7.424 21.717-40.576 125.717-70.293 125.717-15.424 0-22.293-18.283-22.293-31.424zM161.707 340.117c0-41.707 112-195.435 153.707-195.435 11.435 0 21.141 12.565 21.141 22.848 0 13.141-13.141 45.717-18.283 58.283-14.848 38.293-69.141 156.565-116.011 156.565-15.424 0-40.576-26.859-40.576-42.283zM71.424 148.693c0-20.565 6.848-40.576 14.293-59.435 45.141-111.424 146.859-176.576 265.707-176.576 86.848 0 160 33.152 218.283 97.152 61.717 68.565 86.848 153.152 86.848 244.011 0 32 0.576 82.859-24.576 105.707-48 42.283-210.859 58.283-275.435 58.283-8 0-21.717-0.576-28.011-6.293-6.848-2.859-6.848-13.717-6.848-20.011 0-87.424 184.576-79.424 240-79.424 10.859 0 16-2.859 22.848-10.859 7.424-9.152 9.707-20.011 10.859-31.424-14.848-14.848-35.435-23.424-54.848-30.848-18.859-6.848-37.141-14.293-53.141-26.283-44.011-32-87.424-86.848-87.424-143.424 0-35.435 21.141-65.707 21.141-100.565 0-0.576-4.011-13.141-4.011-14.848-65.152 4.565-81.152 69.141-83.435 123.435-6.848-1.707-16-1.152-23.424-1.152 1.152-4.011 1.152-8 1.152-12.011 0-41.707-37.141-72-77.141-72-61.717 0-143.424 72.576-143.424 135.424 0 17.152 7.424 26.859 18.859 38.293 11.435-14.293 23.424-28.565 34.283-43.435 16.576-22.293 45.141-59.435 76.011-59.435 8 0 23.424 6.848 23.424 16.576 0 25.707-93.717 146.283-116.565 146.283-36.011 0-55.424-47.424-55.424-77.141zM6.293 143.552c0 74.283 28.565 123.435 102.293 143.424-6.293 16.576-16 41.707-16 59.435 0 46.848 57.707 105.152 104.576 105.152 13.717 0 27.435-4.011 40-8.576-24 68.011-93.141 259.435-93.141 323.989 0 57.707 29.141 103.424 91.435 103.424 80 0 170.859-288 190.293-345.152 25.152 62.848 104 326.293 193.152 326.293 56 0 87.424-44.565 87.424-97.707 0-60.565-67.435-249.152-90.859-314.283 96-23.424 109.717-101.141 109.717-187.435 0-228.565-145.707-405.717-381.717-405.717-43.435 0-86.293 8.576-127.424 24-108.565 41.152-209.707 152.576-209.707 273.152z" />
<glyph unicode="&#xe943;" glyph-name="scroll-down" horiz-adv-x="661" d="M614.293 376.683c0-4.565-2.283-9.707-5.717-13.141l-266.283-266.283c-3.435-3.435-8.576-5.717-13.141-5.717s-9.707 2.283-13.141 5.717l-266.283 266.283c-3.435 3.435-5.717 8.576-5.717 13.141s2.283 9.707 5.717 13.141l28.565 28.565c3.435 3.435 8 5.717 13.141 5.717 4.565 0 9.707-2.283 13.141-5.717l224.576-224.576 224.576 224.576c3.435 3.435 8.576 5.717 13.141 5.717s9.707-2.283 13.141-5.717l28.565-28.565c3.435-3.435 5.717-8.576 5.717-13.141zM614.293 596.117c0-4.565-2.283-9.707-5.717-13.141l-266.283-266.283c-3.435-3.435-8.576-5.717-13.141-5.717s-9.707 2.283-13.141 5.717l-266.283 266.283c-3.435 3.435-5.717 8.576-5.717 13.141s2.283 9.707 5.717 13.141l28.565 28.565c3.435 3.435 8 5.717 13.141 5.717 4.565 0 9.707-2.283 13.141-5.717l224.576-224.576 224.576 224.576c3.435 3.435 8.576 5.717 13.141 5.717s9.707-2.283 13.141-5.717l28.565-28.565c3.435-3.435 5.717-8.576 5.717-13.141z" />
<glyph unicode="&#xe944;" glyph-name="scroll-left" horiz-adv-x="597" d="M358.293 84.117c0-4.565-2.283-9.707-5.717-13.141l-28.565-28.565c-3.435-3.435-8.576-5.717-13.141-5.717s-9.707 2.283-13.141 5.717l-266.283 266.283c-3.435 3.435-5.717 8.576-5.717 13.141s2.283 9.707 5.717 13.141l266.283 266.283c3.435 3.435 8.576 5.717 13.141 5.717s9.707-2.283 13.141-5.717l28.565-28.565c3.435-3.435 5.717-8.576 5.717-13.141s-2.283-9.707-5.717-13.141l-224.576-224.576 224.576-224.576c3.435-3.435 5.717-8.576 5.717-13.141zM577.707 84.117c0-4.565-2.283-9.707-5.717-13.141l-28.565-28.565c-3.435-3.435-8.576-5.717-13.141-5.717s-9.707 2.283-13.141 5.717l-266.283 266.283c-3.435 3.435-5.717 8.576-5.717 13.141s2.283 9.707 5.717 13.141l266.283 266.283c3.435 3.435 8.576 5.717 13.141 5.717s9.707-2.283 13.141-5.717l28.565-28.565c3.435-3.435 5.717-8.576 5.717-13.141s-2.283-9.707-5.717-13.141l-224.576-224.576 224.576-224.576c3.435-3.435 5.717-8.576 5.717-13.141z" />
<glyph unicode="&#xe945;" glyph-name="scroll-right" horiz-adv-x="576" d="M340.011 321.835c0-4.565-2.283-9.707-5.717-13.141l-266.283-266.283c-3.435-3.435-8.576-5.717-13.141-5.717s-9.707 2.283-13.141 5.717l-28.565 28.565c-3.435 3.435-5.717 8.576-5.717 13.141s2.283 9.707 5.717 13.141l224.576 224.576-224.576 224.576c-3.435 3.435-5.717 8.576-5.717 13.141s2.283 9.707 5.717 13.141l28.565 28.565c3.435 3.435 8.576 5.717 13.141 5.717s9.707-2.283 13.141-5.717l266.283-266.283c3.435-3.435 5.717-8.576 5.717-13.141zM559.424 321.835c0-4.565-2.283-9.707-5.717-13.141l-266.283-266.283c-3.435-3.435-8.576-5.717-13.141-5.717s-9.707 2.283-13.141 5.717l-28.565 28.565c-3.435 3.435-5.717 8.576-5.717 13.141s2.283 9.707 5.717 13.141l224.576 224.576-224.576 224.576c-3.435 3.435-5.717 8.576-5.717 13.141s2.283 9.707 5.717 13.141l28.565 28.565c3.435 3.435 8.576 5.717 13.141 5.717s9.707-2.283 13.141-5.717l266.283-266.283c3.435-3.435 5.717-8.576 5.717-13.141z" />
<glyph unicode="&#xe946;" glyph-name="wholesaler" d="M596.48 581.12c0-127.246-103.154-230.4-230.4-230.4s-230.4 103.154-230.4 230.4c0 127.246 103.154 230.4 230.4 230.4s230.4-103.154 230.4-230.4zM453.12 0l-51.2 7.68 7.68 51.2 10.24 51.2 7.68 51.2 64-12.8c-5.12 15.36-7.68 33.28-5.12 53.76l12.8 71.68c-40.96 17.92-87.040 25.6-135.68 25.6-197.12 0-358.4-161.28-358.4-358.4h716.8c0 5.12 0 7.68 0 12.8l-268.8 46.080zM942.080 565.76l-81.92-458.24c-2.56 0-5.12 0-7.68 0-12.8-2.56-25.6-5.12-35.84-12.8-10.24-5.12-20.48-12.8-28.16-23.040-5.12-5.12-7.68-12.8-12.8-17.92 0-2.56-2.56-2.56-2.56-5.12l-25.6 5.12-46.080 7.68-130.56 25.6-99.84 15.36-7.68-51.2 256-46.080 48.64-10.24c0-10.24 2.56-17.92 5.12-25.6 2.56-10.24 10.24-20.48 15.36-28.16 17.92-23.040 46.080-38.4 79.36-38.4 56.32 0 102.4 46.080 102.4 102.4 0 40.96-25.6 76.8-61.44 92.16l76.8 407.040 25.6-5.12 7.68 51.2-76.8 15.36zM926.72 0c-2.56-28.16-28.16-48.64-56.32-46.080-2.56 0-5.12 0-7.68 0v0c-10.24 0-17.92 5.12-25.6 7.68-10.24 7.68-17.92 17.92-20.48 30.72-2.56 5.12-2.56 10.24-2.56 17.92 0 10.24 2.56 17.92 7.68 25.6 7.68 10.24 17.92 17.92 30.72 20.48 5.12 2.56 10.24 2.56 17.92 2.56 2.56 0 5.12 0 7.68 0v0c30.72-2.56 51.2-28.16 48.64-58.88zM588.8 332.8c-2.56 0-2.56 0 0 0-5.12-2.56-7.68-2.56-7.68-5.12 0 0-2.56 0-2.56-2.56-2.56 0-2.56-2.56-5.12-5.12l-2.56-2.56c-2.56-2.56-2.56-2.56-2.56-5.12l-2.56-2.56c0-2.56-2.56-2.56-2.56-5.12 0 0 0-2.56-2.56-2.56 0-2.56-2.56-5.12-2.56-10.24l-17.92-99.84c-5.12-28.16 12.8-53.76 40.96-58.88l176.64-30.72c2.56 0 5.12 0 7.68 0v0 0h2.56c2.56 0 5.12 0 5.12 0h2.56c2.56 0 5.12 0 7.68 2.56h2.56c2.56 0 5.12 2.56 5.12 2.56s2.56 0 2.56 2.56c2.56 0 2.56 2.56 5.12 5.12l2.56 2.56c2.56 2.56 2.56 2.56 2.56 5.12l2.56 2.56c0 2.56 2.56 2.56 2.56 5.12 0 0 0 2.56 2.56 2.56 0 2.56 2.56 5.12 2.56 10.24l17.92 99.84c5.12 28.16-12.8 53.76-40.96 58.88l-176.64 30.72c-2.56 0-5.12 0-7.68 0v0 0h-2.56c-2.56 0-5.12 0-5.12 0h-2.56c-5.12 2.56-7.68 2.56-7.68 0zM675.84 376.32l125.44-20.48c28.16-5.12 53.76 15.36 58.88 43.52l7.68 51.2c5.12 28.16-12.8 53.76-40.96 58.88l-125.44 20.48c-2.56 0-5.12 0-10.24 0v0c-25.6 0-46.080-17.92-51.2-40.96l-10.24-51.2c0-28.16 17.92-53.76 46.080-61.44z" />
<glyph unicode="&#xe948;" glyph-name="address-book" horiz-adv-x="960" d="M686.293 162.965c0 101.141-24.576 213.717-126.293 213.717-31.424-18.283-74.283-49.707-121.152-49.707s-89.707 31.424-121.152 49.707c-101.717 0-126.293-112.576-126.293-213.717 0-56.576 37.141-97.152 82.859-97.152h329.152c45.717 0 82.859 40.576 82.859 97.152zM587.435 502.4c0 82.283-66.859 148.565-148.565 148.565s-148.565-66.283-148.565-148.565c0-81.707 66.859-148.011 148.565-148.011s148.565 66.283 148.565 148.011zM950.848 193.835v-109.717c0-10.283-8-18.283-18.283-18.283h-54.848v-128c0-50.283-41.152-91.435-91.435-91.435h-694.848c-50.283 0-91.435 41.152-91.435 91.435v841.152c0 50.283 41.152 91.435 91.435 91.435h694.848c50.283 0 91.435-41.152 91.435-91.435v-128h54.848c10.283 0 18.283-8 18.283-18.283v-109.717c0-10.283-8-18.283-18.283-18.283h-54.848v-73.152h54.848c10.283 0 18.283-8 18.283-18.283v-109.717c0-10.283-8-18.283-18.283-18.283h-54.848v-73.152h54.848c10.283 0 18.283-8 18.283-18.283z" />
<glyph unicode="&#xe949;" glyph-name="address-card" horiz-adv-x="1173" d="M585.152 224.107c0 88.576-21.717 186.859-112 186.859-28.011-16-65.707-43.435-107.435-43.435s-79.424 27.435-107.435 43.435c-90.283 0-112-98.283-112-186.859 0-49.707 32.576-85.141 73.152-85.141h292.565c40.576 0 73.152 35.435 73.152 85.141zM495.424 521.259c0 71.424-58.283 129.707-129.707 129.707s-129.707-58.283-129.707-129.707c0-72 58.283-129.707 129.707-129.707s129.707 57.707 129.707 129.707zM1024 230.4v36.565c0 10.283-8 18.283-18.283 18.283h-329.152c-10.283 0-18.283-8-18.283-18.283v-36.565c0-10.283 8-18.283 18.283-18.283h329.152c10.283 0 18.283 8 18.283 18.283zM1024 378.965v32c0 11.435-9.152 20.565-20.565 20.565h-324.565c-11.435 0-20.565-9.152-20.565-20.565v-32c0-11.435 9.152-20.565 20.565-20.565h324.565c11.435 0 20.565 9.152 20.565 20.565zM1024 522.965v36.565c0 10.283-8 18.283-18.283 18.283h-329.152c-10.283 0-18.283-8-18.283-18.283v-36.565c0-10.283 8-18.283 18.283-18.283h329.152c10.283 0 18.283 8 18.283 18.283zM1170.283 705.835v-694.848c0-50.283-41.152-91.435-91.435-91.435h-201.152v54.848c0 10.283-8 18.283-18.283 18.283h-36.565c-10.283 0-18.283-8-18.283-18.283v-54.848h-438.848v54.848c0 10.283-8 18.283-18.283 18.283h-36.565c-10.283 0-18.283-8-18.283-18.283v-54.848h-201.152c-50.283 0-91.435 41.152-91.435 91.435v694.848c0 50.283 41.152 91.435 91.435 91.435h987.435c50.283 0 91.435-41.152 91.435-91.435z" />
<glyph unicode="&#xe94b;" glyph-name="apple" horiz-adv-x="789" d="M796.011 176.107c-14.293-45.141-37.141-93.141-70.293-142.848-49.152-74.859-98.283-112-146.859-112-19.435 0-45.717 6.293-80 18.283-33.707 12.565-62.848 18.283-86.293 18.283-22.848 0-50.283-6.293-81.152-18.859-31.424-13.141-56.576-19.435-75.435-19.435-58.859 0-115.435 49.707-172.011 148.011-55.424 98.283-84.011 193.707-84.011 287.424 0 87.424 21.717 158.293 64.576 213.717 42.859 54.848 96.576 82.283 162.283 82.283 28.011 0 61.141-5.717 101.141-17.152 39.424-11.435 65.707-17.152 78.848-17.152 16.576 0 44.011 6.293 81.707 19.435 37.717 12.565 70.848 19.435 98.859 19.435 45.717 0 86.293-12.565 121.707-37.141 20.011-13.717 40-33.152 59.435-57.152-29.717-25.152-51.435-47.424-65.152-67.435-24.576-35.435-37.141-74.859-37.141-118.293 0-46.848 13.141-89.707 39.424-127.424s56.576-61.717 90.283-72zM581.141 846.4c0-23.424-5.717-49.707-16.576-77.717-11.435-28.565-29.141-54.848-53.141-78.848-20.565-20.565-41.152-34.283-61.717-41.152-13.141-4.011-32.576-7.424-59.435-9.707 1.152 56.576 16 105.707 44.565 146.859s76.565 69.141 142.848 84.565c1.152-5.141 2.283-9.152 2.859-12.565 0-3.989 0.576-7.424 0.576-11.435z" />
<glyph unicode="&#xe94c;" glyph-name="archive" d="M621.717 394.965c0 20.011-16.576 36.565-36.565 36.565h-146.283c-20.011 0-36.565-16.576-36.565-36.565s16.576-36.565 36.565-36.565h146.283c20.011 0 36.565 16.576 36.565 36.565zM950.848 504.683v-548.565c0-20.011-16.576-36.565-36.565-36.565h-804.565c-20.011 0-36.565 16.576-36.565 36.565v548.565c0 20.011 16.576 36.565 36.565 36.565h804.565c20.011 0 36.565-16.576 36.565-36.565zM987.435 760.683v-146.283c0-20.011-16.576-36.565-36.565-36.565h-877.717c-20.011 0-36.565 16.576-36.565 36.565v146.283c0 20.011 16.576 36.565 36.565 36.565h877.717c20.011 0 36.565-16.576 36.565-36.565z" />
<glyph unicode="&#xe94e;" glyph-name="arrow-circle-down" horiz-adv-x="875" d="M733.717 357.824c0 9.707-3.435 18.859-10.283 25.707l-52.011 52.011c-6.848 6.848-16 10.283-25.707 10.283s-18.859-3.435-25.707-10.283l-108.011-107.989v286.848c0 20.011-16.576 36.565-36.565 36.565h-73.152c-20.011 0-36.565-16.576-36.565-36.565v-286.848l-108.011 108.011c-6.848 6.848-16 10.859-25.707 10.859s-18.859-4.011-25.707-10.859l-52.011-52.011c-6.848-6.848-10.283-16-10.283-25.707s3.435-18.859 10.283-25.707l258.859-258.859c6.848-6.848 16-10.283 25.707-10.283s18.859 3.435 25.707 10.283l258.859 258.859c6.848 6.848 10.283 16 10.283 25.707zM877.717 358.4c0-242.283-196.565-438.848-438.848-438.848s-438.848 196.565-438.848 438.848 196.565 438.848 438.848 438.848 438.848-196.565 438.848-438.848z" />
<glyph unicode="&#xe94f;" glyph-name="arrow-circle-left" horiz-adv-x="875" d="M731.435 321.835v73.152c0 20.011-16.576 36.565-36.565 36.565h-286.848l108.011 108.011c6.848 6.848 10.859 16 10.859 25.707s-4.011 18.859-10.859 25.707l-52.011 52.011c-6.848 6.848-16 10.283-25.707 10.283s-18.859-3.435-25.707-10.283l-258.859-258.859c-6.848-6.848-10.283-16-10.283-25.707s3.435-18.859 10.283-25.707l258.859-258.859c6.848-6.848 16-10.283 25.707-10.283s18.859 3.435 25.707 10.283l52.011 52.011c6.848 6.848 10.283 16 10.283 25.707s-3.435 18.859-10.283 25.707l-108.011 108.011h286.848c20.011 0 36.565 16.576 36.565 36.565zM877.717 358.4c0-242.283-196.565-438.848-438.848-438.848s-438.848 196.565-438.848 438.848 196.565 438.848 438.848 438.848 438.848-196.565 438.848-438.848z" />
<glyph unicode="&#xe950;" glyph-name="arrow-circle-right" horiz-adv-x="875" d="M734.293 358.4c0 9.707-3.435 18.859-10.283 25.707l-258.859 258.859c-6.848 6.848-16 10.283-25.707 10.283s-18.859-3.435-25.707-10.283l-52.011-52.011c-6.848-6.848-10.283-16-10.283-25.707s3.435-18.859 10.283-25.707l108.011-108.011h-286.848c-20.011 0-36.565-16.576-36.565-36.565v-73.152c0-20.011 16.576-36.565 36.565-36.565h286.848l-108.011-108.011c-6.848-6.848-10.859-16-10.859-25.707s4.011-18.859 10.859-25.707l52.011-52.011c6.848-6.848 16-10.283 25.707-10.283s18.859 3.435 25.707 10.283l258.859 258.859c6.848 6.848 10.283 16 10.283 25.707zM877.717 358.4c0-242.283-196.565-438.848-438.848-438.848s-438.848 196.565-438.848 438.848 196.565 438.848 438.848 438.848 438.848-196.565 438.848-438.848z" />
<glyph unicode="&#xe951;" glyph-name="arrow-circle-up" horiz-adv-x="875" d="M733.717 358.976c0 9.707-3.435 18.859-10.283 25.707l-258.859 258.859c-6.848 6.848-16 10.283-25.707 10.283s-18.859-3.435-25.707-10.283l-258.859-258.859c-6.848-6.848-10.283-16-10.283-25.707s3.435-18.859 10.283-25.707l52.011-52.011c6.848-6.848 16-10.283 25.707-10.283s18.859 3.435 25.707 10.283l108.011 108.011v-286.848c0-20.011 16.576-36.565 36.565-36.565h73.152c20.011 0 36.565 16.576 36.565 36.565v286.848l108.011-108.011c6.848-6.848 16-10.859 25.707-10.859s18.859 4.011 25.707 10.859l52.011 52.011c6.848 6.848 10.283 16 10.283 25.707zM877.717 358.4c0-242.283-196.565-438.848-438.848-438.848s-438.848 196.565-438.848 438.848 196.565 438.848 438.848 438.848 438.848-196.565 438.848-438.848z" />
<glyph unicode="&#xe952;" glyph-name="arrow-down" horiz-adv-x="960" d="M920.576 394.965c0-19.435-8-38.293-21.141-51.435l-372.011-372.565c-13.717-13.141-32.576-21.141-52.011-21.141s-38.293 8-51.435 21.141l-372.011 372.565c-13.717 13.141-21.717 32-21.717 51.435s8 38.293 21.717 52.011l42.283 42.859c13.717 13.141 32.576 21.141 52.011 21.141s38.293-8 51.435-21.141l168-168v402.283c0 40 33.152 73.152 73.152 73.152h73.152c40 0 73.152-33.152 73.152-73.152v-402.283l168 168c13.141 13.141 32 21.141 51.435 21.141s38.293-8 52.011-21.141l42.859-42.859c13.141-13.717 21.141-32.576 21.141-52.011z" />
<glyph unicode="&#xe953;" glyph-name="arrow-left" horiz-adv-x="917" d="M877.717 358.4v-73.152c0-38.848-25.707-73.152-66.859-73.152h-402.283l167.424-168c13.717-13.141 21.717-32 21.717-51.435s-8-38.293-21.717-51.435l-42.859-43.435c-13.141-13.141-32-21.141-51.435-21.141s-38.293 8-52.011 21.141l-372.011 372.565c-13.141 13.141-21.141 32-21.141 51.435s8 38.293 21.141 52.011l372.011 371.435c13.717 13.717 32.576 21.717 52.011 21.717s37.717-8 51.435-21.717l42.859-42.283c13.717-13.717 21.717-32.576 21.717-51.989s-8-38.293-21.717-52.011l-167.424-167.424h402.283c41.152 0 66.859-34.283 66.859-73.152z" />
<glyph unicode="&#xe954;" glyph-name="arrow-right" horiz-adv-x="832" d="M841.152 321.835c0-19.435-7.424-38.293-21.141-52.011l-372.011-372.011c-13.717-13.141-32.576-21.141-52.011-21.141s-37.717 8-51.435 21.141l-42.859 42.859c-13.717 13.717-21.717 32.576-21.717 52.011s8 38.293 21.717 52.011l167.424 167.424h-402.283c-41.152 0-66.859 34.283-66.859 73.152v73.152c0 38.848 25.707 73.152 66.859 73.152h402.283l-167.424 168c-13.717 13.141-21.717 32-21.717 51.435s8 38.293 21.717 51.435l42.859 42.859c13.717 13.717 32 21.717 51.435 21.717s38.293-8 52.011-21.717l372.011-371.989c13.717-13.141 21.141-32 21.141-51.435z" />
<glyph unicode="&#xe955;" glyph-name="arrows" d="M1024 358.4c0-9.707-4.011-18.859-10.859-25.707l-146.283-146.283c-6.848-6.848-16-10.859-25.707-10.859-20.011 0-36.565 16.576-36.565 36.565v73.152h-219.435v-219.435h73.152c20.011 0 36.565-16.576 36.565-36.565 0-9.707-4.011-18.859-10.859-25.707l-146.283-146.283c-6.848-6.848-16-10.859-25.707-10.859s-18.859 4.011-25.707 10.859l-146.283 146.283c-6.848 6.848-10.859 16-10.859 25.707 0 20.011 16.576 36.565 36.565 36.565h73.152v219.435h-219.435v-73.152c0-20.011-16.576-36.565-36.565-36.565-9.707 0-18.859 4.011-25.707 10.859l-146.283 146.283c-6.848 6.848-10.859 16-10.859 25.707s4.011 18.859 10.859 25.707l146.283 146.283c6.848 6.848 16 10.859 25.707 10.859 20.011 0 36.565-16.576 36.565-36.565v-73.152h219.435v219.435h-73.152c-20.011 0-36.565 16.576-36.565 36.565 0 9.707 4.011 18.859 10.859 25.707l146.283 146.283c6.848 6.848 16 10.859 25.707 10.859s18.859-4.011 25.707-10.859l146.283-146.283c6.848-6.848 10.859-16 10.859-25.707 0-20.011-16.576-36.565-36.565-36.565h-73.152v-219.435h219.435v73.152c0 20.011 16.576 36.565 36.565 36.565 9.707 0 18.859-4.011 25.707-10.859l146.283-146.283c6.848-6.848 10.859-16 10.859-25.707z" />
<glyph unicode="&#xe956;" glyph-name="arrows-alt" horiz-adv-x="875" d="M733.141 561.259l-202.859-202.859 202.859-202.859 82.283 82.283c10.283 10.859 26.283 13.717 40 8 13.141-5.717 22.293-18.859 22.293-33.707v-256c0-20.011-16.576-36.565-36.565-36.565h-256c-14.848 0-28.011 9.152-33.707 22.848-5.717 13.141-2.859 29.141 8 39.424l82.283 82.283-202.859 202.859-202.859-202.859 82.283-82.283c10.859-10.283 13.717-26.283 8-39.424-5.717-13.717-18.859-22.848-33.707-22.848h-256c-20.011 0-36.565 16.576-36.565 36.565v256c0 14.848 9.152 28.011 22.848 33.707 13.141 5.717 29.141 2.859 39.424-8l82.283-82.283 202.859 202.859-202.859 202.859-82.283-82.283c-6.848-6.848-16-10.859-25.707-10.859-4.565 0-9.707 1.152-13.717 2.859-13.717 5.717-22.848 18.859-22.848 33.707v256c0 20.011 16.576 36.565 36.565 36.565h256c14.848 0 28.011-9.152 33.707-22.848 5.717-13.141 2.859-29.141-8-39.424l-82.283-82.283 202.859-202.859 202.859 202.859-82.283 82.283c-10.859 10.283-13.717 26.283-8 39.424 5.717 13.717 18.859 22.848 33.707 22.848h256c20.011 0 36.565-16.576 36.565-36.565v-256c0-14.848-9.152-28.011-22.293-33.707-4.565-1.707-9.707-2.859-14.293-2.859-9.707 0-18.859 4.011-25.707 10.859z" />
<glyph unicode="&#xe957;" glyph-name="arrows-h" d="M1024 358.4c0-9.707-4.011-18.859-10.859-25.707l-146.283-146.283c-6.848-6.848-16-10.859-25.707-10.859-20.011 0-36.565 16.576-36.565 36.565v73.152h-585.152v-73.152c0-20.011-16.576-36.565-36.565-36.565-9.707 0-18.859 4.011-25.707 10.859l-146.283 146.283c-6.848 6.848-10.859 16-10.859 25.707s4.011 18.859 10.859 25.707l146.283 146.283c6.848 6.848 16 10.859 25.707 10.859 20.011 0 36.565-16.576 36.565-36.565v-73.152h585.152v73.152c0 20.011 16.576 36.565 36.565 36.565 9.707 0 18.859-4.011 25.707-10.859l146.283-146.283c6.848-6.848 10.859-16 10.859-25.707z" />
<glyph unicode="&#xe958;" glyph-name="arrows-v" horiz-adv-x="448" d="M402.283 687.552c0-20.011-16.576-36.565-36.565-36.565h-73.152v-585.152h73.152c20.011 0 36.565-16.576 36.565-36.565 0-9.707-4.011-18.859-10.859-25.707l-146.283-146.283c-6.848-6.848-16-10.859-25.707-10.859s-18.859 4.011-25.707 10.859l-146.283 146.283c-6.848 6.848-10.859 16-10.859 25.707 0 20.011 16.576 36.565 36.565 36.565h73.152v585.152h-73.152c-20.011 0-36.565 16.576-36.565 36.565 0 9.707 4.011 18.859 10.859 25.707l146.283 146.283c6.848 6.848 16 10.859 25.707 10.859s18.859-4.011 25.707-10.859l146.283-146.283c6.848-6.848 10.859-16 10.859-25.707z" />
<glyph unicode="&#xe959;" glyph-name="arrow-up" horiz-adv-x="960" d="M920.576 315.541c0-19.435-8-37.717-21.141-51.435l-42.859-42.859c-13.717-13.717-32.576-21.717-52.011-21.717s-38.293 8-51.435 21.717l-168 167.424v-402.283c0-41.152-34.283-66.859-73.152-66.859h-73.152c-38.848 0-73.152 25.707-73.152 66.859v402.283l-168-167.424c-13.141-13.717-32-21.717-51.435-21.717s-38.293 8-51.435 21.717l-42.859 42.859c-13.717 13.717-21.717 32-21.717 51.435s8 38.293 21.717 52.011l371.989 372.011c13.141 13.717 32 21.141 51.435 21.141s38.293-7.424 52.011-21.141l372.011-372.011c13.141-13.717 21.141-32.576 21.141-52.011z" />
<glyph unicode="&#xe95a;" glyph-name="assistive-listening-systems" d="M73.152-117.035c0-20.011-16.576-36.565-36.565-36.565s-36.565 16.576-36.565 36.565 16.576 36.565 36.565 36.565 36.565-16.576 36.565-36.565zM182.848-7.317c0-20.011-16.576-36.565-36.565-36.565s-36.565 16.576-36.565 36.565 16.576 36.565 36.565 36.565 36.565-16.576 36.565-36.565zM208.576 201.259l146.283-146.283-51.435-51.435-146.283 146.283zM402.283 212.117c0-20.011-16.576-36.565-36.565-36.565s-36.565 16.576-36.565 36.565 16.576 36.565 36.565 36.565 36.565-16.576 36.565-36.565zM806.293 394.965c0-94.848-44.565-145.707-83.435-190.848-36.011-41.152-64.576-73.707-64.576-138.283 0-121.152-98.283-219.435-219.435-219.435-20.011 0-36.565 16.576-36.565 36.565s16.576 36.565 36.565 36.565c80.576 0 146.283 65.707 146.283 146.283 0 92.011 44.011 142.293 82.283 186.283 35.435 40.576 65.707 75.435 65.707 142.848 0 141.141-114.859 256-256 256s-256-114.859-256-256c0-20.011-16.576-36.565-36.565-36.565s-36.565 16.576-36.565 36.565c0 181.717 147.435 329.152 329.152 329.152s329.152-147.435 329.152-329.152zM512 321.835c0-20.011-16.576-36.565-36.565-36.565s-36.565 16.576-36.565 36.565 16.576 36.565 36.565 36.565 36.565-16.576 36.565-36.565zM676.565 394.965c0-20.011-16.576-36.565-36.565-36.565s-36.565 16.576-36.565 36.565c0 70.848-57.152 128-128 128-70.293 0-128-57.152-128-128 0-20.011-16.576-36.565-36.565-36.565s-36.565 16.576-36.565 36.565c0 110.848 90.283 201.152 201.152 201.152s201.152-90.283 201.152-201.152zM901.717 560.107c7.424-18.859-2.283-40-21.141-47.424-4.011-1.707-8.576-2.283-13.141-2.283-14.293 0-28.565 8.576-33.707 23.424-25.707 66.859-70.293 125.141-128 168.576-16 12.011-19.435 34.859-7.424 50.859 12.565 16 35.435 19.435 51.435 7.424 68.565-51.435 121.152-121.152 152-200.576zM1021.717 606.4c6.848-18.859-2.283-40-21.141-47.424-4.565-1.707-8.576-2.283-13.141-2.283-14.848 0-28.565 8.576-34.283 23.424-34.283 89.152-93.141 166.848-169.707 224.576-16.576 12.011-19.435 34.859-7.424 50.859 12.011 16.576 34.859 19.435 50.859 7.424 88-65.707 155.435-154.859 194.859-256.576z" />
<glyph unicode="&#xe95b;" glyph-name="asterisk" horiz-adv-x="960" d="M846.848 270.4c34.859-20.011 46.848-65.152 26.859-100.011l-36.565-62.848c-20.011-34.859-65.152-46.848-100.011-26.859l-152 87.424v-175.424c0-40-33.152-73.152-73.152-73.152h-73.152c-40 0-73.152 33.152-73.152 73.152v175.424l-152-87.424c-34.859-20.011-80-8-100.011 26.859l-36.565 62.848c-20.011 34.859-8 80 26.859 100.011l152 88-152 88c-34.859 20.011-46.848 65.152-26.859 100.011l36.565 62.848c20.011 34.859 65.152 46.848 100.011 26.859l152-87.424v175.424c0 40 33.152 73.152 73.152 73.152h73.152c40 0 73.152-33.152 73.152-73.152v-175.424l152 87.424c34.859 20.011 80 8 100.011-26.859l36.565-62.848c20.011-34.859 8-80-26.859-100.011l-152-88z" />
<glyph unicode="&#xe95c;" glyph-name="at" horiz-adv-x="875" d="M555.435 427.541c0 82.283-42.859 131.435-114.859 131.435-94.848 0-196.565-94.293-196.565-246.848 0-85.141 42.283-133.717 116.565-133.717 114.859 0 194.859 131.435 194.859 249.152zM877.717 358.4c0-177.707-126.848-244.565-235.435-248-7.424 0-10.283-0.576-18.283-0.576-35.435 0-63.424 10.283-81.152 30.293-10.859 12.565-17.152 28.565-18.859 47.424-35.435-44.565-97.152-88-174.293-88-122.859 0-193.152 76.011-193.152 208.576 0 182.293 126.293 330.283 280.576 330.283 66.859 0 120.576-28.565 149.141-77.141l1.152 10.859 6.293 32c0.576 4.565 4.565 10.283 8.576 10.283h67.435c2.859 0 5.717-4.011 7.424-6.293 1.707-1.707 2.283-6.293 1.707-9.152l-68.565-350.848c-2.283-10.859-2.859-19.435-2.859-27.435 0-30.848 9.152-37.141 32.576-37.141 38.848 1.152 164.565 17.152 164.565 174.848 0 222.293-143.424 365.717-365.717 365.717-201.707 0-365.717-164.011-365.717-365.717s164.011-365.717 365.717-365.717c84.011 0 166.293 29.141 231.424 82.283 8 6.848 19.435 5.717 25.707-2.283l23.424-28.011c2.859-4.011 4.565-8.576 4.011-13.717-0.576-4.565-2.859-9.152-6.848-12.565-77.717-63.424-176.576-98.859-277.717-98.859-241.707 0-438.848 197.141-438.848 438.848s197.141 438.848 438.848 438.848c262.293 0 438.848-176.576 438.848-438.848z" />
<glyph unicode="&#xe95d;" glyph-name="audio-description" horiz-adv-x="1323" d="M288 302.4h97.707l-0.576 151.424zM874.283 358.976c0 63.424-36.565 110.293-112.576 110.293h-30.848v-221.717h29.717c71.424 0 113.707 52.011 113.707 111.424zM546.283 574.4l0.576-432c0-10.859-8.576-19.435-18.859-19.435h-123.435c-10.283 0-18.859 8.576-18.859 19.435v35.435h-166.293l-31.424-46.293c-3.435-5.141-9.707-8.576-16-8.576h-152.576c-16 0-25.152 17.707-15.424 30.293l317.717 432.576c3.435 5.141 9.152 8 15.424 8h189.717c10.859 0 19.435-8.576 19.435-19.435zM1018.859 358.976c0-150.293-109.717-236.011-257.152-236.011h-154.283c-10.859 0-19.435 8.576-19.435 19.435v432c0 10.859 8.576 19.435 19.435 19.435h153.152c148.565 0 258.283-84.565 258.283-234.859zM1108.011 358.4c0 0 2.283-148.565-84.565-236.011h-29.141c77.717 92.565 79.424 236.565 79.424 236.565s1.152 113.152-77.141 234.283h24.576c84.565-96.576 86.848-234.859 86.848-234.859zM1213.141 358.4c0 0 2.283-148.565-85.141-236.011h-29.141c77.717 92.565 79.424 236.565 79.424 236.565s1.152 113.152-76.565 234.283h24.576c84.565-96.576 86.848-234.859 86.848-234.859zM1316.565 358.4c0 0 2.283-148.565-84.565-236.011h-29.141c77.141 92.565 78.848 236.565 78.848 236.565s1.152 113.152-76.565 234.283h24.576c84.565-96.576 86.848-234.859 86.848-234.859z" />
<glyph unicode="&#xe95e;" glyph-name="automobile" horiz-adv-x="1173" d="M274.283 248.683c0 50.283-41.152 91.435-91.435 91.435s-91.435-41.152-91.435-91.435 41.152-91.435 91.435-91.435 91.435 41.152 91.435 91.435zM294.848 431.552h580.565l-50.859 204.011c-1.707 6.293-13.141 15.424-20.011 15.424h-438.848c-6.848 0-18.283-9.152-20.011-15.424zM1078.848 248.683c0 50.283-41.152 91.435-91.435 91.435s-91.435-41.152-91.435-91.435 41.152-91.435 91.435-91.435 91.435 41.152 91.435 91.435zM1170.283 303.552v-219.435c0-10.283-8-18.283-18.283-18.283h-54.848v-73.152c0-60.565-49.152-109.717-109.717-109.717s-109.717 49.152-109.717 109.717v73.152h-585.152v-73.152c0-60.565-49.152-109.717-109.717-109.717s-109.717 49.152-109.717 109.717v73.152h-54.848c-10.283 0-18.283 8-18.283 18.283v219.435c0 70.848 57.152 128 128 128h16l60.011 239.424c17.707 72 87.424 126.293 161.707 126.293h438.848c74.283 0 144-54.293 161.707-126.293l60.011-239.424h16c70.848 0 128-57.152 128-128z" />
<glyph unicode="&#xe95f;" glyph-name="backward" d="M925.141 789.824c14.293 14.293 25.707 9.152 25.707-10.859v-841.152c0-20.011-11.435-25.152-25.707-10.859l-405.717 405.717c-3.435 3.435-5.717 6.848-7.424 10.859v-405.717c0-20.011-11.435-25.152-25.707-10.859l-405.717 405.717c-14.293 14.293-14.293 37.141 0 51.435l405.717 405.717c14.293 14.293 25.707 9.152 25.707-10.859v-405.717c1.707 4.011 4.011 7.424 7.424 10.859z" />
<glyph unicode="&#xe960;" glyph-name="balance-scale" horiz-adv-x="1237" d="M987.435 614.4l-219.435-402.283h438.848zM256 614.4l-219.435-402.283h438.848zM725.141 724.117c-10.859-30.848-36.011-56-66.859-66.859v-737.707h347.435c10.283 0 18.283-8 18.283-18.283v-36.565c0-10.283-8-18.283-18.283-18.283h-768c-10.283 0-18.283 8-18.283 18.283v36.565c0 10.283 8 18.283 18.283 18.283h347.435v737.707c-30.848 10.859-56 36.011-66.859 66.859h-280.576c-10.283 0-18.283 8-18.283 18.283v36.565c0 10.283 8 18.283 18.283 18.283h280.576c15.424 42.859 55.424 73.152 103.424 73.152s88-30.293 103.424-73.152h280.576c10.283 0 18.283-8 18.283-18.283v-36.565c0-10.283-8-18.283-18.283-18.283h-280.576zM621.717 714.965c25.152 0 45.717 20.565 45.717 45.717s-20.565 45.717-45.717 45.717-45.717-20.565-45.717-45.717 20.565-45.717 45.717-45.717zM1243.435 212.117c0-117.717-162.859-164.565-256-164.565s-256 46.848-256 164.565v0c0 22.293 199.424 375.424 224 420.011 6.293 11.435 18.859 18.859 32 18.859s25.707-7.424 32-18.859c24.576-44.565 224-397.717 224-420.011v0zM512 212.117c0-117.717-162.859-164.565-256-164.565s-256 46.848-256 164.565v0c0 22.293 199.424 375.424 224 420.011 6.293 11.435 18.859 18.859 32 18.859s25.707-7.424 32-18.859c24.576-44.565 224-397.717 224-420.011z" />
<glyph unicode="&#xe961;" glyph-name="ban" horiz-adv-x="875" d="M749.717 360.107c0 62.293-18.283 120-49.707 168.576l-430.848-430.293c49.152-32 107.435-50.859 169.707-50.859 171.435 0 310.848 140.011 310.848 312.576zM178.859 189.248l431.424 430.848c-49.152 33.152-108.011 52.011-171.435 52.011-171.435 0-310.848-140.011-310.848-312 0-63.424 18.859-121.707 50.859-170.859zM877.717 360.107c0-243.435-196.565-440.576-438.848-440.576s-438.848 197.141-438.848 440.576c0 242.859 196.565 440 438.848 440s438.848-197.141 438.848-440z" />
<glyph unicode="&#xe962;" glyph-name="bandcamp" d="M611.435 197.248l174.848 322.283h-373.717l-174.848-322.283h373.717zM1024 358.4c0-282.859-229.141-512-512-512s-512 229.141-512 512 229.141 512 512 512 512-229.141 512-512z" />
<glyph unicode="&#xe963;" glyph-name="bank" horiz-adv-x="1088" d="M548.565 870.4l548.565-219.435v-73.152h-73.152c0-20.011-17.707-36.565-39.424-36.565h-872c-21.717 0-39.424 16.576-39.424 36.565h-73.152v73.152zM146.283 504.683h146.283v-438.848h73.152v438.848h146.283v-438.848h73.152v438.848h146.283v-438.848h73.152v438.848h146.283v-438.848h33.707c21.717 0 39.424-16.576 39.424-36.565v-36.565h-950.848v36.565c0 20.011 17.707 36.565 39.424 36.565h33.707v438.848zM1057.707-43.883c21.717 0 39.424-16.576 39.424-36.565v-73.152h-1097.152v73.152c0 20.011 17.707 36.565 39.424 36.565h1018.283z" />
<glyph unicode="&#xe964;" glyph-name="bar-chart" horiz-adv-x="1173" d="M365.717 358.4v-292.565h-146.283v292.565h146.283zM585.152 650.965v-585.152h-146.283v585.152h146.283zM1170.283-7.317v-73.152h-1170.283v877.717h73.152v-804.565h1097.152zM804.565 504.683v-438.848h-146.283v438.848h146.283zM1024 724.117v-658.283h-146.283v658.283h146.283z" />
<glyph unicode="&#xe965;" glyph-name="barcode" d="M36.011-7.317h-36.011v804.565h36.011v-804.565zM72-6.741h-18.283v804.011h18.283v-804.011zM125.717-6.741h-17.707v804.011h17.707v-804.011zM215.424-6.741h-17.707v804.011h17.707v-804.011zM305.152-6.741h-35.435v804.011h35.435v-804.011zM377.152-6.741h-17.707v804.011h17.707v-804.011zM413.141-6.741h-17.707v804.011h17.707v-804.011zM449.152-6.741h-17.707v804.011h17.707v-804.011zM538.859-6.741h-36.011v804.011h36.011v-804.011zM628.565-6.741h-36.011v804.011h36.011v-804.011zM700.565-6.741h-36.011v804.011h36.011v-804.011zM772.565-6.741h-36.011v804.011h36.011v-804.011zM826.283-6.741h-36.011v804.011h36.011v-804.011zM934.293-6.741h-53.717v804.011h53.717v-804.011zM970.283-6.741h-18.283v804.011h18.283v-804.011zM1024-7.317h-36.011v804.565h36.011v-804.565z" />
<glyph unicode="&#xe966;" glyph-name="bars" horiz-adv-x="875" d="M877.717 102.4v-73.152c0-20.011-16.576-36.565-36.565-36.565h-804.565c-20.011 0-36.565 16.576-36.565 36.565v73.152c0 20.011 16.576 36.565 36.565 36.565h804.565c20.011 0 36.565-16.576 36.565-36.565zM877.717 394.965v-73.152c0-20.011-16.576-36.565-36.565-36.565h-804.565c-20.011 0-36.565 16.576-36.565 36.565v73.152c0 20.011 16.576 36.565 36.565 36.565h804.565c20.011 0 36.565-16.576 36.565-36.565zM877.717 687.552v-73.152c0-20.011-16.576-36.565-36.565-36.565h-804.565c-20.011 0-36.565 16.576-36.565 36.565v73.152c0 20.011 16.576 36.565 36.565 36.565h804.565c20.011 0 36.565-16.576 36.565-36.565z" />
<glyph unicode="&#xe967;" glyph-name="bath" d="M950.848 248.683v-109.717c0-65.152-28.565-122.859-73.152-163.435v-110.848c0-10.283-8-18.283-18.283-18.283h-36.565c-10.283 0-18.283 8-18.283 18.283v67.435c-22.848-8-47.424-12.565-73.152-12.565h-438.848c-25.707 0-50.283 4.565-73.152 12.565v-62.848c0-12.565-8-22.848-18.283-22.848h-36.565c-10.283 0-18.283 10.283-18.283 22.848v106.283c-44.565 40.576-73.152 98.283-73.152 163.435v109.717h877.717zM402.283 486.4c0-10.283-8-18.283-18.283-18.283s-18.283 8-18.283 18.283 8 18.283 18.283 18.283 18.283-8 18.283-18.283zM438.848 522.965c0-10.283-8-18.283-18.283-18.283s-18.283 8-18.283 18.283 8 18.283 18.283 18.283 18.283-8 18.283-18.283zM402.283 559.552c0-10.283-8-18.283-18.283-18.283s-18.283 8-18.283 18.283 8 18.283 18.283 18.283 18.283-8 18.283-18.283zM475.435 559.552c0-10.283-8-18.283-18.283-18.283s-18.283 8-18.283 18.283 8 18.283 18.283 18.283 18.283-8 18.283-18.283zM438.848 596.117c0-10.283-8-18.283-18.283-18.283s-18.283 8-18.283 18.283 8 18.283 18.283 18.283 18.283-8 18.283-18.283zM402.283 632.683c0-10.283-8-18.283-18.283-18.283s-18.283 8-18.283 18.283 8 18.283 18.283 18.283 18.283-8 18.283-18.283zM1024 340.117v-36.565c0-10.283-8-18.283-18.283-18.283h-987.435c-10.283 0-18.283 8-18.283 18.283v36.565c0 10.283 8 18.283 18.283 18.283h54.848v365.717c0 80.576 65.707 146.283 146.283 146.283 41.152 0 78.293-17.152 105.152-44.565 35.435 14.293 77.717 9.152 109.141-15.424l12.565 12.565c3.435 3.435 9.152 3.435 12.565 0l24-24c3.435-3.435 3.435-9.152 0-12.565l-179.435-179.435c-3.435-3.435-9.152-3.435-12.565 0l-24 24c-3.435 3.435-3.435 9.152 0 12.565l12.565 12.565c-27.435 34.859-30.848 82.859-9.707 121.152-13.141 12.565-30.848 19.989-50.283 19.989-40.576 0-73.152-32.576-73.152-73.152v-365.717h859.435c10.283 0 18.283-8 18.283-18.283zM512 596.117c0-10.283-8-18.283-18.283-18.283s-18.283 8-18.283 18.283 8 18.283 18.283 18.283 18.283-8 18.283-18.283zM475.435 632.683c0-10.283-8-18.283-18.283-18.283s-18.283 8-18.283 18.283 8 18.283 18.283 18.283 18.283-8 18.283-18.283zM438.848 669.248c0-10.283-8-18.283-18.283-18.283s-18.283 8-18.283 18.283 8 18.283 18.283 18.283 18.283-8 18.283-18.283zM548.565 632.683c0-10.283-8-18.283-18.283-18.283s-18.283 8-18.283 18.283 8 18.283 18.283 18.283 18.283-8 18.283-18.283zM512 669.248c0-10.283-8-18.283-18.283-18.283s-18.283 8-18.283 18.283 8 18.283 18.283 18.283 18.283-8 18.283-18.283zM475.435 705.835c0-10.283-8-18.283-18.283-18.283s-18.283 8-18.283 18.283 8 18.283 18.283 18.283 18.283-8 18.283-18.283zM585.152 669.248c0-10.283-8-18.283-18.283-18.283s-18.283 8-18.283 18.283 8 18.283 18.283 18.283 18.283-8 18.283-18.283zM548.565 705.835c0-10.283-8-18.283-18.283-18.283s-18.283 8-18.283 18.283 8 18.283 18.283 18.283 18.283-8 18.283-18.283zM621.717 705.835c0-10.283-8-18.283-18.283-18.283s-18.283 8-18.283 18.283 8 18.283 18.283 18.283 18.283-8 18.283-18.283z" />
<glyph unicode="&#xe968;" glyph-name="store-locator" d="M512 870.4c-215.040 0-391.68-176.64-391.68-391.68 0-209.92 358.4-583.68 373.76-599.040l17.92-17.92 17.92 17.92c15.36 15.36 373.76 389.12 373.76 599.040 0 215.040-176.64 391.68-391.68 391.68zM512 371.2c-81.92 0-148.48 66.56-148.48 148.48s66.56 151.040 148.48 151.040c81.92 0 148.48-66.56 148.48-151.040 0-81.92-66.56-148.48-148.48-148.48z" />
<glyph unicode="&#xe969;" glyph-name="battery-0" horiz-adv-x="1323" d="M1243.435 541.248c40.576 0 73.152-32.576 73.152-73.152v-219.435c0-40.576-32.576-73.152-73.152-73.152v-91.435c0-50.283-41.152-91.435-91.435-91.435h-1060.565c-50.283 0-91.435 41.152-91.435 91.435v548.565c0 50.283 41.152 91.435 91.435 91.435h1060.565c50.283 0 91.435-41.152 91.435-91.435v-91.435zM1243.435 248.683v219.435h-73.152v164.565c0 10.283-8 18.283-18.283 18.283h-1060.565c-10.283 0-18.283-8-18.283-18.283v-548.565c0-10.283 8-18.283 18.283-18.283h1060.565c10.283 0 18.283 8 18.283 18.283v164.565h73.152z" />
<glyph unicode="&#xe96a;" glyph-name="battery-1" horiz-adv-x="1323" d="M146.283 138.965v438.848h292.565v-438.848h-292.565zM1243.435 541.248c40.576 0 73.152-32.576 73.152-73.152v-219.435c0-40.576-32.576-73.152-73.152-73.152v-91.435c0-50.283-41.152-91.435-91.435-91.435h-1060.565c-50.283 0-91.435 41.152-91.435 91.435v548.565c0 50.283 41.152 91.435 91.435 91.435h1060.565c50.283 0 91.435-41.152 91.435-91.435v-91.435zM1243.435 248.683v219.435h-73.152v164.565c0 10.283-8 18.283-18.283 18.283h-1060.565c-10.283 0-18.283-8-18.283-18.283v-548.565c0-10.283 8-18.283 18.283-18.283h1060.565c10.283 0 18.283 8 18.283 18.283v164.565h73.152z" />
<glyph unicode="&#xe96b;" glyph-name="battery-2" horiz-adv-x="1323" d="M146.283 138.965v438.848h512v-438.848h-512zM1243.435 541.248c40.576 0 73.152-32.576 73.152-73.152v-219.435c0-40.576-32.576-73.152-73.152-73.152v-91.435c0-50.283-41.152-91.435-91.435-91.435h-1060.565c-50.283 0-91.435 41.152-91.435 91.435v548.565c0 50.283 41.152 91.435 91.435 91.435h1060.565c50.283 0 91.435-41.152 91.435-91.435v-91.435zM1243.435 248.683v219.435h-73.152v164.565c0 10.283-8 18.283-18.283 18.283h-1060.565c-10.283 0-18.283-8-18.283-18.283v-548.565c0-10.283 8-18.283 18.283-18.283h1060.565c10.283 0 18.283 8 18.283 18.283v164.565h73.152z" />
<glyph unicode="&#xe96c;" glyph-name="battery-3" horiz-adv-x="1323" d="M146.283 138.965v438.848h731.435v-438.848h-731.435zM1243.435 541.248c40.576 0 73.152-32.576 73.152-73.152v-219.435c0-40.576-32.576-73.152-73.152-73.152v-91.435c0-50.283-41.152-91.435-91.435-91.435h-1060.565c-50.283 0-91.435 41.152-91.435 91.435v548.565c0 50.283 41.152 91.435 91.435 91.435h1060.565c50.283 0 91.435-41.152 91.435-91.435v-91.435zM1243.435 248.683v219.435h-73.152v164.565c0 10.283-8 18.283-18.283 18.283h-1060.565c-10.283 0-18.283-8-18.283-18.283v-548.565c0-10.283 8-18.283 18.283-18.283h1060.565c10.283 0 18.283 8 18.283 18.283v164.565h73.152z" />
<glyph unicode="&#xe96d;" glyph-name="bed" horiz-adv-x="1173" d="M146.283 285.248h987.435c20.011 0 36.565-16.576 36.565-36.565v-256h-146.283v146.283h-877.717v-146.283h-146.283v694.848c0 20.011 16.576 36.565 36.565 36.565h73.152c20.011 0 36.565-16.576 36.565-36.565v-402.283zM475.435 468.117c0 80.576-65.707 146.283-146.283 146.283s-146.283-65.707-146.283-146.283 65.707-146.283 146.283-146.283 146.283 65.707 146.283 146.283zM1170.283 321.835v36.565c0 121.152-98.283 219.435-219.435 219.435h-402.283c-20.011 0-36.565-16.576-36.565-36.565v-219.435h658.283z" />
<glyph unicode="&#xe96e;" glyph-name="beer" horiz-adv-x="981" d="M365.717 358.4v219.435h-146.283v-146.283c0-40.576 32.576-73.152 73.152-73.152h73.152zM950.848 102.4v-109.717h-658.283v109.717l73.152 109.717h-73.152c-121.152 0-219.435 98.283-219.435 219.435v182.848l-36.565 36.565 18.283 73.152h274.283l18.283 73.152h548.565l18.283-109.717-36.565-18.283v-457.152z" />
</font>
</defs>
</svg>
