<?xml version="1.0" standalone="no"?>
<!DOCTYPE svg PUBLIC "-//W3C//DTD SVG 1.1//EN" "http://www.w3.org/Graphics/SVG/1.1/DTD/svg11.dtd" >
<svg xmlns="http://www.w3.org/2000/svg">
<metadata>Generated by IcoMoon</metadata>
<defs>
<font id="Bosch-TT-2017-01-26" horiz-adv-x="1024">
<font-face units-per-em="1024" ascent="960" descent="-64" />
<missing-glyph horiz-adv-x="1024" />
<glyph unicode="&#x20;" horiz-adv-x="512" d="" />
<glyph unicode="&#xe900;" glyph-name="check" d="M983.29 888.236c-44.172 28.766-106.27 19.902-138.477-19.374l-501.206-611.712-166.716 188.074c-33.991 38.227-96.287 44.707-139.206 14.552-42.984-30.161-50.259-85.711-16.334-123.802l328.67-370.729 654.959 799.724c32.207 39.411 22.551 94.567-21.69 123.267z" />
<glyph unicode="&#xe901;" glyph-name="comfort" d="M242.183 759.624v100.281c0 47.849-38.932 86.782-86.782 86.782s-86.782-38.932-86.782-86.782v-94.273c-41.26-27.032-68.619-73.604-68.619-126.504s27.359-99.472 68.62-126.503v-502.131c0-47.849 38.932-86.782 86.782-86.782s86.782 38.932 86.782 86.782v508.14c36.506 27.632 60.238 71.291 60.238 120.495s-23.732 92.862-60.239 120.494zM110.696 784.813v75.092c0 24.654 20.052 44.706 44.706 44.706s44.706-20.052 44.706-44.706v-77.742c-0.268 0.092-0.556 0.118-0.825 0.209-7.002 2.356-14.223 4.187-21.639 5.502-1.286 0.229-2.575 0.396-3.869 0.593-7.382 1.112-14.877 1.872-22.564 1.872-6.334 0-12.54-0.516-18.672-1.276-1.572-0.197-3.119-0.472-4.683-0.718-4.846-0.757-9.605-1.735-14.289-2.942-0.947-0.242-1.93-0.33-2.871-0.59zM200.108 496.095v-485.6c0-24.654-20.052-44.706-44.706-44.706s-44.706 20.052-44.706 44.706v482.95c0.795-0.219 1.627-0.269 2.426-0.476 6.042-1.577 12.207-2.815 18.516-3.635 0.632-0.082 1.252-0.214 1.884-0.289 5.813-0.682 11.696-1.126 17.69-1.126 1.179 0 2.319 0.151 3.492 0.177 0.904 0.020 1.796 0.1 2.699 0.136 6.532 0.266 12.953 0.927 19.247 1.999 0.764 0.13 1.529 0.208 2.292 0.35 6.947 1.295 13.71 3.073 20.291 5.285 0.285 0.097 0.59 0.13 0.876 0.229zM212.445 548.871l-0.762-0.486c-4.985-3.332-10.338-6.127-15.853-8.615-2.433-1.080-4.949-1.93-7.45-2.825-3.009-1.099-6.088-2.032-9.213-2.866-3.128-0.815-6.25-1.67-9.434-2.211-4.891-0.844-9.888-1.349-14.976-1.516-3.219-0.11-6.435 0.092-9.648 0.259-3.45 0.196-6.858 0.522-10.216 1.032-2.573 0.374-5.161 0.656-7.7 1.209-5.746 1.299-11.327 3.024-16.693 5.193-1.485 0.591-2.912 1.315-4.368 1.972-37.679 17.218-64.055 55.049-64.055 99.11s26.376 81.892 64.055 99.11c1.456 0.658 2.884 1.383 4.368 1.972 5.373 2.173 10.963 3.899 16.719 5.201 2.504 0.546 5.055 0.823 7.593 1.193 3.411 0.52 6.873 0.854 10.379 1.051 3.169 0.162 6.334 0.362 9.507 0.256 5.132-0.166 10.173-0.674 15.104-1.527 3.12-0.531 6.18-1.371 9.249-2.169 3.207-0.851 6.362-1.809 9.448-2.939 2.447-0.88 4.91-1.709 7.292-2.766 5.531-2.491 10.895-5.295 15.892-8.636l0.762-0.486c28.879-19.657 47.901-52.769 47.901-90.257s-19.023-70.602-47.901-90.258zM601.185 381.525v478.38c0 47.849-38.932 86.782-86.782 86.782s-86.781-38.934-86.781-86.782v-479.243c-38.562-27.431-63.843-72.376-63.843-123.195s25.282-95.763 63.843-123.195v-123.775c0-47.849 38.932-86.782 86.782-86.782s86.782 38.932 86.782 86.782v122.911c39.229 27.347 65.005 72.723 65.005 124.060-0.001 51.335-25.776 96.713-65.006 124.059zM469.698 859.905c0 24.654 20.052 44.706 44.706 44.706s44.706-20.052 44.706-44.706v-457.838c-6.614 2.023-13.466 3.459-20.428 4.562-1.057 0.167-2.102 0.339-3.163 0.484-6.735 0.921-13.556 1.563-20.539 1.563-7.351 0-14.524-0.707-21.598-1.725-1.035-0.148-2.057-0.302-3.089-0.472-7.022-1.161-13.93-2.651-20.594-4.747v458.173zM559.109 10.495c0-24.654-20.052-44.706-44.706-44.706s-44.706 20.052-44.706 44.706v102.706c6.663-2.096 13.572-3.586 20.594-4.747 1.032-0.171 2.054-0.324 3.089-0.472 7.074-1.020 14.247-1.725 21.598-1.725 6.984 0 13.805 0.642 20.539 1.563 1.061 0.145 2.105 0.317 3.163 0.484 6.962 1.103 13.814 2.538 20.428 4.562v-102.37zM561.361 159.063c-2.442-1.143-4.878-2.263-7.392-3.215-4.221-1.626-8.572-2.954-13.024-4.051-3.083-0.741-6.198-1.311-9.332-1.784-2.932-0.454-5.925-0.688-8.928-0.903-5.229-0.36-10.455-0.349-15.685 0.027-3.044 0.226-6.084 0.445-9.055 0.916-3.175 0.492-6.325 1.137-9.449 1.905-3.706 0.932-7.318 2.077-10.864 3.379-2.893 1.043-5.743 2.169-8.546 3.463-37.218 17.399-63.221 54.936-63.221 98.664 0 43.829 26.113 81.454 63.469 98.8 2.564 1.179 5.168 2.208 7.808 3.175 3.761 1.401 7.608 2.61 11.552 3.594 2.983 0.729 5.987 1.343 9.016 1.82 3.288 0.529 6.653 0.787 10.032 1.015 4.82 0.313 9.631 0.316 14.451 0.003 3.235-0.217 6.45-0.477 9.602-0.971 3.033-0.464 6.053-1.015 9.040-1.731 4.601-1.128 9.104-2.493 13.457-4.186 2.383-0.911 4.688-1.997 7.006-3.082 36.99-17.489 62.816-54.878 62.816-98.436 0-43.531-25.798-80.899-62.753-98.402zM1024 648.662c0 50.803-25.269 95.736-63.813 123.168v88.075c0 47.849-38.932 86.782-86.782 86.782s-86.782-38.932-86.782-86.782v-87.153c-39.254-27.343-65.046-72.737-65.046-124.090s25.791-96.748 65.046-124.090v-514.077c0-47.849 38.932-86.782 86.782-86.782s86.782 38.932 86.782 86.782v514.998c38.543 27.433 63.813 72.366 63.813 123.169zM828.7 859.905c0 24.654 20.052 44.706 44.706 44.706s44.706-20.052 44.706-44.706v-66.993c-6.603 2.079-13.447 3.566-20.402 4.727-1.361 0.229-2.717 0.433-4.085 0.626-6.83 0.947-13.748 1.609-20.835 1.609-6.886 0-13.613-0.624-20.259-1.521-1.417-0.194-2.818-0.414-4.23-0.647-6.675-1.096-13.247-2.491-19.601-4.431v66.631zM763.655 648.662c0 43.664 25.943 81.145 63.078 98.578 2.075 0.963 4.122 1.961 6.248 2.784 4.491 1.77 9.158 3.16 13.914 4.328 3.058 0.732 6.148 1.293 9.254 1.76 2.916 0.452 5.894 0.683 8.88 0.899 5.32 0.368 10.636 0.349 15.956-0.045 2.949-0.223 5.899-0.433 8.781-0.887 3.222-0.499 6.415-1.152 9.585-1.933 3.614-0.911 7.134-2.033 10.596-3.296 3.013-1.080 5.975-2.252 8.888-3.603 37.143-17.432 63.090-54.915 63.090-98.585 0-43.507-25.77-80.849-62.689-98.366-3.109-1.46-6.269-2.734-9.488-3.883-3.412-1.238-6.876-2.348-10.436-3.246-3.119-0.77-6.264-1.415-9.433-1.911-3.085-0.49-6.243-0.725-9.41-0.951-5.012-0.349-10.021-0.362-15.035-0.034-3.173 0.217-6.329 0.47-9.423 0.952-3.040 0.464-6.067 1.012-9.061 1.73-4.66 1.143-9.222 2.519-13.627 4.24-2.34 0.9-4.6 1.978-6.876 3.045-36.976 17.495-62.792 54.875-62.792 98.423zM918.111 10.495c0-24.654-20.052-44.706-44.706-44.706s-44.706 20.052-44.706 44.706v493.555c6.639-2.028 13.514-3.467 20.502-4.569 1.017-0.161 2.021-0.328 3.040-0.466 6.738-0.922 13.561-1.564 20.548-1.564 7.328 0 14.477 0.701 21.53 1.714 1.108 0.159 2.204 0.324 3.308 0.507 6.984 1.162 13.855 2.653 20.485 4.739v-493.916z" />
<glyph unicode="&#xe902;" glyph-name="contact" d="M207.36 727.296h709.12l-355.84-253.44-353.28 253.44zM102.4 778.496v-128h51.2v53.76l409.6-291.84 409.6 291.84v-488.96c0-43.52-33.28-76.8-76.8-76.8h-665.6c-43.52 0-76.8 33.28-76.8 76.8h-51.2c0-71.68 56.32-128 128-128h665.6c71.68 0 128 56.32 128 128v563.2h-921.6zM204.8 266.496h-204.8v51.2h204.8zM204.8 522.496h-204.8v51.2h204.8zM204.8 394.496h-153.6v51.2h153.6z" />
<glyph unicode="&#xe903;" glyph-name="energy-cost" d="M457.915 492.402h335.816c27.771 0 50.354 22.594 50.354 50.364v131.309c1.743 9.238 0.991 18.917-2.543 27.964-26.185 66.946-120.221 222.659-427.15 222.659-171.836 0-293.502-38.595-361.628-114.718-47.364-52.916-54.932-111.43-52.308-134.98l0.274-3.499c0.132-1.782 0.317-3.679 0.499-5.567v-260.082c0-8.566 2.167-16.978 6.257-24.313 17.365-31.199 118.064-187.381 396.063-198.407 0.671-0.020 1.342-0.041 2.014-0.041 13.082 0 25.859 5.107 35.298 14.161 9.949 9.562 15.442 22.41 15.462 36.164 0.264 157.565 1.505 240.187 1.505 240.187l0.086 18.799zM793.731 534.068h-335.624l0.415 90.302c0.020 4.771 3.926 8.657 8.708 8.657h327.499c2.604 0 5.161 0.268 7.69 0.658v-90.921c0-4.79-3.906-8.697-8.688-8.697zM83.811 782.2c41.179 46.001 131.95 100.831 330.581 100.831 271.143 0 359.685-122.906 388.332-196.159 1.139-2.912 0.649-5.316-0.082-6.968h-0.223v-0.44c-0.198-0.385-0.401-0.77-0.59-1.046-0.956-1.394-3.133-3.723-7.1-3.723h-327.499c-27.629 0-50.232-22.482-50.375-50.131l-0.915-199.384c-0.019-3.276-1.79-5.371-2.848-6.338-1.099-1.007-3.581-2.513-6.877-2.33-223.779 19.696-353.023 111.351-363.928 258.072l-0.427 5.015c-0.051 0.499-3.469 51.85 41.951 102.602zM412.013 227.322c-1.058-1.017-3.255-2.696-6.795-2.563-255.761 10.162-345.861 149.262-361.333 177.055-0.662 1.19-0.987 2.513-0.987 4.039v139.798c48.068-75.129 148.983-152.1 359.654-170.64 1.485-0.132 2.95-0.194 4.414-0.194 2.891 0 5.754 0.311 8.58 0.798-0.427-37.194-0.794-84.575-0.89-142.147 0.001-2.981-1.444-4.986-2.644-6.145zM1021.884 311.246l-1.284-0.055c3.705 12.739 2.18 26.449-4.657 38.468-9.115 16.001-25.553 25.554-43.946 25.554h-352.625c-13.713 0-26.551-5.381-36.093-15.167-9.522-9.735-14.567-22.594-14.262-36.215 0.651-27.843 1.465-80.537 1.608-173.413 0.006-4.118 0.554-8.135 1.505-12.026l0.937-141.012c0.183-26.123 19.897-47.546 45.899-49.846 10.905-0.956 25.717-1.831 43.315-1.831 97.902 0 281.986 26.978 357.427 217.431 2.157 5.453 3.377 11.068 3.6 16.683 2.116 48.187-1.282 128.053-1.424 131.43zM613.085 330.93c0.956 0.977 3.032 2.614 6.287 2.614h352.625c4.659 0 6.958-3.154 7.731-4.507 0.896-1.577 2.076-4.74-0.020-8.28-37.435-63.121-133.689-170.362-357.834-179.334-3.54 0.061-5.737 1.567-6.795 2.604-0.389 0.374-0.869 0.965-1.329 1.665l-0.99 2.072c-0.266 0.807-0.468 1.684-0.468 2.713-0.142 93.253-0.956 146.272-1.608 174.329-0.081 2.961 1.262 4.964 2.401 6.125zM981.681 181.585c-0.040-0.997-0.285-2.034-0.712-3.133-76.275-192.527-276.046-196.535-358.363-189.414-4.455 0.386-7.853 4.109-7.874 8.626l-0.683 102.819c2.482-0.373 4.973-0.726 7.499-0.726 0.671 0 1.322 0.020 1.994 0.041 194.891 7.806 301.954 85.743 358.419 152.665 0.456-23.816 0.607-50.601-0.281-70.877z" />
<glyph unicode="&#xe904;" glyph-name="environment" d="M709.266 518.801c-5.588-1.296-15.394-2.225-27.814-3.416-31.23-2.974-83.505-7.961-154.738-27.392-83.336-22.722-195.414-122.579-274.786-202.352l-2.931-2.952c-8.435-8.435-8.435-22.099 0-30.534 4.218-4.218 9.742-6.326 15.267-6.326s11.050 2.108 15.267 6.326l3.016 3.026c106.933 107.491 197.692 175.37 255.514 191.144 67.669 18.462 115.705 23.038 147.504 26.074 14.53 1.381 25.051 2.383 33.402 4.312 11.619 2.689 18.873 14.287 16.195 25.905-2.699 11.619-14.297 18.778-25.895 16.184zM1017.118 672.675c-5.883 43.028-30.429 168.792-65.075 181.792-27.961 10.407-62.207-15.678-115.832-59.276-22.015-17.903-44.789-36.418-60.056-44.357-7.992-4.017-43.081-2.331-74.079-0.833-107.249 5.208-286.679 13.843-456.557-93.638-209.237-132.417-166.684-349.582-148.664-412.991 0.77-2.71 0.221-5.472-1.55-7.792l-84.485-109.958c-8.677-11.303-12.315-25.262-10.258-39.348 2.056-14.065 9.531-26.422 21.045-34.751l38.716-28.003c9.141-6.601 19.885-9.869 30.577-9.869 12.768 0 25.463 4.639 35.331 13.749 21.224 19.548 53.825 49.196 88.544 79.372 2.657 2.299 6.558 2.783 9.89 1.266 186.136-84.707 364.828-101.282 631.727 93.353 178.081 129.842 177.132 351.004 160.726 471.285zM977.601 513.203c-12.653-122.021-61.996-215.183-146.64-276.916-250.81-182.91-411.135-169.646-588.415-88.946-18.725 8.498-40.698 5.357-56.081-7.971-35.12-30.513-68.059-60.457-89.515-80.237-3.11-2.847-7.897-3.121-11.323-0.611l-38.705 28.003c-2.678 1.94-3.426 4.576-3.627 5.988-0.211 1.413-0.253 4.154 1.772 6.79l84.495 109.981c10.143 13.232 13.369 29.954 8.835 45.896-15.953 56.123-53.709 248.29 130.234 364.68 120.007 75.956 247.267 89.589 346.314 89.589 31.61 0 60.33-1.392 85.044-2.584 48.627-2.331 77.959-3.754 96.094 5.651 19.168 9.974 42.575 29.006 67.373 49.164 21.424 17.407 55.923 45.453 71.485 50.926 16.238-28.33 57.315-157.889 42.66-299.404z" />
<glyph unicode="&#xe905;" glyph-name="facebook" d="M374.833-76.8h211.863v510.642h143.958l19.014 181.984h-162.973v105.931c0 40.743 27.162 48.891 46.175 48.891h114.080v176.552h-157.538c-173.835 0-214.578-130.377-214.578-214.578v-116.795h-100.498v-181.984h100.498v-510.642z" />
<glyph unicode="&#xe906;" glyph-name="instagram" d="M903.067 947.2h-782.133c-66.507 0-120.933-54.427-120.933-120.933v-782.133c0-66.507 54.427-120.933 120.933-120.933h782.133c66.507 0 120.933 54.427 120.933 120.933v782.133c0 66.507-54.427 120.933-120.933 120.933zM709.333 792.080c0 20.773 17.014 37.787 37.787 37.787h120.426c20.773 0 37.787-17.014 37.787-37.787v-120.426c0-20.773-17.014-37.787-37.787-37.787h-120.426c-20.773 0-37.787 17.014-37.787 37.787v120.426zM512 631.866c108.614 0 196.666-88.054 196.666-196.666s-88.053-196.666-196.666-196.666-196.666 88.053-196.666 196.666 88.053 196.666 196.666 196.666zM906.667 78.32c0-20.773-17.014-37.787-37.787-37.787h-713.761c-20.773 0-37.787 17.014-37.787 37.787v435.094h89.813c-6.4-25.013-9.813-51.227-9.813-78.213 0-173.787 140.88-314.667 314.667-314.667s314.667 140.88 314.667 314.667c0 26.986-3.413 53.2-9.813 78.213h89.813v-435.094z" />
<glyph unicode="&#xe907;" glyph-name="leaflet" d="M217.6 563.2h332.8v-51.2h-332.8v51.2zM217.6 691.2h332.8v-51.2h-332.8v51.2zM217.6 435.2h332.8v-51.2h-332.8v51.2zM217.6 307.2h230.4v-51.2h-230.4v51.2zM806.4 445.44v501.76h-768v-1024h770.559v107.52c99.841 15.36 176.641 102.4 176.641 207.36s-76.8 192-179.2 207.36zM757.759-28.16h-668.159v924.16h665.6v-448c-107.52-10.24-189.441-99.84-189.441-209.92s84.48-199.68 192-209.92v-56.32zM775.681 79.36c-87.041 0-158.72 71.68-158.72 158.72s71.68 158.72 158.72 158.72 158.72-71.68 158.72-158.72c-0.001-87.040-71.681-158.72-158.72-158.72zM750.081 222.72l-30.72 23.040-30.72-40.96 69.12-53.76 99.839 125.44-40.959 33.28z" />
<glyph unicode="&#xe908;" glyph-name="link-arrow-bottom" d="M1024 612.693l-512-392.533-512 392.533 27.307 37.547 484.693-368.64 484.693 368.64 27.307-37.547z" />
<glyph unicode="&#xe909;" glyph-name="link-arrow-left" d="M689.493-76.8l-392.533 512 392.533 512 37.547-27.307-368.64-484.693 368.64-484.693-37.547-27.307z" />
<glyph unicode="&#xe90a;" glyph-name="link-arrow-right" d="M334.507 947.2l392.533-512-392.533-512-37.547 27.307 368.64 484.693-368.64 484.693 37.547 27.307z" />
<glyph unicode="&#xe90b;" glyph-name="link-arrow-top" d="M0 257.707l512 392.533 512-392.533-27.307-37.547-484.693 368.64-484.693-368.64-27.307 37.547z" />
<glyph unicode="&#xe90c;" glyph-name="scroll-up" d="M1011.863 209.542l-499.863 499.864-512-512 36.411-36.411 475.589 475.589 475.589-475.589 36.411 36.411z" />
<glyph unicode="&#xe90d;" glyph-name="cancel" d="M693.96 653.555l-181.96-181.963-181.96 182.010-36.392-36.392 181.96-182.007-181.96-182.013 36.392-36.392 181.96 182.010 181.96-182.010 36.392 36.392-181.96 182.013 181.96 181.957zM512 947.2c-282.339 0-512-229.686-512-512s229.661-512 512-512 512 229.686 512 512-229.661 512-512 512zM512-25.329c-253.939 0-460.529 206.59-460.529 460.529s206.59 460.529 460.529 460.529 460.529-206.59 460.529-460.529-206.59-460.529-460.529-460.529z" />
<glyph unicode="&#xe90e;" glyph-name="profile" d="M512 947.199c-281.6 0-512-230.4-512-512s230.4-512 512-512c281.6 0 512 230.4 512 512s-230.4 512-512 512zM271.835 42.443c7.988 149.095 121.993 216.107 235.040 216.107 138.316 0 228.749-87.38 232.782-223.432-67.273-38.538-144.977-60.718-227.657-60.718-87.836 0-170.112 24.943-240.165 68.043zM504.325 327.675c-77.625 0-140.8 63.175-140.8 140.8s63.175 140.8 140.8 140.8 140.8-63.175 140.8-140.8-63.176-140.8-140.8-140.8zM788.583 67.302c-13.814 117.471-86.389 202.287-194.746 231.387 60.89 32.23 102.487 96.223 102.487 169.785 0 105.874-86.126 192-192 192s-192-86.126-192-192c0-74.401 42.559-139 104.586-170.862-103.9-29.568-176.019-111.154-192.902-221.335-105.158 84.642-172.808 214.232-172.808 358.921 0 253.44 207.36 460.8 460.8 460.8s460.8-207.36 460.8-460.8c0-149.875-72.539-283.605-184.217-367.898z" />
<glyph unicode="&#xe90f;" glyph-name="search" d="M995.474 86.967l-369.050 369.050c65.456 124.29 44.062 283.983-61.636 389.681-66.221 66.219-152.816 99.329-239.411 99.329-84.048 0-165.55-30.563-229.223-94.237-129.891-127.347-127.346-338.741 2.549-468.634 66.219-66.221 152.816-99.331 239.41-99.331 53.232 0 105.443 12.227 152.816 37.695l369.050-369.051c18.338-18.337 42.534-28.271 67.748-28.271s49.41 9.934 67.748 28.271c18.339 18.339 28.526 42.535 28.526 67.749s-10.187 49.41-28.526 67.748zM335.567 336.312c-76.408 0-147.721 30.562-201.208 84.048-53.485 50.939-84.048 122.252-84.048 198.66 0 73.861 28.016 145.175 81.502 196.113 50.939 50.939 119.706 78.954 193.566 78.954 76.408 0 147.721-30.563 201.208-84.048 53.485-53.485 84.048-124.8 84.048-198.66s-28.016-145.175-81.502-196.113c-50.938-50.939-119.706-78.954-193.566-78.954zM959.309-12.362c-17.319-17.574-45.844-17.574-63.163 0l-361.154 361.154c11.205 8.405 22.158 18.082 32.345 28.271 11.207 10.952 21.649 22.668 30.818 34.893l361.154-361.154c8.914-8.66 13.752-19.867 13.752-31.581 0-11.718-4.838-22.924-13.752-31.582z" />
<glyph unicode="&#xe910;" glyph-name="system" d="M818.602 614.733c-6.047 0-12.021-0.311-17.913-0.906-67.501 139.949-208.883 229.643-365.090 229.643-12.683 0-25.755-0.77-40.161-2.342-27.365 62.362-89.623 106.072-161.979 106.072-97.538 0-176.872-79.346-176.872-176.872 0-42.202 14.901-80.967 39.658-111.403-43.223-66.081-66.256-142.060-66.256-221.065 0-79.535 23.335-155.928 67.122-222.321-26.829-31.019-43.184-71.331-43.184-115.466 0-97.528 79.335-176.872 176.872-176.872 74.412 0 138.104 46.242 164.183 111.445 14.53-1.604 27.764-2.396 40.617-2.396 156.208 0 297.59 89.695 365.090 229.644 5.892-0.595 11.866-0.906 17.913-0.906 97.538 0 176.872 79.346 176.872 176.872s-79.335 176.873-176.872 176.873zM233.459 904.645c59.734 0 110.44-39.221 127.839-93.25 1.965-6.090 3.365-12.307 4.439-18.571 0.208-1.225 0.389-2.456 0.565-3.693 0.888-6.225 1.474-12.495 1.474-18.804 0-74.068-60.259-134.317-134.317-134.317-4.608 0-9.161 0.238-13.651 0.692-0.482 0.048-0.949 0.159-1.43 0.212-66.978 7.527-119.237 64.45-119.237 133.413 0 74.067 60.26 134.317 134.317 134.317zM230.799-34.245c-74.057 0-134.317 60.249-134.317 134.317 0 36.929 14.989 70.414 39.191 94.718l1.149 1.081c1.031 1.012 2.143 1.937 3.206 2.915 2.574 2.367 5.205 4.653 7.927 6.797 0.692 0.546 1.415 1.054 2.119 1.584 2.651 2.005 5.345 3.937 8.118 5.732 0.935 0.602 1.903 1.154 2.853 1.735 2.623 1.608 5.273 3.165 7.991 4.583 1.206 0.629 2.455 1.183 3.682 1.776 2.547 1.233 5.106 2.441 7.722 3.508 1.507 0.613 3.064 1.127 4.599 1.688 2.434 0.89 4.865 1.788 7.349 2.533 1.849 0.553 3.749 0.977 5.631 1.451 2.251 0.57 4.487 1.186 6.77 1.637 2.409 0.474 4.875 0.778 7.329 1.12 1.83 0.257 3.637 0.605 5.481 0.787 4.346 0.426 8.744 0.669 13.198 0.669 74.057 0 134.317-60.249 134.317-134.317 0-5.674-0.452-11.404-1.22-17.144-0.102-0.804-0.248-1.592-0.367-2.392-0.855-5.615-1.985-11.239-3.568-16.838l-1.304-4.638c-17.38-54.058-68.103-93.305-127.858-93.305zM758.279 271.594c-61.984-120.312-186.099-196.789-322.68-196.789-9.413 0-19.097 0.478-29.59 1.465 0.073 0.527 0.042 1.051 0.111 1.578 0.921 7.297 1.552 14.682 1.552 22.225 0 97.527-79.335 176.872-176.872 176.872-8.321 0-16.442-0.778-24.461-1.894-1.817-0.255-3.617-0.521-5.422-0.829-8.028-1.375-15.918-3.144-23.542-5.564-0.367-0.117-0.717-0.276-1.083-0.396-7.56-2.456-14.833-5.509-21.91-8.918-1.268-0.61-2.538-1.188-3.792-1.83-7.322-3.746-14.358-7.941-21.046-12.632-0.253-0.178-0.539-0.295-0.791-0.474-36.841 58.109-56.207 124.53-56.207 193.454 0 67.959 18.826 133.528 54.67 191.055 0.954-0.721 2.040-1.211 3.007-1.912 6.273-4.531 12.76-8.774 19.609-12.466 1.703-0.916 3.476-1.651 5.206-2.511 5.931-2.951 12.044-5.557 18.329-7.838 1.927-0.696 3.804-1.482 5.756-2.11 7.475-2.42 15.182-4.271 23.053-5.684 1.952-0.348 3.909-0.616 5.878-0.9 8.319-1.205 16.757-2.039 25.405-2.039 97.538 0 176.872 79.346 176.872 176.872 0 5.489-0.319 10.952-0.829 16.395-0.194 2.104-0.518 4.163-0.785 6.244-0.287 2.216-0.466 4.445-0.837 6.649 9.808 0.883 18.909 1.298 27.72 1.298 136.582 0 260.696-76.477 322.681-196.789-0.847-0.306-1.594-0.784-2.435-1.104-7.551-2.879-14.927-6.101-21.944-9.945-0.605-0.331-1.158-0.732-1.76-1.070-6.443-3.629-12.571-7.72-18.483-12.099-1.451-1.075-2.909-2.12-4.324-3.237-6.098-4.811-11.893-9.962-17.306-15.518-0.876-0.9-1.669-1.859-2.523-2.777-4.985-5.335-9.633-10.965-13.933-16.885-0.63-0.87-1.311-1.693-1.925-2.572-4.612-6.595-8.737-13.528-12.43-20.736-0.57-1.112-1.079-2.245-1.626-3.369-3.452-7.101-6.523-14.413-9.013-22.003-0.118-0.359-0.271-0.7-0.388-1.061-2.475-7.716-4.308-15.694-5.709-23.828-0.296-1.708-0.541-3.417-0.787-5.139-1.16-8.165-1.965-16.441-1.965-24.922s0.805-16.757 1.965-24.922c0.247-1.722 0.49-3.429 0.787-5.137 1.401-8.135 3.234-16.113 5.709-23.832 0.115-0.355 0.267-0.693 0.384-1.048 2.489-7.595 5.563-14.909 9.017-22.014 0.547-1.124 1.056-2.257 1.626-3.369 3.694-7.208 7.818-14.141 12.43-20.736 0.614-0.881 1.294-1.703 1.925-2.572 4.3-5.92 8.948-11.55 13.933-16.885 0.855-0.919 1.65-1.878 2.523-2.776 5.416-5.558 11.214-10.713 17.314-15.525 1.409-1.113 2.858-2.15 4.303-3.22 5.917-4.383 12.050-8.477 18.499-12.108 0.6-0.338 1.152-0.74 1.757-1.070 7.016-3.844 14.393-7.067 21.944-9.945 0.84-0.324 1.587-0.801 2.434-1.108zM818.602 303.543c-8.991 0-17.767 0.924-26.269 2.617-7.169 1.42-14.045 3.539-20.722 6.033-0.977 0.367-1.974 0.689-2.94 1.078-6.192 2.483-12.109 5.456-17.783 8.783-1.182 0.693-2.352 1.405-3.51 2.135-5.517 3.469-10.791 7.271-15.714 11.473-0.858 0.731-1.662 1.522-2.503 2.274-5.096 4.575-9.952 9.417-14.29 14.7-0.029 0.035-0.053 0.074-0.082 0.111-4.475 5.46-8.439 11.329-12.016 17.437-0.358 0.61-0.754 1.195-1.102 1.811-3.36 5.949-6.218 12.195-8.651 18.637-0.353 0.935-0.7 1.872-1.032 2.817-2.267 6.435-4.082 13.066-5.352 19.874-0.175 0.944-0.283 1.912-0.439 2.864-1.163 7.088-1.913 14.306-1.913 21.674s0.75 14.586 1.913 21.674c0.156 0.952 0.263 1.919 0.439 2.864 1.27 6.808 3.084 13.439 5.352 19.874 0.333 0.945 0.679 1.882 1.032 2.817 2.432 6.442 5.291 12.687 8.651 18.637 0.348 0.616 0.742 1.201 1.102 1.811 3.577 6.108 7.541 11.977 12.016 17.437 0.029 0.037 0.053 0.076 0.082 0.111 4.338 5.283 9.193 10.124 14.29 14.7 0.841 0.752 1.645 1.543 2.503 2.274 4.923 4.201 10.197 8.004 15.714 11.473 1.158 0.73 2.329 1.442 3.51 2.135 5.674 3.327 11.591 6.3 17.783 8.783 0.967 0.388 1.964 0.712 2.94 1.078 6.676 2.494 13.554 4.613 20.722 6.033 8.501 1.694 17.278 2.617 26.269 2.617 74.057 0 134.317-60.249 134.317-134.317s-60.26-134.319-134.317-134.319z" />
<glyph unicode="&#xe911;" glyph-name="twitter" d="M1024 752.385c-38.014-16.631-78.404-28.51-121.169-33.263 42.765 26.135 76.028 66.524 92.659 116.418-40.39-23.759-85.532-40.39-133.048-49.893-38.014 38.014-92.659 64.148-152.056 64.148-116.418 0-209.076-95.034-209.076-209.076 0-16.631 2.376-33.263 4.751-47.518-173.439 9.504-327.87 92.659-432.409 218.58-19.006-30.886-28.51-66.524-28.51-104.538 0-73.652 38.014-137.801 92.659-173.439-33.263 0-66.524 9.504-95.034 26.135v-2.376c0-102.162 71.277-185.317 168.687-206.701-16.631-4.751-35.638-7.128-54.645-7.128-14.255 0-26.135 2.376-40.39 4.751 26.135-83.155 104.538-144.928 194.821-144.928-71.277-57.021-161.56-90.283-261.345-90.283-16.631 0-33.263 0-49.893 2.376 92.659-59.397 201.949-95.034 320.742-95.034 389.642-2.376 598.719 318.367 598.719 596.343v26.135c40.389 28.512 76.027 66.526 104.537 109.292z" />
<glyph unicode="&#xe912;" glyph-name="youtube" d="M781.364 270.231c-16.793 0-23.91-7.089-23.91-33.057v-30.75l47.264 0.028v30.361c0.001 25.689-6.644 33.418-23.353 33.418zM597.368 270.231c-8.285 0-17.793-4.365-26.19-12.678l-0.083-168.622c8.424-8.397 17.989-12.678 26.274-12.678 14.513 0 21.074 10.649 21.074 38.45v119.551c-0.001 27.803-6.563 35.977-21.075 35.977zM918.82 379.104c0 0-8.118 56.94-33.029 82.017-31.556 32.918-66.948 33.084-83.157 35.003-116.186 8.368-290.452 8.368-290.452 8.368h-0.361c0 0-174.266 0-290.452-8.368-16.237-1.918-51.601-2.085-83.185-35.003-24.883-25.078-32.974-82.017-32.974-82.017s-8.313-66.893-8.313-133.786v-62.694c0-66.865 8.313-133.758 8.313-133.758s8.091-56.94 32.974-82.017c31.583-32.946 73.064-31.889 91.554-35.337 66.42-6.339 282.25-8.313 282.25-8.313s174.461 0.278 290.647 8.619c16.209 1.946 51.601 2.085 83.157 35.031 24.911 25.078 33.029 82.017 33.029 82.017s8.285 66.893 8.285 133.758v62.695c0 66.893-8.285 133.785-8.285 133.785zM279.252 34.076h-55.605v319.729h-58.385v52.769l175.155 0.055v-52.825h-61.166v-319.728zM479.43 34.076h-52.825v30.583c-20.046-22.938-37.005-34.53-55.521-34.53-16.237 0-27.524 7.645-33.168 21.491-3.42 8.424-5.839 21.547-5.839 40.842v219.64h52.825v-225.2c1.224-7.784 4.532-10.649 11.26-10.649 10.093 0 19.239 8.786 30.444 24.549v211.299h52.825v-278.025zM671.267 117.484c0-25.689-2.224-43.816-5.56-55.605-6.728-20.657-21.38-31.389-41.426-31.389-17.905 0-36.226 10.788-53.047 31.583l-0.055-27.997h-50.044v372.554h50.044l-0.083-121.441c16.264 19.99 34.67 31.389 53.187 31.389 20.046 0 33.53-11.594 40.23-32.39 3.364-11.177 6.756-29.165 6.756-55.494v-111.209zM857.627 164.747h-100.172v-49.906c-0.195-25.661 7.118-38.589 24.382-38.589 12.4 0 19.629 6.756 22.492 20.213 0.472 2.725 0.389 14.735 0.389 34.919h52.825v-7.868c0-16.209-1.362-27.691-1.807-32.752-1.696-11.149-5.643-21.241-11.761-30.137-13.929-20.184-34.587-30.138-60.887-30.138-26.329 0-46.375 9.481-60.915 28.469-10.704 13.901-17.543 34.559-17.543 64.085v97.309c0 29.693 6.228 52.658 16.904 66.698 14.568 19.017 34.614 29.082 60.303 29.082 25.245 0 45.29-10.065 59.414-29.082 10.509-14.040 16.376-35.754 16.376-65.447v-56.856zM642.636 589.243c17.464 0 33.485 10.941 52.384 32.603v-28.862h49.852v265.006h-49.852v-202.034c-10.551-14.882-19.187-23.173-28.728-23.173-6.34 0-9.465 2.69-10.628 10.055 0 2.623 0 7.236 0 18.366v196.786h-49.852v-209.906c0-18.213 2.296-30.612 5.535-38.553 5.327-13.060 15.967-20.289 31.29-20.289zM427.391 676.947c0-28.16 4.873-47.618 15.089-60.876 13.262-18.070 34.765-27.642 55.755-27.642s42.871 9.572 56.151 27.642c10.055 13.258 14.692 32.716 14.692 60.876v94.458c0 28.32-5.688 49.586-15.743 62.972-13.28 18.126-34.109 25.547-55.1 25.547-23.759 0-41.839-7.42-55.1-25.547-10.214-13.386-15.694-34.883-15.694-63.202l-0.049-94.227zM498.233 815.188c15.48 0 23.64-12.298 21.017-38.536l-0.026-104.953c2.623-26.238-5.514-39.257-20.994-39.257s-23.61 13.019-20.987 39.257v104.953c-2.625 26.238 5.51 38.536 20.99 38.536zM319.815 592.985h52.476v144.309l65.595 209.906h-55.1l-36.643-138.21-36.824 138.21h-55.1c11.218-32.978 65.595-209.906 65.595-209.906v-144.309z" />
<glyph unicode="&#xe913;" glyph-name="wishlist" d="M640 819.2c0 70.687-57.313 128-128 128s-128-57.313-128-128h-128v-128h512v128h-128zM512 755.2c-35.379 0-64 28.662-64 64s28.621 64 64 64 64-28.662 64-64-28.621-64-64-64zM832 819.2v-192h-640v192h-128v-896h896v896h-128zM482.314 59.914l-226.314 226.294 90.501 90.491 135.813-135.772 258.314 258.273 90.501-90.501-348.815-348.785z" />
<glyph unicode="&#xe914;" glyph-name="minus" d="M0 481.728h1024v-93.088h-1024v93.088z" />
<glyph unicode="&#xe915;" glyph-name="plus" d="M558.56 481.728v465.472h-93.088v-465.472h-465.472v-93.088h465.472v-465.472h93.088v465.472h465.472v93.088z" />
<glyph unicode="&#xe916;" glyph-name="add" d="M780.8 765.44v181.76h-716.8v-1024h547.84l168.96 176.64v261.12c102.4 12.8 179.2 99.84 179.2 202.24s-76.8 189.44-179.2 202.24zM729.6 120.32l-128-135.68v138.24h128v-2.56zM729.6 176.64h-179.2v-202.24h-435.2v921.6h614.4v-130.56c-112.64-15.36-192-117.76-176.64-230.4 12.8-92.16 84.48-163.84 176.64-176.64v-181.76zM755.2 409.6c-84.48 0-153.6 69.12-153.6 153.6s69.12 153.6 153.6 153.6 153.6-69.12 153.6-153.6-69.12-153.6-153.6-153.6zM780.8 640h-51.2v-51.2h-51.2v-51.2h51.2v-51.2h51.2v51.2h51.2v51.2h-51.2z" />
<glyph unicode="&#xe917;" glyph-name="controls" d="M793.6 947.2h-563.2c-56.32 0-102.4-46.080-102.4-102.4v-819.2c0-56.32 46.080-102.4 102.4-102.4h563.2c56.32 0 102.4 46.080 102.4 102.4v819.2c0 56.32-46.080 102.4-102.4 102.4zM839.68 25.6c0-25.6-20.48-46.080-46.080-46.080h-563.2c-25.6 0-46.080 20.48-48.64 46.080v819.2c0 25.6 23.040 46.080 48.64 46.080v0h563.2c25.6 0 46.080-20.48 46.080-46.080v-819.2zM409.6 281.6c-43.52 0-76.8-33.28-76.8-76.8s33.28-76.8 76.8-76.8 76.8 33.28 76.8 76.8-33.28 76.8-76.8 76.8zM409.6 179.2c-15.36 0-25.6 10.24-25.6 25.6s10.24 25.6 25.6 25.6 25.6-10.24 25.6-25.6-10.24-25.6-25.6-25.6zM614.4 281.6c-43.52 0-76.8-33.28-76.8-76.8s33.28-76.8 76.8-76.8 76.8 33.28 76.8 76.8-33.28 76.8-76.8 76.8zM614.4 179.2c-15.36 0-25.6 10.24-25.6 25.6s10.24 25.6 25.6 25.6 25.6-10.24 25.6-25.6-10.24-25.6-25.6-25.6zM512 793.6c-128 0-230.4-102.4-230.4-230.4s102.4-230.4 230.4-230.4 230.4 102.4 230.4 230.4-102.4 230.4-230.4 230.4zM512 384c-99.84 0-179.2 79.36-179.2 179.2s79.36 179.2 179.2 179.2 179.2-79.36 179.2-179.2-79.36-179.2-179.2-179.2zM384 614.4h256v-51.2h-256v51.2zM422.4 512h179.2v-51.2h-179.2v51.2z" />
<glyph unicode="&#xe918;" glyph-name="electro-boilers" d="M832 627.2h-256c-43.52 0-76.8-33.28-76.8-76.8v-409.6h-128c-38.4-5.12-71.68 23.040-76.8 58.88 0 5.12 0 7.68 0 12.8v235.52c0 0 0 0 0 2.56 84.48 7.68 128 58.88 128 151.040v128h-51.2v128h-51.2v-128h-102.4v128h-51.2v-128h-51.2v-128c0-92.16 43.52-143.36 128-151.040 0 0 0 0 0-2.56v-235.52c-2.56-66.56 48.64-120.32 115.2-122.88 5.12 0 10.24 0 12.8 0h128c0-43.52 33.28-76.8 76.8-76.8h256c43.52 0 76.8 33.28 76.8 76.8v460.8c0 43.52-33.28 76.8-76.8 76.8zM166.4 601.6v76.8h204.8v-76.8c0-74.24-28.16-102.4-102.4-102.4s-102.4 28.16-102.4 102.4zM857.6 89.6c0-15.36-10.24-25.6-25.6-25.6h-256c-15.36 0-25.6 10.24-25.6 25.6v460.8c0 15.36 10.24 25.6 25.6 25.6h256c15.36 0 25.6-10.24 25.6-25.6v-460.8zM601.6 115.2h204.8v230.4h-204.8v-230.4zM652.8 294.4h102.4v-128h-102.4v128zM601.6 524.8h204.8v-51.2h-204.8v51.2z" />
<glyph unicode="&#xe919;" glyph-name="floor-heating" d="M844.8 199.68h-665.6c-15.36 0-25.6 10.24-25.6 25.6s10.24 25.6 25.6 25.6h716.8v51.2h-716.8c-43.52 0-76.8-33.28-76.8-76.8s33.28-76.8 76.8-76.8h665.6c15.36 0 25.6-10.24 25.6-25.6s-10.24-25.6-25.6-25.6h-716.8v-51.2h716.8c43.52 0 76.8 33.28 76.8 76.8s-33.28 76.8-76.8 76.8zM465.92 568.32c20.48-17.92 20.48-48.64 2.56-69.12l-69.12-69.12 35.84-35.84 69.12 69.12c38.4 40.96 35.84 102.4-2.56 140.8l-46.080 46.080c-20.48 17.92-20.48 48.64-2.56 69.12l69.12 69.12-35.84 35.84-69.12-69.12c-38.4-40.96-35.84-102.4 2.56-140.8l46.080-46.080zM619.52 568.32c20.48-17.92 20.48-48.64 2.56-69.12l-69.12-69.12 35.84-35.84 69.12 69.12c38.4 40.96 35.84 102.4-2.56 140.8l-46.080 46.080c-20.48 17.92-20.48 48.64-2.56 69.12l69.12 69.12-35.84 35.84-69.12-69.12c-38.4-40.96-35.84-102.4 2.56-140.8l46.080-46.080zM773.12 568.32c20.48-17.92 20.48-48.64 2.56-69.12l-69.12-69.12 35.84-35.84 69.12 69.12c38.4 40.96 35.84 102.4-2.56 140.8l-46.080 46.080c-20.48 17.92-20.48 48.64-2.56 69.12l69.12 69.12-35.84 35.84-69.12-69.12c-38.4-40.96-35.84-102.4 2.56-140.8l46.080-46.080z" />
<glyph unicode="&#xe91a;" glyph-name="floor-standing-boilers" d="M517.12 128h307.2v332.8h-307.2v-332.8zM568.32 409.6h204.8v-230.4h-204.8v230.4zM517.12 742.4h307.2v-51.2h-307.2v51.2zM824.32 896h-307.2c-56.32 0-102.4-46.080-102.4-102.4v-716.8c0-56.32 46.080-102.4 102.4-102.4h307.2c56.32 0 102.4 46.080 102.4 102.4v716.8c0 56.32-46.080 102.4-102.4 102.4zM875.52 76.8c0-28.16-23.040-51.2-51.2-51.2h-307.2c-28.16 0-51.2 23.040-51.2 51.2v716.8c0 28.16 23.040 51.2 51.2 51.2h307.2c28.16 0 51.2-23.040 51.2-51.2v-716.8zM261.12 138.24v476.16h-51.2v-476.16l-76.8 76.8-35.84-35.84 138.24-138.24 138.24 138.24-35.84 35.84zM107.52 25.6h256v-51.2h-256v51.2z" />
<glyph unicode="&#xe91b;" glyph-name="gas" d="M529.92 755.2c102.4-104.96 217.6-250.88 217.6-442.88 0-58.88-23.040-115.2-61.44-158.72 5.12 17.92 7.68 38.4 10.24 58.88 5.12 94.72-40.96 186.88-135.68 279.040l-94.72 89.6 7.68-130.56c2.56-33.28 0-66.56-7.68-99.84-7.68 5.12-12.8 12.8-20.48 15.36l-58.88 35.84-17.92-66.56c-2.56-10.24-7.68-23.040-12.8-35.84-17.92-40.96-28.16-87.040-30.72-130.56-30.72 40.96-48.64 89.6-48.64 143.36 0 115.2 53.76 176.64 122.88 256 51.2 56.32 94.72 117.76 130.56 186.88zM512 844.8c-84.48-245.76-286.72-294.4-286.72-532.48 0-133.12 89.6-248.32 220.16-279.040l-10.24 12.8c-107.52 107.52-35.84 207.36-17.92 276.48 38.4-25.6 56.32-94.72 56.32-94.72 38.4 69.12 56.32 145.92 48.64 225.28 215.040-202.24 94.72-360.96 20.48-417.28l-10.24-10.24c151.040 10.24 266.24 135.68 266.24 286.72 0 240.64-168.96 414.72-286.72 532.48z" />
<glyph unicode="&#xe91c;" glyph-name="gas-appliances-to-100kw" d="M445.44 107.52c-17.92 0-30.72-23.040-30.72-56.32s10.24-58.88 30.72-58.88 30.72 23.040 30.72 58.88-12.8 56.32-30.72 56.32zM578.56 107.52c-17.92 0-30.72-23.040-30.72-56.32s10.24-58.88 30.72-58.88 30.72 23.040 30.72 58.88-10.24 56.32-30.72 56.32zM675.84 179.2c76.8 53.76 122.88 140.8 122.88 235.52 0 240.64-168.96 414.72-286.72 532.48-84.48-245.76-286.72-294.4-286.72-532.48 0-94.72 46.080-181.76 122.88-235.52h-348.16v-256h1024v256h-348.16zM325.12 268.8c-30.72 40.96-48.64 92.16-48.64 143.36 0 115.2 53.76 176.64 122.88 256 51.2 56.32 94.72 117.76 130.56 186.88 102.4-104.96 217.6-253.44 217.6-442.88 0-58.88-23.040-115.2-61.44-156.16 5.12 17.92 7.68 38.4 10.24 58.88 5.12 94.72-40.96 186.88-135.68 279.040l-94.72 89.6 7.68-130.56c2.56-33.28 0-66.56-7.68-99.84-7.68 5.12-12.8 12.8-20.48 15.36l-58.88 35.84-17.92-66.56c-2.56-10.24-7.68-23.040-12.8-35.84-17.92-40.96-28.16-87.040-30.72-133.12zM181.76 71.68l-58.88-28.16 58.88-28.16v-20.48l-79.36 40.96v15.36l81.92 40.96-2.56-20.48zM368.64-23.040h-87.040v17.92h33.28v94.72c-10.24-2.56-20.48-5.12-30.72-5.12v15.36c23.040 2.56 33.28 10.24 38.4 25.6h15.36v-130.56h30.72v-17.92zM445.44-25.6c-33.28 0-53.76 30.72-53.76 76.8s20.48 74.24 51.2 74.24 51.2-30.72 51.2-74.24-17.92-76.8-48.64-76.8v0zM578.56-25.6c-33.28 0-53.76 30.72-53.76 76.8s20.48 74.24 53.76 74.24 51.2-30.72 51.2-74.24-17.92-76.8-51.2-76.8v0zM586.24 179.2h-179.2c-66.56 94.72-5.12 184.32 10.24 245.76 38.4-25.6 56.32-94.72 56.32-94.72 38.4 69.12 56.32 145.92 48.64 225.28 176.64-166.4 128-302.080 64-376.32v0zM732.16-20.48l-30.72 48.64-15.36-17.92v-33.28h-20.48v153.6h20.48v-94.72l40.96 48.64h25.6l-35.84-40.96 40.96-64h-25.6zM898.56-20.48h-23.040l-23.040 79.36-25.6-79.36h-23.040l-30.72 107.52h23.040l23.040-81.92 25.6 81.92h20.48l23.040-81.92 23.040 81.92h20.48l-33.28-107.52z" />
<glyph unicode="&#xe91d;" glyph-name="gas-boilers" d="M844.8 640h-256c-43.52 0-76.8-33.28-76.8-76.8v-460.8c0-43.52 33.28-76.8 76.8-76.8h256c43.52 0 76.8 33.28 76.8 76.8v460.8c0 43.52-33.28 76.8-76.8 76.8zM870.4 102.4c0-15.36-10.24-25.6-25.6-25.6h-256c-15.36 0-25.6 10.24-25.6 25.6v460.8c0 15.36 10.24 25.6 25.6 25.6h256c15.36 0 25.6-10.24 25.6-25.6v-460.8zM614.4 128h204.8v230.4h-204.8v-230.4zM665.6 307.2h102.4v-128h-102.4v128zM614.4 537.6h204.8v-51.2h-204.8v51.2zM102.4 512c0-81.92 56.32-153.6 138.24-174.080l-7.68 7.68c-46.080 53.76-12.8 74.24 2.56 120.32 12.8-17.92 28.16-33.28 46.080-43.52 20.48 40.96 33.28 87.040 43.52 133.12 43.52-51.2 23.040-179.2-23.040-215.040l-7.68-7.68c94.72 5.12 166.4 84.48 166.4 179.2 0 151.040-104.96 258.56-179.2 332.8-53.76-153.6-179.2-184.32-179.2-332.8zM409.6 512c0-15.36-2.56-33.28-10.24-48.64 2.56 43.52-10.24 89.6-35.84 125.44l-69.12 79.36-20.48-104.96c-2.56-15.36-7.68-33.28-12.8-48.64l-43.52 61.44-33.28-94.72c-2.56-7.68-7.68-15.36-10.24-23.040l-5.12-10.24c-10.24 17.92-15.36 40.96-15.36 64 0 64 30.72 99.84 71.68 148.48 25.6 30.72 51.2 61.44 71.68 94.72 56.32-61.44 112.64-143.36 112.64-243.2z" />
<glyph unicode="&#xe91e;" glyph-name="heating" d="M972.8 614.4v51.2h-51.2v25.6c0 43.52-33.28 76.8-76.8 76.8s-76.8-33.28-76.8-76.8v-25.6h-51.2v25.6c0 43.52-33.28 76.8-76.8 76.8s-76.8-33.28-76.8-76.8v-25.6h-51.2v25.6c0 43.52-33.28 76.8-76.8 76.8s-76.8-33.28-76.8-76.8v-25.6h-51.2v25.6c0 43.52-33.28 76.8-76.8 76.8s-76.8-33.28-76.8-76.8v-25.6h-51.2v51.2h-51.2v-153.6h51.2v51.2h51.2v-435.2c0-43.52 33.28-76.8 76.8-76.8s76.8 33.28 76.8 76.8v25.6h51.2v-25.6c0-43.52 33.28-76.8 76.8-76.8s76.8 33.28 76.8 76.8v25.6h51.2v-25.6c0-43.52 33.28-76.8 76.8-76.8s76.8 33.28 76.8 76.8v25.6h51.2v-25.6c0-43.52 33.28-76.8 76.8-76.8s76.8 33.28 76.8 76.8v25.6h51.2v51.2h-51.2v358.4h51.2zM256 179.2c0-15.36-10.24-25.6-25.6-25.6s-25.6 10.24-25.6 25.6v512c0 15.36 10.24 25.6 25.6 25.6s25.6-10.24 25.6-25.6v-512zM358.4 256h-51.2v358.4h51.2v-358.4zM460.8 179.2c0-15.36-10.24-25.6-25.6-25.6s-25.6 10.24-25.6 25.6v512c0 15.36 10.24 25.6 25.6 25.6s25.6-10.24 25.6-25.6v-512zM563.2 256h-51.2v358.4h51.2v-358.4zM665.6 179.2c0-15.36-10.24-25.6-25.6-25.6s-25.6 10.24-25.6 25.6v512c0 15.36 10.24 25.6 25.6 25.6s25.6-10.24 25.6-25.6v-512zM768 256h-51.2v358.4h51.2v-358.4zM870.4 179.2c0-15.36-10.24-25.6-25.6-25.6s-25.6 10.24-25.6 25.6v512c0 15.36 10.24 25.6 25.6 25.6s25.6-10.24 25.6-25.6v-512z" />
<glyph unicode="&#xe91f;" glyph-name="heat-pumps" d="M870.4 793.6h-716.8c-56.32 0-102.4-46.080-102.4-102.4v-512c0-56.32 46.080-102.4 102.4-102.4h716.8c56.32 0 102.4 46.080 102.4 102.4v512c0 56.32-46.080 102.4-102.4 102.4zM921.6 179.2c0-28.16-23.040-51.2-51.2-51.2h-716.8c-28.16 0-51.2 23.040-51.2 51.2v512c0 28.16 23.040 51.2 51.2 51.2h716.8c28.16 0 51.2-23.040 51.2-51.2v-512zM696.32 473.6c-10.24 2.56-20.48 5.12-33.28 7.68l-15.36 2.56c2.56 5.12 2.56 10.24 5.12 12.8 2.56 10.24 7.68 20.48 10.24 30.72s5.12 20.48 7.68 30.72 2.56 20.48 5.12 30.72c2.56 17.92-5.12 35.84-15.36 48.64s-25.6 23.040-40.96 25.6c-7.68 2.56-15.36 2.56-23.040 5.12-12.8 0-28.16 0-40.96 0-7.68 0-15.36-2.56-23.040-2.56-12.8-2.56-23.040-7.68-33.28-15.36h-2.56l-7.68-10.24c-10.24-12.8-15.36-30.72-15.36-48.64 0-10.24 2.56-20.48 5.12-30.72s5.12-20.48 7.68-30.72 7.68-20.48 10.24-33.28l5.12-12.8-15.36-5.12c-10.24-2.56-20.48-5.12-33.28-7.68s-17.92-5.12-28.16-10.24c-10.24-5.12-20.48-7.68-28.16-12.8-15.36-7.68-28.16-20.48-35.84-38.4-5.12-15.36-5.12-33.28 0-48.64 2.56-7.68 5.12-12.8 7.68-20.48s7.68-12.8 10.24-17.92 7.68-12.8 10.24-17.92c5.12-5.12 7.68-12.8 12.8-17.92 7.68-10.24 17.92-17.92 30.72-20.48l12.8-2.56c2.56 0 7.68 0 10.24 0 12.8 0 28.16 5.12 38.4 12.8s17.92 12.8 25.6 17.92 15.36 12.8 23.040 20.48 15.36 15.36 23.040 25.6c2.56 2.56 5.12 7.68 10.24 12.8 2.56-2.56 5.12-7.68 10.24-12.8 7.68-7.68 15.36-15.36 23.040-25.6s15.36-15.36 23.040-20.48 15.36-12.8 25.6-20.48 25.6-12.8 38.4-12.8c2.56 0 7.68 0 10.24 0 15.36 2.56 30.72 10.24 43.52 23.040 5.12 5.12 10.24 12.8 12.8 17.92 5.12 5.12 7.68 12.8 10.24 17.92s7.68 12.8 10.24 17.92c2.56 7.68 5.12 12.8 7.68 20.48 5.12 12.8 5.12 25.6 2.56 35.84v17.92c-5.12 15.36-17.92 30.72-35.84 38.4-10.24 5.12-20.48 7.68-28.16 12.8s-23.040 5.12-33.28 10.24zM576 427.52c-7.68 0-12.8 5.12-12.8 12.8s5.12 12.8 12.8 12.8 12.8-5.12 12.8-12.8c0-7.68-5.12-15.36-12.8-12.8 0-2.56 0-2.56 0 0v0zM529.92 606.72l2.56 2.56c2.56 2.56 5.12 5.12 10.24 5.12s10.24 2.56 15.36 2.56c10.24 0 23.040 0 33.28 0 5.12 0 10.24 0 17.92-2.56 5.12 0 7.68-2.56 10.24-7.68 2.56-2.56 5.12-7.68 5.12-12.8 0-10.24-2.56-17.92-2.56-28.16s-5.12-15.36-7.68-25.6c-2.56-10.24-5.12-17.92-7.68-28.16s-2.56-10.24-5.12-15.36c-15.36 7.68-35.84 7.68-51.2 0-2.56 5.12-5.12 10.24-5.12 15.36-2.56 10.24-5.12 17.92-7.68 28.16s-5.12 17.92-5.12 28.16-2.56 17.92-2.56 25.6c-5.12 5.12-2.56 7.68 0 12.8v0zM509.44 355.84c-7.68-7.68-12.8-12.8-20.48-17.92s-12.8-10.24-20.48-15.36c-2.56-2.56-7.68-2.56-10.24-2.56h-2.56c-5.12 0-7.68 2.56-12.8 5.12-2.56 5.12-7.68 7.68-10.24 12.8s-7.68 10.24-10.24 15.36-5.12 10.24-7.68 15.36c-2.56 5.12-5.12 10.24-7.68 15.36s-2.56 7.68 0 12.8c2.56 5.12 5.12 7.68 7.68 10.24 7.68 2.56 17.92 7.68 25.6 10.24s17.92 5.12 25.6 7.68 17.92 5.12 28.16 5.12l15.36 2.56c2.56-17.92 10.24-33.28 25.6-43.52-2.56-5.12-7.68-7.68-10.24-12.8s-10.24-15.36-15.36-20.48v0zM742.4 396.8v-2.56c2.56-5.12 2.56-7.68 0-12.8s-5.12-10.24-7.68-15.36c-2.56-5.12-5.12-10.24-7.68-15.36s-5.12-10.24-10.24-15.36c-2.56-5.12-7.68-10.24-10.24-12.8s-7.68-5.12-10.24-5.12c-5.12 0-10.24 0-12.8 2.56-7.68 5.12-15.36 10.24-23.040 15.36s-12.8 12.8-20.48 17.92-12.8 12.8-20.48 20.48l-5.12 12.8c15.36 10.24 23.040 25.6 25.6 43.52l15.36-2.56c10.24-2.56 17.92-2.56 28.16-7.68s17.92-5.12 25.6-7.68 15.36-7.68 25.6-10.24c2.56 0 5.12-2.56 7.68-5.12zM576 729.6c-163.84 0-294.4-130.56-294.4-294.4s130.56-294.4 294.4-294.4 294.4 130.56 294.4 294.4c0 161.28-133.12 294.4-294.4 294.4zM576 192c-133.12 0-243.2 110.080-243.2 243.2s110.080 243.2 243.2 243.2 243.2-110.080 243.2-243.2-110.080-243.2-243.2-243.2z" />
<glyph unicode="&#xe920;" glyph-name="heat-pumps-split" d="M637.44 532.48h-558.080c-43.52 0-79.36-35.84-79.36-79.36v0-399.36c0-43.52 35.84-79.36 79.36-79.36v0h558.080c43.52 0 79.36 35.84 79.36 79.36v0 399.36c0 43.52-35.84 79.36-79.36 79.36v0zM665.6 53.76c0-15.36-12.8-28.16-28.16-28.16v0h-558.080c-15.36 0-28.16 12.8-28.16 28.16v0 399.36c0 15.36 12.8 28.16 28.16 28.16v0h558.080c15.36 0 28.16-12.8 28.16-28.16v0-399.36zM921.6 896h-51.2c-56.32 0-102.4-46.080-102.4-102.4v-716.8c0-56.32 46.080-102.4 102.4-102.4h51.2c56.32 0 102.4 46.080 102.4 102.4v716.8c0 56.32-46.080 102.4-102.4 102.4zM972.8 76.8c0-28.16-23.040-51.2-51.2-51.2h-51.2c-28.16 0-51.2 23.040-51.2 51.2v716.8c0 28.16 23.040 51.2 51.2 51.2h51.2c28.16 0 51.2-23.040 51.2-51.2v-716.8zM435.2 460.8c-112.64 0-204.8-92.16-204.8-204.8s92.16-204.8 204.8-204.8 204.8 92.16 204.8 204.8-92.16 204.8-204.8 204.8zM455.68 340.48c0-5.12-2.56-10.24-2.56-15.36s-2.56-10.24-5.12-15.36-2.56-7.68-5.12-10.24h-15.36c0 2.56-2.56 7.68-2.56 10.24s-2.56 10.24-5.12 17.92-2.56 10.24-2.56 15.36-2.56 10.24-2.56 15.36l2.56 2.56h10.24c7.68 0 12.8 0 20.48 0h10.24l2.56-2.56c-5.12-7.68-5.12-12.8-5.12-17.92zM386.56 243.2l10.24 2.56c2.56-5.12 5.12-7.68 7.68-12.8l-7.68-7.68c-2.56-5.12-7.68-7.68-12.8-12.8s-7.68-7.68-12.8-12.8c-5.12-2.56-7.68-7.68-12.8-10.24v0c-2.56 2.56-5.12 5.12-5.12 7.68-2.56 2.56-2.56 5.12-5.12 7.68l-5.12 7.68c0 2.56-2.56 5.12-2.56 10.24v2.56c5.12 2.56 10.24 5.12 15.36 7.68s10.24 2.56 15.36 5.12 10.24 5.12 15.36 5.12zM473.6 243.2h10.24c5.12 0 12.8-2.56 17.92-2.56s10.24-2.56 15.36-5.12 10.24-5.12 15.36-7.68v-2.56c0-2.56-2.56-5.12-2.56-7.68-2.56-2.56-2.56-5.12-5.12-7.68s-2.56-5.12-5.12-7.68c-2.56-2.56-2.56-5.12-5.12-7.68h-2.56c-5.12 2.56-10.24 7.68-12.8 10.24s-7.68 7.68-12.8 10.24-7.68 7.68-12.8 12.8l-7.68 7.68c2.56 2.56 5.12 5.12 7.68 7.68zM435.2 102.4c-84.48 0-153.6 69.12-153.6 153.6 0 66.56 43.52 125.44 107.52 145.92l-5.12-2.56h-2.56l-7.68-10.24c-7.68-10.24-12.8-23.040-12.8-38.4 0-7.68 2.56-12.8 2.56-20.48s2.56-12.8 5.12-20.48 2.56-12.8 5.12-17.92c-7.68 0-12.8-2.56-20.48-5.12s-12.8-5.12-20.48-7.68-12.8-5.12-20.48-7.68c-12.8-5.12-20.48-15.36-25.6-28.16s-5.12-25.6 0-35.84c2.56-5.12 2.56-10.24 5.12-15.36s5.12-7.68 7.68-12.8 5.12-7.68 7.68-12.8 5.12-7.68 7.68-12.8 12.8-12.8 20.48-15.36v-2.56l12.8-2.56h7.68c10.24 0 20.48 2.56 30.72 10.24 5.12 5.12 12.8 7.68 15.36 12.8s10.24 10.24 15.36 12.8 10.24 10.24 12.8 15.36c5.12-5.12 7.68-10.24 12.8-15.36s10.24-10.24 15.36-12.8 10.24-7.68 15.36-12.8c7.68-5.12 20.48-10.24 30.72-10.24h7.68c12.8 2.56 23.040 7.68 33.28 17.92 2.56 2.56 5.12 7.68 10.24 12.8 2.56 5.12 5.12 7.68 7.68 12.8s5.12 7.68 7.68 12.8c2.56 5.12 5.12 7.68 5.12 12.8 2.56 7.68 5.12 17.92 2.56 25.6v2.56l-5.12 12.8c-5.12 12.8-12.8 23.040-25.6 28.16-7.68 2.56-12.8 5.12-17.92 7.68s-12.8 5.12-20.48 7.68-12.8 2.56-20.48 5.12c2.56 5.12 5.12 12.8 5.12 17.92s2.56 12.8 5.12 20.48 2.56 12.8 2.56 20.48c0 12.8-2.56 28.16-12.8 38.4-2.56 5.12-7.68 7.68-12.8 10.24 81.92-25.6 125.44-112.64 99.84-192-12.8-61.44-74.24-104.96-140.8-104.96z" />
<glyph unicode="&#xe921;" glyph-name="heat-recovery-ventilation" d="M870.4 343.040l-35.84-35.84 76.8-76.8h-143.36v25.6h25.6v51.2h-25.6v256h25.6v51.2h-25.6v25.6h128v51.2h-128v25.6h25.6v51.2h-25.6v76.8c0 56.32-46.080 102.4-102.4 102.4h-307.2c-56.32 0-102.4-46.080-102.4-102.4v-76.8h-25.6v-51.2h25.6v-25.6h-128v-51.2h128v-25.6h-25.6v-51.2h25.6v-256h-25.6v-51.2h25.6v-25.6h-143.36l76.8 76.8-35.84 35.84-138.24-138.24 138.24-138.24 35.84 35.84-76.8 76.8h143.36v-25.6h-25.6v-51.2h25.6v-76.8c0-56.32 46.080-102.4 102.4-102.4h307.2c56.32 0 102.4 46.080 102.4 102.4v76.8h25.6v51.2h-25.6v25.6h143.36l-76.8-76.8 35.84-35.84 138.24 138.24-138.24 138.24zM716.8 614.4h-25.6v-51.2h25.6v-256h-25.6v-51.2h25.6v-25.6h-51.2c-20.48 2.56-38.4 12.8-48.64 30.72l-76.8 174.080 76.8 174.080c10.24 17.92 28.16 30.72 48.64 30.72h51.2v-25.6zM307.2 716.8h25.6v51.2h-25.6v76.8c0 28.16 23.040 51.2 51.2 51.2h307.2c28.16 0 51.2-23.040 51.2-51.2v-76.8h-25.6v-51.2h25.6v-25.6h-51.2c-40.96-2.56-76.8-25.6-94.72-61.44l-58.88-130.56-58.88 130.56c-17.92 35.84-53.76 58.88-94.72 61.44h-51.2v25.6zM307.2 256h25.6v51.2h-25.6v256h25.6v51.2h-25.6v25.6h51.2c20.48-2.56 38.4-12.8 48.64-30.72l76.8-174.080-76.8-174.080c-10.24-17.92-28.16-30.72-48.64-30.72h-51.2v25.6zM716.8 153.6h-25.6v-51.2h25.6v-76.8c0-28.16-23.040-51.2-51.2-51.2h-307.2c-28.16 0-51.2 23.040-51.2 51.2v76.8h25.6v51.2h-25.6v25.6h51.2c40.96 2.56 76.8 25.6 94.72 61.44l58.88 130.56 58.88-130.56c17.92-35.84 53.76-61.44 94.72-61.44h51.2v-25.6z" />
<glyph unicode="&#xe922;" glyph-name="hot-water" d="M465.92 624.64c20.48-17.92 20.48-48.64 2.56-69.12l-69.12-69.12 35.84-35.84 69.12 69.12c38.4 40.96 35.84 102.4-2.56 140.8l-46.080 46.080c-20.48 17.92-20.48 48.64-2.56 69.12l69.12 69.12-35.84 35.84-69.12-69.12c-38.4-40.96-35.84-102.4 2.56-140.8l46.080-46.080zM619.52 624.64c20.48-17.92 20.48-48.64 2.56-69.12l-69.12-69.12 35.84-35.84 69.12 69.12c38.4 40.96 35.84 102.4-2.56 140.8l-46.080 46.080c-20.48 17.92-20.48 48.64-2.56 69.12l69.12 69.12-35.84 35.84-69.12-69.12c-38.4-40.96-35.84-102.4 2.56-140.8l46.080-46.080zM770.56 624.64c20.48-17.92 20.48-48.64 2.56-69.12l-69.12-69.12 35.84-35.84 69.12 69.12c38.4 40.96 35.84 102.4-2.56 140.8l-46.080 46.080c-20.48 17.92-20.48 48.64-2.56 69.12l69.12 69.12-33.28 35.84-69.12-69.12c-38.4-40.96-35.84-102.4 2.56-140.8l43.52-46.080zM171.52 296.96c30.72 0 61.44 10.24 84.48 28.16 51.2-35.84 120.32-35.84 171.52 0 51.2-35.84 120.32-35.84 171.52 0 51.2-35.84 120.32-35.84 171.52 0 58.88-40.96 138.24-35.84 189.44 15.36l17.92 17.92-38.4 35.84-17.92-17.92c-38.4-35.84-97.28-35.84-135.68 0l-17.92 17.92-17.92-17.92c-38.4-35.84-97.28-35.84-135.68 0l-17.92 17.92-17.92-17.92c-38.4-35.84-97.28-35.84-135.68 0l-15.36 17.92-17.92-17.92c-38.4-35.84-97.28-35.84-135.68 0l-17.92 17.92-17.92-17.92c-38.4-35.84-97.28-35.84-135.68 0l-17.92 17.92-35.84-35.84 17.92-17.92c28.16-28.16 64-43.52 104.96-43.52zM921.6 222.72c-38.4-35.84-97.28-35.84-135.68 0l-17.92 17.92-17.92-17.92c-38.4-35.84-97.28-35.84-135.68 0l-17.92 17.92-17.92-17.92c-38.4-35.84-97.28-35.84-135.68 0l-15.36 17.92-17.92-17.92c-38.4-35.84-97.28-35.84-135.68 0l-17.92 17.92-17.92-17.92c-38.4-35.84-97.28-35.84-135.68 0l-17.92 17.92-35.84-35.84 17.92-17.92c51.2-51.2 130.56-56.32 189.44-15.36 51.2-35.84 120.32-35.84 171.52 0 51.2-35.84 120.32-35.84 171.52 0 51.2-35.84 120.32-35.84 171.52 0 58.88-40.96 138.24-35.84 189.44 15.36l17.92 17.92-38.4 35.84-17.92-17.92zM921.6 69.12c-38.4-35.84-97.28-35.84-135.68 0l-17.92 17.92-17.92-17.92c-38.4-35.84-97.28-35.84-135.68 0l-17.92 17.92-17.92-17.92c-38.4-35.84-97.28-35.84-135.68 0l-15.36 17.92-17.92-17.92c-38.4-35.84-97.28-35.84-135.68 0l-17.92 17.92-17.92-17.92c-38.4-35.84-97.28-35.84-135.68 0l-17.92 17.92-35.84-35.84 17.92-17.92c51.2-51.2 130.56-56.32 189.44-15.36 51.2-35.84 120.32-35.84 171.52 0 51.2-35.84 120.32-35.84 171.52 0 51.2-35.84 120.32-35.84 171.52 0 58.88-40.96 138.24-35.84 189.44 15.36l17.92 17.92-38.4 35.84-17.92-17.92z" />
<glyph unicode="&#xe923;" glyph-name="installer" d="M865.28 453.12l-145.92-145.92-17.92 17.92c-17.92 17.92-48.64 20.48-69.12 2.56-48.64 51.2-110.080 84.48-179.2 99.84 122.88 51.2 184.32 192 133.12 314.88s-192 184.32-314.88 133.12-181.76-189.44-133.12-314.88c25.6-61.44 71.68-107.52 133.12-133.12-166.4-35.84-271.36-166.4-271.36-350.72v-25.6h51.2v25.6c0 215.040 158.72 312.32 314.88 312.32 87.040 2.56 171.52-30.72 232.96-92.16l-151.040-151.040c-30.72-30.72-30.72-79.36 0-107.52l35.84-35.84c30.72-30.72 79.36-30.72 107.52 0l184.32 184.32c20.48 20.48 20.48 51.2 0 71.68v0l-17.92 17.92 145.92 145.92-38.4 30.72zM171.52 652.8c0 104.96 84.48 192 192 192s192-84.48 192-192-87.040-192-192-192-192 87.040-192 192v0zM739.84 217.6l-184.32-181.76c-10.24-10.24-25.6-10.24-35.84 0l-33.28 35.84c-10.24 10.24-10.24 25.6 0 35.84l184.32 184.32 53.76-53.76 15.36-20.48zM1013.76 524.8l-40.96 40.96c-10.24 10.24-23.040 10.24-35.84 2.56l-81.92-58.88c-12.8-7.68-15.36-25.6-5.12-38.4l66.56-66.56c10.24-10.24 28.16-10.24 38.4 2.56l2.56 2.56 58.88 81.92c7.68 10.24 7.68 23.040-2.56 33.28zM934.4 460.8l-23.040 23.040 43.52 30.72 10.24-10.24-30.72-43.52z" />
<glyph unicode="&#xe924;" glyph-name="oil" d="M512 844.8c-117.76-117.76-286.72-291.84-286.72-532.48 0-158.72 128-286.72 286.72-286.72s286.72 128 286.72 286.72c0 238.080-199.68 286.72-286.72 532.48zM512 76.8c-130.56 0-235.52 104.96-235.52 235.52 0 189.44 117.76 335.36 217.6 442.88 35.84-66.56 79.36-128 130.56-184.32 69.12-79.36 122.88-143.36 122.88-256 0-130.56-104.96-238.080-235.52-238.080v0zM373.76 312.32v25.6h-51.2v-25.6c0-104.96 84.48-189.44 189.44-189.44h25.6v51.2h-25.6c-76.8 0-138.24 61.44-138.24 138.24z" />
<glyph unicode="&#xe925;" glyph-name="oil-boilers" d="M844.8 650.24h-256c-43.52 0-76.8-33.28-76.8-76.8v-460.8c0-43.52 33.28-76.8 76.8-76.8h256c43.52 0 76.8 33.28 76.8 76.8v460.8c0 40.96-33.28 76.8-76.8 76.8zM870.4 112.64c0-15.36-10.24-25.6-25.6-25.6h-256c-15.36 0-25.6 10.24-25.6 25.6v460.8c0 15.36 10.24 25.6 25.6 25.6h256c15.36 0 25.6-10.24 25.6-25.6v-460.8zM614.4 138.24h204.8v230.4h-204.8v-230.4zM665.6 317.44h102.4v-128h-102.4v128zM614.4 547.84h204.8v-51.2h-204.8v51.2zM102.4 501.76c0-99.84 79.36-179.2 179.2-179.2s179.2 79.36 179.2 179.2c0 148.48-125.44 179.2-179.2 332.8-74.24-71.68-179.2-181.76-179.2-332.8zM409.6 501.76c0-71.68-56.32-128-128-128s-128 56.32-128 128c0 99.84 56.32 181.76 112.64 243.2 20.48-33.28 43.52-66.56 71.68-97.28 40.96-46.080 71.68-81.92 71.68-145.92zM230.4 504.32v25.6h-51.2v-25.6c5.12-53.76 48.64-97.28 102.4-102.4h25.6v51.2h-25.6c-25.6 2.56-46.080 23.040-51.2 51.2z" />
<glyph unicode="&#xe926;" glyph-name="partner" d="M977.92 240.64c-40.96 30.72-89.6 51.2-138.24 61.44 122.88 51.2 181.76 194.56 128 317.44-51.2 122.88-194.56 181.76-317.44 128-7.68-2.56-15.36-7.68-23.040-10.24-17.92 133.12-138.24 225.28-271.36 209.92s-225.28-140.8-207.36-273.92c10.24-87.040 69.12-161.28 151.040-194.56-168.96-35.84-273.92-166.4-273.92-350.72v-25.6h51.2v25.6c0 215.040 158.72 312.32 314.88 312.32 46.080 0 92.16-7.68 133.12-25.6l7.68-2.56c28.16-51.2 71.68-89.6 122.88-110.080-166.4-38.4-271.36-168.96-271.36-353.28v-25.6h51.2v25.6c0 215.040 158.72 312.32 314.88 312.32 71.68 2.56 140.8-20.48 197.12-61.44l20.48-15.36 30.72 40.96-20.48 15.36zM197.12 704c-5.12 104.96 79.36 194.56 184.32 197.12s194.56-79.36 197.12-184.32c0-5.12 0-10.24 0-12.8s0-2.56 0-5.12c-40.96-38.4-66.56-89.6-74.24-145.92-33.28-25.6-74.24-40.96-117.76-40.96-104.96 0-189.44 87.040-189.44 192zM481.28 481.28c7.68 2.56 17.92 7.68 25.6 12.8 0-7.68 2.56-12.8 2.56-20.48-10.24 2.56-20.48 5.12-28.16 7.68zM555.52 524.8c0 104.96 84.48 192 192 192s192-84.48 192-192-87.040-192-192-192-192 87.040-192 192z" />
<glyph unicode="&#xe927;" glyph-name="photovoltaik-cells" d="M750.080 896h-476.16c-66.56 0-117.76-51.2-120.32-115.2v0-691.2c0-64 53.76-115.2 120.32-115.2v0h478.72c64-2.56 117.76 51.2 120.32 115.2v0 691.2c-2.56 64-56.32 115.2-122.88 115.2v0zM819.2 89.6c0-35.84-30.72-64-69.12-64h-476.16c-38.4 0-69.12 28.16-69.12 64v691.2c0 35.84 30.72 64 69.12 64h478.72c35.84 0 66.56-28.16 66.56-64v-691.2zM537.6 793.6h-51.2v-76.8h-51.2v-51.2h51.2v-76.8h51.2v76.8h51.2v51.2h-51.2zM332.8 793.6h-51.2v-204.8h51.2v76.8h51.2v51.2h-51.2zM691.2 716.8h-51.2v-51.2h51.2v-76.8h51.2v204.8h-51.2zM537.6 537.6h-51.2v-76.8h-51.2v-51.2h51.2v-76.8h51.2v76.8h51.2v51.2h-51.2zM332.8 537.6h-51.2v-204.8h51.2v76.8h51.2v51.2h-51.2zM691.2 460.8h-51.2v-51.2h51.2v-76.8h51.2v204.8h-51.2zM537.6 281.6h-51.2v-76.8h-51.2v-51.2h51.2v-76.8h51.2v76.8h51.2v51.2h-51.2zM332.8 281.6h-51.2v-204.8h51.2v76.8h51.2v51.2h-51.2zM691.2 204.8h-51.2v-51.2h51.2v-76.8h51.2v204.8h-51.2z" />
<glyph unicode="&#xe928;" glyph-name="photovoltaik-systems" d="M716.8 558.080h-51.2v-76.8h-25.6v-51.2h25.6v-76.8h51.2v76.8h38.4v51.2h-38.4zM870.4 558.080h-51.2v-76.8h-38.4v-51.2h38.4v-76.8h51.2v76.8h25.6v51.2h-25.6zM716.8 302.080h-51.2v-76.8h-25.6v-51.2h25.6v-76.8h51.2v76.8h38.4v51.2h-38.4zM870.4 302.080h-51.2v-76.8h-38.4v-51.2h38.4v-76.8h51.2v76.8h25.6v51.2h-25.6zM870.4 634.88h-204.8c-56.32 0-102.4-46.080-102.4-102.4v-409.6c0-56.32 46.080-102.4 102.4-102.4h204.8c56.32 0 102.4 46.080 102.4 102.4v409.6c0 56.32-46.080 102.4-102.4 102.4zM921.6 122.88c0-28.16-23.040-51.2-51.2-51.2h-204.8c-28.16 0-51.2 23.040-51.2 51.2v409.6c0 28.16 23.040 51.2 51.2 51.2h204.8c28.16 0 51.2-23.040 51.2-51.2v-409.6zM294.4 711.68c-56.32 0-102.4-46.080-102.4-102.4s46.080-102.4 102.4-102.4 102.4 46.080 102.4 102.4-46.080 102.4-102.4 102.4zM294.4 558.080c-28.16 0-51.2 23.040-51.2 51.2s23.040 51.2 51.2 51.2 51.2-23.040 51.2-51.2-23.040-51.2-51.2-51.2zM409.6 634.88h128v-51.2h-128v51.2zM357.369 704.406l90.509 90.509 36.204-36.204-90.509-90.509-36.204 36.204zM268.8 852.48h51.2v-128h-51.2v128zM103.932 758.719l36.204 36.204 90.509-90.509-36.204-36.204-90.509 90.509zM51.2 634.88h128v-51.2h-128v51.2zM103.924 450.977l90.509 90.509 36.204-36.204-90.509-90.509-36.204 36.204zM268.8 494.080h51.2v-128h-51.2v128zM357.361 505.274l36.204 36.204 90.509-90.509-36.204-36.204-90.509 90.509z" />
<glyph unicode="&#xe929;" glyph-name="retailer" d="M1018.88 145.92l-74.24 148.48h-279.040l-12.8 12.8c-51.2 56.32-117.76 94.72-192 107.52 122.88 51.2 184.32 192 133.12 314.88s-192 184.32-314.88 133.12-181.76-189.44-133.12-314.88c25.6-61.44 71.68-107.52 133.12-133.12-168.96-35.84-271.36-166.4-271.36-350.72v-25.6h51.2v25.6c0 215.040 158.72 312.32 314.88 312.32 81.92 2.56 161.28-25.6 222.72-81.92h-92.16l-74.24-148.48 64-10.24v-92.16l230.4-56.32 230.4 58.88v92.16l64 7.68zM176.64 640c0 104.96 84.48 192 192 192s194.56-84.48 194.56-192-87.040-192-192-192-194.56 87.040-194.56 192v0zM913.92 243.2l28.16-56.32-128-17.92-46.080 74.24h145.92zM535.040 243.2h143.36l-46.080-74.24-128 17.92 30.72 56.32zM545.28 128l115.2-17.92 38.4 64v-130.56l-153.6 38.4v46.080zM903.68 84.48l-153.6-38.4v130.56l38.4-64 115.2 15.36v-43.52z" />
<glyph unicode="&#xe92a;" glyph-name="route-a" d="M512 939.52c-215.040 0-391.68-176.64-391.68-391.68 0-209.92 358.4-583.68 373.76-599.040l17.92-20.48 17.92 20.48c15.36 15.36 373.76 389.12 373.76 599.040 0 215.040-176.64 391.68-391.68 391.68zM512 5.12c-74.24 79.36-340.48 378.88-340.48 542.72 5.12 186.88 161.28 335.36 350.72 330.24 181.76-5.12 325.12-151.040 330.24-330.24 0-163.84-266.24-463.36-340.48-542.72zM476.16 737.28l-102.4-281.6h58.88l17.92 53.76h115.2l17.92-53.76h66.56l-102.4 281.6c0 0-71.68 0-71.68 0zM465.92 552.96l43.52 125.44 40.96-125.44h-84.48z" />
<glyph unicode="&#xe92b;" glyph-name="route-b" d="M512 939.52c-215.040 0-391.68-176.64-391.68-391.68 0-209.92 358.4-583.68 373.76-599.040l17.92-20.48 17.92 20.48c15.36 15.36 373.76 389.12 373.76 599.040 0 215.040-176.64 391.68-391.68 391.68zM512 5.12c-74.24 79.36-340.48 378.88-340.48 542.72 5.12 186.88 161.28 335.36 350.72 330.24 181.76-5.12 325.12-151.040 330.24-330.24 0-163.84-266.24-463.36-340.48-542.72zM586.24 601.6c25.6 7.68 40.96 33.28 40.96 61.44 0 48.64-33.28 74.24-92.16 74.24h-128v-281.6h133.12c64 0 99.84 28.16 99.84 79.36-2.56 30.72-23.040 61.44-53.76 66.56zM468.48 688.64h58.88c25.6 0 38.4-10.24 38.4-33.28s-10.24-33.28-35.84-33.28h-61.44c0 0 0 66.56 0 66.56zM532.48 501.76h-64v74.24h61.44c28.16 0 43.52-12.8 43.52-38.4s-15.36-35.84-40.96-35.84z" />
<glyph unicode="&#xe92c;" glyph-name="service" d="M1006.080 440.32l-12.8 40.96-99.84-99.84-40.96 10.24-10.24 40.96 99.84 99.84-38.4 12.8c-51.2 17.92-107.52 7.68-151.040-23.040-7.68-5.12-12.8-10.24-17.92-15.36-40.96-40.96-56.32-97.28-43.52-153.6l-35.84-35.84c-48.64 56.32-115.2 94.72-189.44 110.080 122.88 51.2 184.32 192 133.12 314.88s-192 184.32-314.88 133.12-186.88-192-135.68-317.44c25.6-61.44 71.68-107.52 133.12-133.12-168.96-35.84-273.92-166.4-273.92-350.72v-25.6h51.2v25.6c0 215.040 158.72 312.32 314.88 312.32 92.16 2.56 181.76-35.84 243.2-104.96l-156.16-156.16c-33.28-35.84-30.72-92.16 5.12-125.44 33.28-30.72 87.040-30.72 120.32 0l227.84 227.84c89.6-20.48 176.64 35.84 197.12 125.44 7.68 28.16 5.12 58.88-5.12 87.040v0zM179.2 650.24c0 104.96 84.48 192 192 192s192-84.48 192-192-87.040-192-192-192-192 87.040-192 192v0zM931.84 309.76c-30.72-30.72-74.24-40.96-115.2-28.16l-15.36 5.12-250.88-250.88c-12.8-15.36-38.4-17.92-53.76-2.56-15.36 12.8-17.92 38.4-2.56 53.76l253.44 253.44-5.12 15.36c-12.8 40.96-2.56 87.040 28.16 115.2 5.12 5.12 7.68 7.68 12.8 10.24 15.36 12.8 35.84 20.48 56.32 20.48l-56.32-53.76 25.6-99.84 99.84-25.6 53.76 53.76c-2.56-25.6-12.8-48.64-30.72-66.56z" />
<glyph unicode="&#xe92d;" glyph-name="solar-thermal-systems" d="M716.8 302.080h102.4c43.52 0 76.8 33.28 76.8 76.8s-33.28 76.8-76.8 76.8h-102.4c-15.36 0-25.6 10.24-25.6 25.6s10.24 25.6 25.6 25.6h153.6v51.2h-153.6c-43.52 0-76.8-33.28-76.8-76.8s33.28-76.8 76.8-76.8h102.4c15.36 0 25.6-10.24 25.6-25.6s-10.24-25.6-25.6-25.6h-102.4c-43.52 0-76.8-33.28-76.8-76.8s33.28-76.8 76.8-76.8h102.4c15.36 0 25.6-10.24 25.6-25.6s-10.24-25.6-25.6-25.6h-153.6v-51.2h153.6c43.52 0 76.8 33.28 76.8 76.8s-33.28 76.8-76.8 76.8h-102.4c-15.36 0-25.6 10.24-25.6 25.6s10.24 25.6 25.6 25.6zM870.4 634.88h-204.8c-56.32 0-102.4-46.080-102.4-102.4v-409.6c0-56.32 46.080-102.4 102.4-102.4h204.8c56.32 0 102.4 46.080 102.4 102.4v409.6c0 56.32-46.080 102.4-102.4 102.4zM921.6 122.88c0-28.16-23.040-51.2-51.2-51.2h-204.8c-28.16 0-51.2 23.040-51.2 51.2v409.6c0 28.16 23.040 51.2 51.2 51.2h204.8c28.16 0 51.2-23.040 51.2-51.2v-409.6zM294.4 711.68c-56.32 0-102.4-46.080-102.4-102.4s46.080-102.4 102.4-102.4 102.4 46.080 102.4 102.4-46.080 102.4-102.4 102.4zM294.4 558.080c-28.16 0-51.2 23.040-51.2 51.2s23.040 51.2 51.2 51.2 51.2-23.040 51.2-51.2-23.040-51.2-51.2-51.2zM409.6 634.88h128v-51.2h-128v51.2zM356.369 707.966l90.522 90.496 36.198-36.209-90.522-90.496-36.198 36.209zM268.8 852.48h51.2v-128h-51.2v128zM103.948 758.674l36.198 36.209 90.522-90.496-36.198-36.209-90.522 90.496zM51.2 634.88h128v-51.2h-128v51.2zM104.658 457.32l90.522 90.496 36.198-36.209-90.522-90.496-36.198 36.209zM268.8 494.080h51.2v-128h-51.2v128zM356.333 508.823l36.198 36.209 90.522-90.496-36.198-36.209-90.522 90.496zM332.8 110.080c0-48.64 40.96-89.6 89.6-89.6s89.6 40.96 89.6 89.6c0 74.24-64 89.6-89.6 166.4-35.84-35.84-89.6-89.6-89.6-166.4zM460.8 110.080c0-20.48-17.92-38.4-38.4-38.4s-38.4 17.92-38.4 38.4c0 28.16 10.24 56.32 28.16 79.36 5.12-7.68 12.8-15.36 17.92-20.48 23.040-25.6 30.72-35.84 30.72-58.88z" />
<glyph unicode="&#xe92e;" glyph-name="solid-fuel-boilers" d="M860.16 675.84h-256c-43.52 0-76.8-33.28-76.8-76.8v-460.8c0-43.52 33.28-76.8 76.8-76.8h256c43.52 0 76.8 33.28 76.8 76.8v460.8c-2.56 40.96-35.84 76.8-76.8 76.8zM885.76 138.24c0-15.36-10.24-25.6-25.6-25.6h-256c-15.36 0-25.6 10.24-25.6 25.6v460.8c0 15.36 10.24 25.6 25.6 25.6h256c15.36 0 25.6-10.24 25.6-25.6v-460.8zM629.76 163.84h204.8v230.4h-204.8v-230.4zM680.96 343.040h102.4v-128h-102.4v128zM629.76 573.44h204.8v-51.2h-204.8v51.2zM279.040 719.36c-17.92 10.24-35.84 7.68-74.24-20.48-20.48-17.92-30.72-43.52-33.28-69.12 0-28.16 12.8-56.32 33.28-74.24 20.48-20.48 46.080-30.72 74.24-30.72s53.76 12.8 69.12 38.4c20.48 15.36 33.28 38.4 33.28 64 0 28.16-7.68 53.76-28.16 74.24-17.92 17.92-46.080 17.92-74.24 17.92zM460.8 645.12c0 2.56 0 7.68 2.56 10.24s5.12 7.68 2.56 12.8c-2.56 7.68-5.12 12.8-7.68 17.92 0 2.56 0 2.56 0 5.12-2.56 5.12-5.12 7.68-7.68 10.24 0 5.12-2.56 10.24-2.56 12.8 0 7.68-5.12 12.8-7.68 20.48l-5.12 2.56c0 2.56 0 5.12 0 7.68-7.68 5.12-12.8 10.24-20.48 12.8l-5.12 2.56c-7.68 7.68-15.36 15.36-23.040 23.040-5.12 2.56-10.24 7.68-15.36 10.24s-12.8 5.12-17.92 7.68c-7.68 2.56-17.92 2.56-25.6 2.56-5.12 0-10.24 0-15.36 0-7.68 0-17.92 0-25.6 0h-17.92c-5.12 0-7.68 0-10.24 2.56-2.56 5.12-10.24 5.12-15.36 5.12-5.12-2.56-10.24-2.56-17.92-5.12-5.12-2.56-10.24-5.12-15.36-7.68s-10.24-5.12-15.36-7.68c-5.12-2.56-10.24-5.12-15.36-10.24-7.68-2.56-15.36-7.68-23.040-10.24-10.24-2.56-20.48-7.68-28.16-12.8-7.68-7.68-2.56-12.8 0-17.92s5.12-5.12 2.56-10.24-7.68-10.24-12.8-12.8c-7.68-7.68-20.48-15.36-23.040-20.48 0-7.68 0-15.36 2.56-23.040 2.56-5.12 2.56-10.24 2.56-15.36s-2.56-10.24-5.12-15.36c-2.56-10.24-5.12-17.92-5.12-28.16 0-7.68 2.56-12.8 7.68-17.92 2.56-5.12 5.12-7.68 5.12-12.8s2.56-10.24 2.56-15.36c0-7.68 0-17.92 5.12-25.6 2.56-5.12 7.68-10.24 12.8-12.8s7.68-7.68 10.24-12.8c2.56-12.8 7.68-23.040 15.36-33.28 2.56-2.56 7.68-2.56 7.68 0 2.56-2.56 5.12-2.56 7.68-2.56h2.56c2.56-2.56 2.56-5.12 5.12-5.12 5.12-5.12 10.24-12.8 17.92-15.36 2.56-2.56 7.68-5.12 12.8-5.12 5.12-5.12 10.24-7.68 17.92-10.24 10.24 0 23.040 2.56 33.28 2.56h2.56c5.12 0 10.24-5.12 15.36-5.12 7.68-2.56 17.92-5.12 25.6-7.68 2.56 0 10.24 0 15.36 0 12.8 0 23.040 2.56 35.84 7.68 7.68 2.56 15.36 7.68 20.48 12.8 5.12 2.56 7.68 7.68 12.8 10.24s7.68 5.12 7.68 10.24c0 2.56 0 0 5.12 2.56 2.56 2.56 7.68 2.56 10.24 2.56 5.12 0 10.24 2.56 12.8 5.12 7.68 7.68 10.24 17.92 12.8 28.16 2.56 7.68 5.12 15.36 10.24 23.040 2.56 5.12 5.12 7.68 10.24 10.24 5.12 5.12 10.24 10.24 12.8 15.36 2.56 7.68 5.12 12.8 5.12 20.48 2.56 10.24 5.12 20.48 5.12 28.16s-2.56 12.8-5.12 20.48c-5.12 2.56-5.12 7.68-7.68 12.8zM407.040 550.4c-20.48-33.28-53.76-56.32-89.6-66.56-76.8-17.92-156.16 30.72-174.080 110.080-7.68 35.84-2.56 76.8 17.92 107.52v0c43.52 66.56 133.12 87.040 199.68 46.080 30.72-20.48 53.76-51.2 64-89.6 7.68-35.84 2.56-74.24-17.92-107.52v0z" />
<glyph unicode="&#xe92f;" glyph-name="stationary-boilers-up-to-60kw" d="M537.6 563.2v-332.8h307.2v332.8h-307.2zM793.6 281.6h-204.8v230.4h204.8v-230.4zM179.2 435.2v-204.8h204.8v204.8h-204.8zM332.8 281.6h-102.4v102.4h102.4v-102.4zM179.2 537.6h204.8v-51.2h-204.8v51.2zM537.6 793.6h307.2v-51.2h-307.2v51.2zM386.56 53.76c-15.36 0-28.16-10.24-28.16-25.6 0 0 0-2.56 0-2.56 0-15.36 10.24-30.72 25.6-30.72 0 0 2.56 0 2.56 0 17.92 2.56 28.16 15.36 28.16 33.28 0 12.8-12.8 23.040-28.16 25.6zM386.56 53.76c-15.36 0-28.16-10.24-28.16-25.6 0 0 0-2.56 0-2.56 0-15.36 10.24-30.72 25.6-30.72 0 0 2.56 0 2.56 0 17.92 2.56 28.16 15.36 28.16 33.28 0 12.8-12.8 23.040-28.16 25.6zM386.56 53.76c-15.36 0-28.16-10.24-28.16-25.6 0 0 0-2.56 0-2.56 0-15.36 10.24-30.72 25.6-30.72 0 0 2.56 0 2.56 0 17.92 2.56 28.16 15.36 28.16 33.28 0 12.8-12.8 23.040-28.16 25.6zM517.12 107.52c-17.92 0-30.72-20.48-30.72-56.32s10.24-58.88 30.72-58.88 30.72 23.040 30.72 58.88-12.8 56.32-30.72 56.32zM517.12 107.52c-17.92 0-30.72-20.48-30.72-56.32s10.24-58.88 30.72-58.88 30.72 23.040 30.72 58.88-12.8 56.32-30.72 56.32zM386.56 53.76c-15.36 0-28.16-10.24-28.16-25.6 0 0 0-2.56 0-2.56 0-15.36 10.24-30.72 25.6-30.72 0 0 2.56 0 2.56 0 17.92 2.56 28.16 15.36 28.16 33.28 0 12.8-12.8 23.040-28.16 25.6zM947.2 179.2v665.6c0 56.32-46.080 102.4-102.4 102.4h-307.2c-56.32 0-102.4-46.080-102.4-102.4v-186.88h51.2v186.88c0 28.16 23.040 51.2 51.2 51.2h307.2c28.16 0 51.2-23.040 51.2-51.2v-665.6h-409.6v384c0 43.52-33.28 76.8-76.8 76.8h-256c-43.52 0-76.8-33.28-76.8-76.8v-384h-76.8v-256h1024v256h-76.8zM128 563.2c0 15.36 10.24 25.6 25.6 25.6h256c15.36 0 25.6-10.24 25.6-25.6v-384h-307.2v384zM245.76 71.68l-58.88-28.16 58.88-28.16v-20.48l-81.92 40.96v15.36l81.92 40.96v-20.48zM389.12-25.6c-17.92 0-33.28 7.68-40.96 20.48-10.24 15.36-12.8 30.72-12.8 48.64 0 48.64 20.48 79.36 56.32 79.36 20.48 0 35.84-12.8 40.96-30.72l-17.92-7.68c-7.68 15.36-12.8 20.48-25.6 20.48-20.48 0-30.72-17.92-33.28-56.32 7.68 12.8 20.48 20.48 35.84 20.48 25.6 0 46.080-17.92 46.080-43.52 0 0 0 0 0-2.56 2.56-25.6-15.36-48.64-40.96-51.2-2.56 2.56-5.12 2.56-7.68 2.56zM517.12-25.6c-33.28 0-53.76 30.72-53.76 76.8s20.48 74.24 53.76 74.24 51.2-30.72 51.2-74.24-17.92-76.8-51.2-76.8v0zM670.72-23.040l-30.72 51.2-15.36-17.92v-33.28h-20.48v153.6h20.48v-94.72l40.96 48.64h25.6l-35.84-40.96 40.96-64-25.6-2.56zM834.56-23.040h-23.040l-23.040 79.36-25.6-79.36h-20.48l-30.72 107.52h23.040l20.48-81.92 25.6 81.92h20.48l23.040-81.92 23.040 81.92h23.040l-35.84-107.52zM517.12 107.52c-17.92 0-30.72-20.48-30.72-56.32s10.24-58.88 30.72-58.88 30.72 23.040 30.72 58.88-12.8 56.32-30.72 56.32zM386.56 53.76c-15.36 0-28.16-10.24-28.16-25.6 0 0 0-2.56 0-2.56 0-15.36 10.24-30.72 25.6-30.72 0 0 2.56 0 2.56 0 17.92 2.56 28.16 15.36 28.16 33.28 0 12.8-12.8 23.040-28.16 25.6zM386.56 53.76c-15.36 0-28.16-10.24-28.16-25.6 0 0 0-2.56 0-2.56 0-15.36 10.24-30.72 25.6-30.72 0 0 2.56 0 2.56 0 17.92 2.56 28.16 15.36 28.16 33.28 0 12.8-12.8 23.040-28.16 25.6zM517.12 107.52c-17.92 0-30.72-20.48-30.72-56.32s10.24-58.88 30.72-58.88 30.72 23.040 30.72 58.88-12.8 56.32-30.72 56.32zM517.12 107.52c-17.92 0-30.72-20.48-30.72-56.32s10.24-58.88 30.72-58.88 30.72 23.040 30.72 58.88-12.8 56.32-30.72 56.32zM386.56 53.76c-15.36 0-28.16-10.24-28.16-25.6 0 0 0-2.56 0-2.56 0-15.36 10.24-30.72 25.6-30.72 0 0 2.56 0 2.56 0 17.92 2.56 28.16 15.36 28.16 33.28 0 12.8-12.8 23.040-28.16 25.6z" />
<glyph unicode="&#xe930;" glyph-name="sun" d="M512 691.2c-140.8 0-256-115.2-256-256s115.2-256 256-256 256 115.2 256 256-115.2 256-256 256zM512 230.4c-112.64 0-204.8 92.16-204.8 204.8s92.16 204.8 204.8 204.8 204.8-92.16 204.8-204.8-92.16-204.8-204.8-204.8zM0 460.8h204.8v-51.2h-204.8v51.2zM819.2 460.8h204.8v-51.2h-204.8v51.2zM486.4 947.2h51.2v-204.8h-51.2v204.8zM486.4 128h51.2v-204.8h-51.2v204.8zM132.363 778.926l36.204 36.204 144.814-144.814-36.204-36.204-144.814 144.814zM710.624 200.044l36.204 36.204 144.814-144.814-36.204-36.204-144.814 144.814zM710.932 670.005l144.814 144.814 36.204-36.204-144.814-144.814-36.204 36.204zM132.052 91.744l144.814 144.814 36.204-36.204-144.814-144.814-36.204 36.204z" />
<glyph unicode="&#xe931;" glyph-name="ventilation-systems" d="M942.080 299.52v0l-5.12 12.8c-10.24 28.16-30.72 51.2-58.88 64-23.040 10.24-40.96 17.92-58.88 25.6s-40.96 12.8-61.44 20.48c-20.48 7.68-43.52 10.24-66.56 15.36s-40.96 5.12-64 7.68v2.56c10.24 23.040 17.92 40.96 25.6 61.44s15.36 40.96 20.48 64 10.24 43.52 12.8 64 5.12 38.4 5.12 64c2.56 61.44-38.4 115.2-97.28 125.44-15.36 2.56-28.16 5.12-43.52 5.12-28.16 2.56-56.32 2.56-84.48 0-15.36 0-28.16-2.56-43.52-5.12-25.6-5.12-46.080-15.36-64-33.28l-5.12-12.8c-17.92-23.040-28.16-53.76-25.6-81.92 2.56-25.6 5.12-46.080 7.68-64s7.68-43.52 12.8-64 12.8-43.52 20.48-64c7.68-20.48 15.36-38.4 25.6-58.88v-2.56c-25.6-2.56-46.080-5.12-64-7.68s-43.52-10.24-64-15.36c-20.48-5.12-43.52-12.8-61.44-20.48s-35.84-12.8-58.88-25.6c-53.76-28.16-79.36-89.6-61.44-145.92 5.12-12.8 10.24-28.16 17.92-40.96 5.12-12.8 12.8-25.6 20.48-38.4s15.36-23.040 23.040-35.84c7.68-12.8 15.36-23.040 25.6-33.28 12.8-17.92 33.28-30.72 56.32-38.4l12.8-2.56c5.12 0 12.8-2.56 17.92 0 23.040 0 46.080 7.68 66.56 20.48 20.48 15.36 35.84 28.16 51.2 38.4s33.28 28.16 48.64 43.52c15.36 15.36 30.72 33.28 46.080 51.2s25.6 33.28 38.4 51.2v0c15.36-20.48 28.16-35.84 38.4-51.2s28.16-33.28 46.080-48.64 33.28-30.72 48.64-43.52 30.72-23.040 51.2-38.4c20.48-12.8 43.52-20.48 66.56-20.48 5.12 0 12.8 0 17.92 0 28.16 2.56 53.76 17.92 74.24 38.4 10.24 10.24 17.92 23.040 25.6 35.84s15.36 23.040 23.040 35.84c7.68 12.8 12.8 25.6 20.48 35.84 7.68 12.8 12.8 25.6 17.92 40.96 7.68 20.48 7.68 46.080 2.56 69.12zM509.44 294.4c-46.080 0-84.48 38.4-84.48 84.48s38.4 84.48 84.48 84.48c46.080 0 84.48-38.4 84.48-84.48s-35.84-84.48-84.48-84.48v0zM378.88 704c0 12.8 2.56 28.16 10.24 40.96l5.12 7.68c10.24 12.8 23.040 23.040 40.96 25.6 12.8 2.56 25.6 5.12 38.4 5.12 25.6 2.56 51.2 2.56 76.8 0 12.8 0 25.6-2.56 38.4-5.12 30.72-10.24 53.76-40.96 51.2-74.24 0-25.6-2.56-43.52-7.68-58.88s-7.68-38.4-12.8-58.88-10.24-38.4-17.92-61.44c-5.12-10.24-7.68-23.040-12.8-35.84-46.080 33.28-110.080 33.28-156.16 0-5.12 12.8-10.24 25.6-12.8 35.84-7.68 20.48-12.8 38.4-17.92 61.44s-10.24 40.96-12.8 58.88-7.68 33.28-10.24 58.88zM430.080 227.84c-12.8-15.36-28.16-30.72-43.52-46.080s-30.72-28.16-46.080-40.96c-15.36-12.8-28.16-23.040-46.080-35.84-12.8-7.68-25.6-12.8-38.4-10.24h-10.24c-15.36 0-30.72 7.68-40.96 20.48-7.68 10.24-15.36 20.48-23.040 30.72s-15.36 20.48-20.48 33.28c-5.12 12.8-12.8 23.040-17.92 33.28-5.12 12.8-10.24 23.040-15.36 35.84-10.24 33.28 5.12 66.56 33.28 81.92 23.040 10.24 40.96 17.92 56.32 23.040s38.4 12.8 58.88 17.92 40.96 10.24 61.44 12.8c12.8 2.56 25.6 2.56 38.4 5.12 0-5.12 0-7.68 0-12.8 0-53.76 30.72-99.84 79.36-122.88-10.24-7.68-17.92-17.92-25.6-25.6v0zM890.88 248.32c-5.12-12.8-10.24-23.040-15.36-35.84s-12.8-23.040-17.92-33.28c-5.12-10.24-12.8-23.040-20.48-33.28s-15.36-20.48-23.040-30.72c-10.24-12.8-25.6-20.48-40.96-23.040s-33.28 0-46.080 10.24c-20.48 12.8-35.84 25.6-48.64 35.84s-30.72 25.6-46.080 40.96-28.16 30.72-43.52 46.080c-7.68 10.24-15.36 17.92-23.040 30.72 48.64 23.040 79.36 69.12 79.36 122.88 0 5.12 0 7.68 0 12.8 12.8-2.56 25.6-2.56 38.4-5.12 20.48-5.12 40.96-7.68 61.44-12.8s38.4-12.8 58.88-17.92c20.48-5.12 33.28-12.8 53.76-23.040 12.8-5.12 23.040-15.36 28.16-28.16l2.56-7.68c7.68-17.92 7.68-33.28 2.56-48.64v0z" />
<glyph unicode="&#xe932;" glyph-name="wall-mounted-boilers" d="M721.92 896h-256c-43.52 0-76.8-33.28-76.8-76.8v-460.8c0-43.52 33.28-76.8 76.8-76.8h256c43.52 0 76.8 33.28 76.8 76.8v460.8c0 43.52-33.28 76.8-76.8 76.8zM747.52 358.4c0-15.36-10.24-25.6-25.6-25.6h-256c-15.36 0-25.6 10.24-25.6 25.6v460.8c0 15.36 10.24 25.6 25.6 25.6h256c15.36 0 25.6-10.24 25.6-25.6v-460.8zM491.52 384h204.8v230.4h-204.8v-230.4zM542.72 563.2h102.4v-128h-102.4v128zM491.52 793.6h204.8v-51.2h-204.8v51.2zM235.52 25.6h256v-51.2h-256v51.2zM225.28 153.6l35.84-35.84 76.8 76.8v-143.36h51.2v143.36l76.8-76.8 35.84 35.84-138.24 138.24z" />
<glyph unicode="&#xe933;" glyph-name="wall-mounted-condensing-gas-boilers" d="M844.8 896h-256c-43.52 0-76.8-33.28-76.8-76.8v-460.8c0-43.52 33.28-76.8 76.8-76.8h256c43.52 0 76.8 33.28 76.8 76.8v460.8c0 43.52-33.28 76.8-76.8 76.8zM870.4 358.4c0-15.36-10.24-25.6-25.6-25.6h-256c-15.36 0-25.6 10.24-25.6 25.6v460.8c0 15.36 10.24 25.6 25.6 25.6h256c15.36 0 25.6-10.24 25.6-25.6v-460.8zM614.4 384h204.8v230.4h-204.8v-230.4zM665.6 563.2h102.4v-128h-102.4v128zM614.4 793.6h204.8v-51.2h-204.8v51.2zM358.4 25.6h256v-51.2h-256v51.2zM348.16 153.6l35.84-35.84 76.8 76.8v-143.36h51.2v143.36l76.8-76.8 35.84 35.84-138.24 138.24zM302.080 389.12l-7.68-5.12c94.72 7.68 166.4 84.48 166.4 179.2 0 151.040-104.96 258.56-179.2 332.8-53.76-153.6-179.2-184.32-179.2-332.8 0-81.92 56.32-153.6 138.24-174.080l-7.68 7.68c-46.080 53.76-12.8 74.24 2.56 120.32 12.8-17.92 28.16-33.28 46.080-43.52 20.48 40.96 33.28 87.040 43.52 133.12 43.52-51.2 23.040-181.76-23.040-217.6zM294.4 719.36l-20.48-104.96c-2.56-15.36-7.68-33.28-12.8-48.64l-43.52 61.44-33.28-94.72c-2.56-7.68-7.68-15.36-10.24-23.040l-5.12-10.24c-10.24 17.92-15.36 40.96-15.36 64 0 64 30.72 99.84 71.68 148.48 25.6 30.72 51.2 61.44 71.68 94.72 56.32-61.44 112.64-143.36 112.64-243.2 0-15.36-2.56-33.28-10.24-48.64 2.56 43.52-10.24 89.6-35.84 125.44l-69.12 79.36z" />
<glyph unicode="&#xe934;" glyph-name="wall-mounted-condensing-gas-boilers-above-50-kw" d="M844.8 947.2h-256c-43.52 0-76.8-33.28-76.8-76.8v-384c0-43.52 33.28-76.8 76.8-76.8h256c43.52 0 76.8 33.28 76.8 76.8v384c0 43.52-33.28 76.8-76.8 76.8zM870.4 486.4c0-15.36-10.24-25.6-25.6-25.6h-256c-15.36 0-25.6 10.24-25.6 25.6v384c0 15.36 10.24 25.6 25.6 25.6h256c15.36 0 25.6-10.24 25.6-25.6v-384zM614.4 742.4v-230.4h204.8v230.4h-204.8zM768 563.2h-102.4v128h102.4v-128zM614.4 844.8h204.8v-51.2h-204.8v51.2zM358.4 256h256v-51.2h-256v51.2zM409.6 296.96l51.2 51.2v-66.56h51.2v66.56l51.2-51.2 35.84 35.84-112.64 112.64-112.64-112.64zM281.6 947.2c-53.76-153.6-179.2-184.32-179.2-332.8 0-81.92 56.32-153.6 138.24-174.080l-7.68 7.68c-46.080 53.76-12.8 74.24 2.56 120.32 12.8-17.92 28.16-33.28 46.080-43.52 20.48 40.96 33.28 87.040 43.52 133.12 46.080-51.2 23.040-179.2-23.040-215.040l-7.68-7.68c94.72 5.12 166.4 84.48 166.4 179.2 0 151.040-104.96 258.56-179.2 332.8zM399.36 565.76c2.56 43.52-10.24 89.6-35.84 125.44l-69.12 79.36-20.48-104.96c-2.56-15.36-7.68-33.28-12.8-48.64l-43.52 61.44-33.28-94.72c-2.56-7.68-7.68-15.36-10.24-23.040-2.56-2.56-2.56-7.68-5.12-10.24-10.24 17.92-15.36 40.96-15.36 64 0 64 30.72 99.84 71.68 148.48 25.6 30.72 51.2 61.44 71.68 94.72 56.32-61.44 112.64-143.36 112.64-243.2 0-15.36-2.56-33.28-10.24-48.64v0zM517.12 107.52c-17.92 0-30.72-20.48-30.72-56.32s10.24-58.88 30.72-58.88 30.72 23.040 30.72 58.88-12.8 56.32-30.72 56.32zM517.12 107.52c-17.92 0-30.72-20.48-30.72-56.32s10.24-58.88 30.72-58.88 30.72 23.040 30.72 58.88-12.8 56.32-30.72 56.32zM0 179.2v-256h1024v256h-1024zM248.32 35.84l-81.92-40.96v20.48l58.88 28.16-58.88 28.16v20.48l81.92-40.96v-15.36zM386.56-25.6c-12.8 0-25.6 2.56-35.84 10.24-7.68 5.12-12.8 15.36-15.36 25.6l20.48 5.12c2.56-15.36 15.36-25.6 30.72-23.040 17.92 0 28.16 12.8 28.16 33.28 2.56 15.36-10.24 30.72-28.16 33.28-10.24 0-20.48-5.12-28.16-12.8h-17.92l7.68 79.36h79.36v-17.92h-64l-5.12-43.52c7.68 7.68 17.92 12.8 28.16 12.8 25.6 0 46.080-20.48 46.080-46.080 0-2.56 0-2.56 0-5.12 2.56-25.6-17.92-48.64-43.52-51.2 2.56 0 0 0-2.56 0zM517.12-25.6c-33.28 0-53.76 30.72-53.76 76.8s20.48 74.24 51.2 74.24 53.76-30.72 53.76-74.24-20.48-76.8-51.2-76.8zM670.72-23.040l-30.72 51.2-15.36-17.92v-33.28h-20.48v153.6h20.48v-94.72l40.96 48.64h25.6l-35.84-40.96 40.96-64-25.6-2.56zM834.56-23.040h-23.040l-23.040 79.36-25.6-79.36h-20.48l-30.72 107.52h23.040l20.48-81.92 25.6 81.92h20.48l23.040-81.92 23.040 81.92h20.48l-33.28-107.52zM514.56 107.52c-17.92 0-30.72-20.48-30.72-56.32s10.24-58.88 30.72-58.88 30.72 23.040 30.72 58.88-10.24 56.32-30.72 56.32v0zM514.56 107.52c-17.92 0-30.72-20.48-30.72-56.32s10.24-58.88 30.72-58.88 30.72 23.040 30.72 58.88-10.24 56.32-30.72 56.32v0zM514.56 107.52c-17.92 0-30.72-20.48-30.72-56.32s10.24-58.88 30.72-58.88 30.72 23.040 30.72 58.88-10.24 56.32-30.72 56.32v0z" />
<glyph unicode="&#xe935;" glyph-name="wall-mounted-condensing-gas-boilers-to-50-kw" d="M844.8 947.2h-256c-43.52 0-76.8-33.28-76.8-76.8v-384c0-43.52 33.28-76.8 76.8-76.8h256c43.52 0 76.8 33.28 76.8 76.8v384c0 43.52-33.28 76.8-76.8 76.8zM870.4 486.4c0-15.36-10.24-25.6-25.6-25.6h-256c-15.36 0-25.6 10.24-25.6 25.6v384c0 15.36 10.24 25.6 25.6 25.6h256c15.36 0 25.6-10.24 25.6-25.6v-384zM614.4 742.4v-230.4h204.8v230.4h-204.8zM768 563.2h-102.4v128h102.4v-128zM614.4 844.8h204.8v-51.2h-204.8v51.2zM358.4 256h256v-51.2h-256v51.2zM409.6 296.96l51.2 51.2v-66.56h51.2v66.56l51.2-51.2 35.84 35.84-112.64 112.64-112.64-112.64zM281.6 947.2c-53.76-153.6-179.2-184.32-179.2-332.8 0-81.92 56.32-153.6 138.24-174.080l-7.68 7.68c-46.080 53.76-12.8 74.24 2.56 120.32 12.8-17.92 28.16-33.28 46.080-43.52 20.48 40.96 33.28 87.040 43.52 133.12 46.080-51.2 23.040-179.2-23.040-215.040l-7.68-7.68c94.72 5.12 166.4 84.48 166.4 179.2 0 151.040-104.96 258.56-179.2 332.8zM399.36 565.76c2.56 43.52-10.24 89.6-35.84 125.44l-69.12 79.36-20.48-104.96c-2.56-15.36-7.68-33.28-12.8-48.64l-43.52 61.44-33.28-94.72c-2.56-7.68-7.68-15.36-10.24-23.040-2.56-2.56-2.56-7.68-5.12-10.24-10.24 17.92-15.36 40.96-15.36 64 0 64 30.72 99.84 71.68 148.48 25.6 30.72 51.2 61.44 71.68 94.72 56.32-61.44 112.64-143.36 112.64-243.2 0-15.36-2.56-33.28-10.24-48.64v0zM517.12 107.52c-17.92 0-30.72-20.48-30.72-56.32s10.24-58.88 30.72-58.88 30.72 23.040 30.72 58.88-12.8 56.32-30.72 56.32zM517.12 107.52c-17.92 0-30.72-20.48-30.72-56.32s10.24-58.88 30.72-58.88 30.72 23.040 30.72 58.88-12.8 56.32-30.72 56.32zM0 179.2v-256h1024v256h-1024zM245.76 71.68l-58.88-28.16 58.88-28.16v-20.48l-81.92 40.96v15.36l81.92 40.96v-20.48zM386.56-25.6c-12.8 0-25.6 2.56-35.84 10.24-7.68 5.12-12.8 15.36-15.36 25.6l20.48 5.12c2.56-15.36 15.36-25.6 30.72-23.040 17.92 0 28.16 12.8 28.16 33.28 2.56 15.36-10.24 30.72-28.16 33.28-10.24 0-20.48-5.12-28.16-12.8h-17.92l7.68 79.36h79.36v-17.92h-64l-5.12-43.52c7.68 7.68 17.92 12.8 28.16 12.8 25.6 0 46.080-20.48 46.080-46.080 0-2.56 0-2.56 0-5.12 2.56-25.6-17.92-48.64-43.52-51.2 2.56 0 0 0-2.56 0zM517.12-25.6c-33.28 0-53.76 30.72-53.76 76.8s20.48 74.24 51.2 74.24 53.76-30.72 53.76-74.24-20.48-76.8-51.2-76.8zM670.72-23.040l-30.72 51.2-15.36-17.92v-33.28h-20.48v153.6h20.48v-94.72l40.96 48.64h25.6l-35.84-40.96 40.96-64-25.6-2.56zM834.56-23.040h-23.040l-23.040 79.36-25.6-79.36h-20.48l-30.72 107.52h23.040l20.48-81.92 25.6 81.92h20.48l23.040-81.92 23.040 81.92h20.48l-33.28-107.52zM514.56 107.52c-17.92 0-30.72-20.48-30.72-56.32s10.24-58.88 30.72-58.88 30.72 23.040 30.72 58.88-10.24 56.32-30.72 56.32v0zM514.56 107.52c-17.92 0-30.72-20.48-30.72-56.32s10.24-58.88 30.72-58.88 30.72 23.040 30.72 58.88-10.24 56.32-30.72 56.32v0zM514.56 107.52c-17.92 0-30.72-20.48-30.72-56.32s10.24-58.88 30.72-58.88 30.72 23.040 30.72 58.88-10.24 56.32-30.72 56.32v0z" />
<glyph unicode="&#xe936;" glyph-name="water" d="M171.52 540.16c30.72 0 61.44 10.24 84.48 28.16 51.2-35.84 120.32-35.84 171.52 0 51.2-35.84 120.32-35.84 171.52 0 51.2-35.84 120.32-35.84 171.52 0 58.88-40.96 138.24-35.84 189.44 15.36l17.92 17.92-38.4 35.84-17.92-17.92c-38.4-35.84-97.28-35.84-135.68 0l-17.92 17.92-17.92-17.92c-38.4-35.84-97.28-35.84-135.68 0l-17.92 17.92-17.92-17.92c-38.4-35.84-97.28-35.84-135.68 0l-15.36 17.92-17.92-17.92c-38.4-35.84-97.28-35.84-135.68 0l-17.92 17.92-17.92-17.92c-38.4-35.84-97.28-35.84-135.68 0l-17.92 17.92-35.84-35.84 17.92-17.92c28.16-28.16 64-43.52 104.96-43.52zM921.6 465.92c-38.4-35.84-97.28-35.84-135.68 0l-17.92 17.92-17.92-17.92c-38.4-35.84-97.28-35.84-135.68 0l-17.92 17.92-17.92-17.92c-38.4-35.84-97.28-35.84-135.68 0l-15.36 17.92-17.92-17.92c-38.4-35.84-97.28-35.84-135.68 0l-17.92 17.92-17.92-17.92c-38.4-35.84-97.28-35.84-135.68 0l-17.92 17.92-35.84-35.84 17.92-17.92c51.2-51.2 130.56-56.32 189.44-15.36 51.2-35.84 120.32-35.84 171.52 0 51.2-35.84 120.32-35.84 171.52 0 51.2-35.84 120.32-35.84 171.52 0 58.88-40.96 138.24-35.84 189.44 15.36l17.92 17.92-38.4 35.84-17.92-17.92zM921.6 312.32c-38.4-35.84-97.28-35.84-135.68 0l-17.92 17.92-17.92-17.92c-38.4-35.84-97.28-35.84-135.68 0l-17.92 17.92-17.92-17.92c-38.4-35.84-97.28-35.84-135.68 0l-15.36 17.92-17.92-17.92c-38.4-35.84-97.28-35.84-135.68 0l-17.92 17.92-17.92-17.92c-38.4-35.84-97.28-35.84-135.68 0l-17.92 17.92-35.84-35.84 17.92-17.92c51.2-51.2 130.56-56.32 189.44-15.36 51.2-35.84 120.32-35.84 171.52 0 51.2-35.84 120.32-35.84 171.52 0 51.2-35.84 120.32-35.84 171.52 0 58.88-40.96 138.24-35.84 189.44 15.36l17.92 17.92-38.4 35.84-17.92-17.92z" />
<glyph unicode="&#xe937;" glyph-name="wholesaler" d="M942.080 642.56l-79.36-458.24c-35.84-2.56-69.12-25.6-84.48-58.88l-307.2 53.76-10.24-51.2 307.2-53.76c5.12-56.32 53.76-99.84 110.080-94.72s99.84 53.76 94.72 110.080c-2.56 38.4-25.6 71.68-58.88 87.040l71.68 407.040 25.6-5.12 7.68 51.2-76.8 12.8zM921.6 74.24c-5.12-25.6-25.6-43.52-51.2-43.52-2.56 0-5.12 0-7.68 0-28.16 2.56-48.64 28.16-46.080 56.32s28.16 48.64 56.32 46.080c2.56 0 5.12 0 7.68 0 23.040-2.56 40.96-30.72 40.96-58.88v0zM537.6 271.36c-5.12-28.16 12.8-53.76 40.96-58.88v0l176.64-30.72c28.16-5.12 53.76 12.8 58.88 40.96v0l17.92 99.84c5.12 28.16-12.8 53.76-40.96 58.88v0l-176.64 30.72c-20.48 5.12-43.52-5.12-53.76-25.6-30.72 17.92-64 28.16-99.84 35.84 122.88 51.2 184.32 192 133.12 317.44s-192 184.32-317.44 133.12-184.32-192-133.12-317.44c25.6-61.44 71.68-107.52 133.12-133.12-166.4-35.84-268.8-168.96-268.8-353.28v-25.6h51.2v25.6c0 215.040 158.72 312.32 314.88 312.32 61.44 0 122.88-15.36 176.64-46.080l-12.8-64zM604.16 363.52l176.64-30.72-17.92-99.84-176.64 30.72 15.36 87.040 5.12 10.24-2.56 2.56zM176.64 647.68c0 104.96 84.48 192 192 192s194.56-84.48 194.56-192-87.040-192-192-192-194.56 84.48-194.56 192v0zM675.84 453.12l125.44-23.040c28.16-5.12 53.76 12.8 58.88 40.96v0l7.68 51.2c5.12 28.16-12.8 53.76-40.96 58.88v0l-125.44 23.040c-28.16 5.12-53.76-12.8-58.88-40.96v0l-10.24-51.2c-5.12-25.6 15.36-53.76 43.52-58.88v0zM691.2 555.52l125.44-23.040-7.68-51.2-125.44 23.040 7.68 51.2z" />
<glyph unicode="&#xe938;" glyph-name="address-consumer-data" d="M512 588.8h409.6v-51.2h-409.6v51.2zM512 460.8h409.6v-51.2h-409.6v51.2zM512 332.8h307.2v-51.2h-307.2v51.2zM691.2 768h-691.2v-665.6h1024v665.6h-332.8zM135.68 153.6c-5.12 76.8 56.32 145.92 133.12 148.48 5.12 0 10.24 0 15.36 0 76.8 5.12 145.92-53.76 151.040-133.12 0-5.12 0-10.24 0-15.36 0 0-299.52 0-299.52 0zM199.68 460.8c0 46.080 38.4 84.48 84.48 84.48s84.48-38.4 84.48-84.48c0-46.080-38.4-84.48-84.48-84.48s-84.48 38.4-84.48 84.48zM972.8 153.6h-486.4c0 84.48-53.76 161.28-135.68 189.44 66.56 35.84 89.6 120.32 53.76 186.88s-120.32 89.6-186.88 53.76c-64-38.4-87.040-120.32-51.2-186.88 12.8-23.040 30.72-40.96 53.76-53.76-79.36-28.16-135.68-104.96-135.68-189.44h-33.28v563.2h921.6v-563.2z" />
<glyph unicode="&#xe939;" glyph-name="anchor" d="M512 563.2v-51.2c43.52 0 76.8-33.28 76.8-76.8v-281.6c0-43.52-33.28-76.8-76.8-76.8h-384c-43.52 0-76.8 33.28-76.8 76.8v281.6c0 43.52 33.28 76.8 76.8 76.8h128v51.2h-128c-71.68 0-128-56.32-128-128v-281.6c0-71.68 56.32-128 128-128h384c71.68 0 128 56.32 128 128v281.6c0 71.68-56.32 128-128 128zM896 844.8h-384c-71.68 0-128-56.32-128-128v-281.6c0-71.68 56.32-128 128-128v51.2c-43.52 0-76.8 33.28-76.8 76.8v281.6c0 43.52 33.28 76.8 76.8 76.8h384c43.52 0 76.8-33.28 76.8-76.8v-281.6c0-43.52-33.28-76.8-76.8-76.8h-128v-51.2h128c71.68 0 128 56.32 128 128v281.6c0 71.68-56.32 128-128 128z" />
<glyph unicode="&#xe93a;" glyph-name="appointment" d="M432.64 327.68c17.92 15.36 30.72 38.4 30.72 61.44 0 2.56 0 5.12 0 7.68-2.56 28.16-30.72 51.2-58.88 46.080-30.72 2.56-56.32-17.92-61.44-48.64l35.84-7.68c0 12.8 12.8 25.6 25.6 25.6 2.56 0 2.56 0 5.12 0 12.8-2.56 20.48-12.8 17.92-23.040-2.56-23.040-12.8-43.52-33.28-58.88-15.36-12.8-33.28-25.6-51.2-35.84v-25.6h122.88v28.16h-74.24c12.8 7.68 28.16 17.92 40.96 30.72zM599.040 445.44h-40.96l-79.36-112.64v-30.72h84.48v-33.28h35.84v33.28h20.48v28.16h-20.48v115.2zM563.2 330.24h-51.2l51.2 76.8v-76.8zM972.8 291.84v514.56h-230.4v76.8h-51.2v-76.8h-409.6v76.8h-51.2v-76.8h-230.4v-768h719.36c74.24-66.56 186.88-61.44 253.44 10.24 64 69.12 64 174.080 0 243.2zM51.2 755.2h179.2v-51.2h51.2v51.2h409.6v-51.2h51.2v51.2h179.2v-128h-870.4v128zM683.52 243.2c-23.040-48.64-23.040-104.96 0-153.6h-632.32v486.4h870.4v-248.32c-89.6 43.52-197.12 5.12-238.080-84.48zM844.8 38.4c-71.68 0-128 56.32-128 128s56.32 128 128 128 128-56.32 128-128-56.32-128-128-128zM870.4 243.2h-51.2v-51.2h-51.2v-51.2h51.2v-51.2h51.2v51.2h51.2v51.2h-51.2z" />
<glyph unicode="&#xe93b;" glyph-name="calendar" d="M768 806.4v76.8h-51.2v-76.8h-409.6v76.8h-51.2v-76.8h-256v-819.2h1024v819.2h-256zM51.2 755.2h204.8v-51.2h51.2v51.2h409.6v-51.2h51.2v51.2h204.8v-145.92h-921.6v145.92zM972.8 38.4h-921.6v519.68h921.6v-519.68zM381.44 289.28c-20.48-17.92-43.52-35.84-66.56-48.64v-40.96h166.4v40.96h-99.84c20.48 10.24 38.4 25.6 56.32 40.96 25.6 20.48 40.96 51.2 40.96 84.48 0 46.080-30.72 74.24-79.36 74.24-40.96 2.56-76.8-25.6-84.48-64l46.080-10.24c7.68 25.6 17.92 35.84 35.84 35.84 2.56 0 2.56 0 5.12 0 15.36-2.56 25.6-17.92 23.040-33.28-2.56-33.28-17.92-61.44-43.52-79.36zM614.4 199.68h48.64v46.080h28.16v38.4h-28.16v153.6h-56.32l-107.52-151.040v-40.96h115.2v-46.080zM545.28 286.72l69.12 102.4v-102.4h-69.12z" />
<glyph unicode="&#xe93c;" glyph-name="clock" d="M537.6 768h-51.2v-358.4h281.6v51.2h-230.4zM512 947.2c-281.6 0-512-230.4-512-512s230.4-512 512-512 512 230.4 512 512-230.4 512-512 512zM512-25.6c-253.44 0-460.8 207.36-460.8 460.8s207.36 460.8 460.8 460.8 460.8-207.36 460.8-460.8-207.36-460.8-460.8-460.8z" />
<glyph unicode="&#xe93d;" glyph-name="close" d="M939.52 826.88l-35.84 35.84-391.68-391.68-391.68 391.68-35.84-35.84 391.68-391.68-391.68-391.68 35.84-35.84 391.68 391.68 391.68-391.68 35.84 35.84-391.68 391.68z" />
<glyph unicode="&#xe93e;" glyph-name="compare" d="M51.2 614.4c0 38.4 30.72 71.68 69.12 74.24 2.56 0 5.12 0 7.68 0h798.72l-135.68-135.68 35.84-35.84 197.12 197.12-197.12 197.12-35.84-35.84 135.68-135.68h-798.72c-66.56 2.56-125.44-48.64-128-115.2 0-2.56 0-5.12 0-7.68v-207.36h51.2v204.8zM1024 483.84h-51.2v-227.84c2.56-43.52-30.72-76.8-74.24-79.36h-806.4l140.8 140.8-35.84 38.4-197.12-199.68 197.12-197.12 35.84 38.4-128 128h791.040c69.12 0 128 53.76 128 125.44 0 2.56 0 5.12 0 5.12v227.84z" />
<glyph unicode="&#xe93f;" glyph-name="confirmation" d="M217.6 563.2h332.8v-51.2h-332.8v51.2zM217.6 691.2h332.8v-51.2h-332.8v51.2zM217.6 435.2h332.8v-51.2h-332.8v51.2zM217.6 307.2h230.4v-51.2h-230.4v51.2zM806.4 445.44v501.76h-768v-1024h770.56v107.52c102.4 15.36 176.64 104.96 176.64 207.36 0 104.96-76.8 192-179.2 207.36zM757.76-25.6h-668.16v921.6h665.6v-448c-115.2-10.24-199.68-112.64-189.44-227.84 10.24-99.84 89.6-179.2 189.44-189.44v-56.32h2.56zM775.68 79.36c-87.040 0-158.72 71.68-158.72 158.72s71.68 158.72 158.72 158.72 158.72-71.68 158.72-158.72-71.68-158.72-158.72-158.72zM750.080 222.72l-28.16 23.040-33.28-40.96 71.68-53.76 97.28 128-40.96 30.72z" />
<glyph unicode="&#xe940;" glyph-name="connectedmobility" d="M793.6 391.68v94.72c0 61.44-48.64 110.080-110.080 110.080-15.36 0-28.16-2.56-40.96-7.68-17.92 53.76-69.12 92.16-130.56 92.16-66.56 0-122.88-46.080-135.68-110.080-84.48-15.36-145.92-87.040-145.92-174.080 0-2.56 0-2.56 0-2.56v-5.12c0-48.64 40.96-87.040 87.040-87.040h389.12c48.64 0 87.040 38.4 87.040 89.6zM744.96 389.12c0-20.48-17.92-35.84-35.84-35.84h-391.68c-20.48 0-35.84 15.36-35.84 35.84 0 2.56 0 2.56 0 2.56v2.56c0 66.56 51.2 122.88 120.32 130.56 15.36 0 25.6 10.24 25.6 23.040 2.56 46.080 40.96 81.92 87.040 81.92s84.48-38.4 87.040-84.48c0-10.24 5.12-20.48 15.36-23.040 10.24-5.12 20.48-2.56 28.16 5.12 10.24 10.24 25.6 15.36 40.96 15.36 33.28 0 58.88-25.6 58.88-58.88 0 0 0-94.72 0-94.72zM512-25.6c-253.44 0-460.8 207.36-460.8 460.8 0 143.36 66.56 276.48 179.2 363.52v-133.12h51.2v204.8h-204.8v-51.2h97.28c-110.080-97.28-174.080-235.52-174.080-384 0-281.6 230.4-512 512-512 40.96 0 81.92 5.12 122.88 15.36l-12.8 48.64c-35.84-7.68-71.68-12.8-110.080-12.8zM1024 435.2c0 281.6-230.4 512-512 512-40.96 0-81.92-5.12-122.88-15.36l12.8-48.64c35.84 7.68 71.68 12.8 110.080 12.8 253.44 0 460.8-207.36 460.8-460.8 0-143.36-66.56-276.48-179.2-363.52v133.12h-51.2v-204.8h204.8v51.2h-97.28c110.080 97.28 174.080 235.52 174.080 384z" />
<glyph unicode="&#xe941;" glyph-name="customer-service" d="M890.88 578.56c-17.92 89.6-64 166.4-133.12 220.16-69.12 56.32-153.6 84.48-245.76 84.48-89.6 0-176.64-30.72-245.76-81.92-71.68-56.32-117.76-130.56-135.68-220.16-46.080-7.68-79.36-48.64-79.36-92.16v-179.2c0-51.2 46.080-94.72 99.84-94.72s97.28 43.52 97.28 94.72v179.2c0 38.4-25.6 74.24-61.44 87.040 28.16 156.16 156.16 256 325.12 256s296.96-99.84 320-258.56c-33.28-15.36-56.32-48.64-56.32-87.040v-179.2c0-40.96 25.6-76.8 64-89.6v-128h-35.84c-10.24 25.6-38.4 51.2-71.68 51.2h-97.28c-43.52 0-76.8-33.28-76.8-76.8 0-40.96 33.28-76.8 76.8-76.8h97.28c33.28 0 61.44 25.6 71.68 51.2h38.4c12.8 0 28.16 7.68 38.4 15.36 12.8 12.8 12.8 35.84 12.8 53.76v107.52c43.52 12.8 76.8 51.2 76.8 92.16v179.2c2.56 43.52-33.28 84.48-79.36 92.16zM192 488.96v-179.2c0-20.48-20.48-38.4-43.52-38.4s-43.52 17.92-43.52 38.4v179.2c0 20.48 20.48 38.4 43.52 38.4s43.52-17.92 43.52-38.4zM732.16 40.96h-97.28c-10.24 0-20.48 10.24-20.48 23.040s10.24 23.040 20.48 23.040h97.28c10.24 0 20.48-10.24 20.48-23.040s-10.24-23.040-20.48-23.040zM921.6 309.76c0-20.48-20.48-38.4-43.52-38.4s-43.52 17.92-43.52 38.4v179.2c0 20.48 20.48 38.4 43.52 38.4s40.96-17.92 43.52-38.4v-179.2z" />
<glyph unicode="&#xe942;" glyph-name="dealer-details" d="M665.6 691.2v-51.2h307.2v-563.2h-921.6v563.2h307.2v51.2h-358.4v-665.6h1024v665.6zM588.8 844.8h-153.6v-204.8h153.6v204.8zM537.6 691.2h-51.2v102.4h51.2v-102.4zM153.6 486.4h409.6v-51.2h-409.6v51.2zM153.6 358.4h409.6v-51.2h-409.6v51.2zM153.6 230.4h256v-51.2h-256v51.2z" />
<glyph unicode="&#xe943;" glyph-name="delete" d="M921.6 844.8h-230.4v51.2c0 28.16-23.040 51.2-51.2 51.2h-256c-28.16 0-51.2-23.040-51.2-51.2v-51.2h-230.4v-204.8h79.36v-614.4c0-56.32 46.080-102.4 102.4-102.4h458.24c56.32 0 102.4 46.080 102.4 102.4v614.4h76.8v204.8zM384 896h256v-51.2h-256v51.2zM791.040 25.6c0-28.16-23.040-51.2-51.2-51.2h-455.68c-28.16 0-51.2 23.040-51.2 51.2v614.4h99.84v-358.4h51.2v358.4h102.4v-358.4h51.2v358.4h102.4v-358.4h51.2v358.4h99.84v-614.4zM870.4 691.2h-716.8v102.4h716.8v-102.4z" />
<glyph unicode="&#xe944;" glyph-name="delivery" d="M409.6 194.56l540.16 117.76-69.12 314.88-537.6-115.2 66.56-317.44zM888.32 350.72l-437.76-94.72-46.080 215.040 437.76 94.72 46.080-215.040zM793.6 657.92l-64 289.28-458.24-99.84 61.44-289.28 460.8 99.84zM691.2 885.76v0l40.96-189.44-358.4-76.8-40.96 189.44 358.4 76.8zM1011.2 215.040l-537.6-115.2c-20.48 48.64-71.68 79.36-122.88 74.24l-151.040 693.76c-10.24 46.080-53.76 74.24-97.28 64l-99.84-20.48 10.24-51.2 97.28 23.040c17.92 2.56 33.28-7.68 35.84-23.040v0l151.040-701.44c-61.44-30.72-84.48-107.52-51.2-168.96 20.48-38.4 58.88-64 102.4-66.56h12.8c64 0 117.76 48.64 122.88 115.2 0 2.56 0 7.68 0 10.24l540.16 117.76-12.8 48.64zM353.28-25.6c-40.96 2.56-71.68 35.84-69.12 76.8s35.84 71.68 76.8 69.12h5.12c40.96-2.56 71.68-38.4 66.56-79.36s-38.4-69.12-79.36-66.56z" />
<glyph unicode="&#xe945;" glyph-name="desktop" d="M0 89.6h307.2v691.2h-307.2v-691.2zM51.2 729.6h204.8v-588.8h-204.8v588.8zM102.4 652.8h102.4v-51.2h-102.4v51.2zM102.4 550.4h102.4v-51.2h-102.4v51.2zM1024 294.4v486.4h-665.6v-486.4h307.2v-153.6h-76.8v-51.2h204.8v51.2h-76.8v153.6h307.2zM409.6 345.6v384h563.2v-384h-563.2zM204.8 294.4c0-28.277-22.923-51.2-51.2-51.2s-51.2 22.923-51.2 51.2c0 28.277 22.923 51.2 51.2 51.2s51.2-22.923 51.2-51.2z" />
<glyph unicode="&#xe946;" glyph-name="download" d="M256 230.4h512v-51.2h-512v51.2zM512 947.2c-281.6 0-512-230.4-512-512s230.4-512 512-512 512 230.4 512 512-230.4 512-512 512zM512-25.6c-253.44 0-460.8 207.36-460.8 460.8s207.36 460.8 460.8 460.8 460.8-207.36 460.8-460.8-207.36-460.8-460.8-460.8zM657.92 494.080l-35.84 35.84-84.48-84.48v245.76h-51.2v-245.76l-84.48 84.48-35.84-35.84 145.92-145.92z" />
<glyph unicode="&#xe947;" glyph-name="edit" d="M1008.64 716.8c-5.12 33.28-23.040 61.44-48.64 79.36s-58.88 28.16-89.6 23.040c-33.28-5.12-61.44-23.040-79.36-48.64l-355.84-486.4c-2.56-2.56-2.56-5.12-2.56-7.68v-2.56c0 0 0 0 0-2.56l-23.040-192c0-10.24 2.56-17.92 10.24-23.040 5.12-2.56 10.24-5.12 15.36-5.12 2.56 0 7.68 0 10.24 2.56l179.2 79.36c2.56 2.56 5.12 5.12 7.68 7.68l355.84 486.4c17.92 25.6 25.6 56.32 20.48 89.6zM463.36 117.76l12.8 104.96 84.48-61.44-97.28-43.52zM606.72 189.44l-115.2 84.48 289.28 394.24 115.2-84.48-289.28-394.24zM944.64 655.36l-20.48-30.72-115.2 84.48 23.040 30.72c10.24 15.36 28.16 25.6 46.080 28.16s38.4-2.56 53.76-12.8 25.6-28.16 28.16-46.080c2.56-20.48-2.56-38.4-15.36-53.76zM12.8 102.4h332.8v-51.2h-332.8v51.2z" />
<glyph unicode="&#xe948;" glyph-name="externallink" d="M921.6 51.2c0-43.52-33.28-76.8-76.8-76.8h-665.6c-43.52 0-76.8 33.28-76.8 76.8v768c0 43.52 33.28 76.8 76.8 76.8h384v51.2h-384c-71.68 0-128-56.32-128-128v-768c0-71.68 56.32-128 128-128h665.6c71.68 0 128 56.32 128 128v460.8h-51.2v-460.8zM716.8 947.2v-51.2h168.96l-263.68-263.68 35.84-35.84 263.68 263.68v-168.96h51.2v256z" />
<glyph unicode="&#xe949;" glyph-name="facebook-circle" d="M537.6 578.56c-2.56 10.24 5.12 20.48 15.36 23.040 23.040 2.56 61.44 0 61.44 0v89.6c0 0-15.36-2.56-92.16-2.56 0 0 0 0-2.56 0-48.64 0-89.6-40.96-87.040-92.16 0-17.92 0-84.48 0-84.48h-48.64v-76.8h51.2v-256h102.4v256h71.68l10.24 76.8h-81.92v66.56zM512 947.2c-281.6 0-512-230.4-512-512s230.4-512 512-512 512 230.4 512 512-230.4 512-512 512zM512-25.6c-253.44 0-460.8 207.36-460.8 460.8s207.36 460.8 460.8 460.8 460.8-207.36 460.8-460.8-207.36-460.8-460.8-460.8z" />
<glyph unicode="&#xe94a;" glyph-name="fax" d="M384 115.2h153.6v-51.2h-153.6v51.2zM384 243.2h230.4v-51.2h-230.4v51.2zM716.8 806.4v128h-409.6v-128h-307.2v-514.56c0-61.44 64-99.84 125.44-99.84h156.16v-256h460.8v256h158.72c58.88 0 122.88 38.4 122.88 99.84v514.56h-307.2zM358.4 883.2h307.2v-76.8h-307.2v76.8zM691.2-12.8h-358.4v358.4h358.4v-358.4zM972.8 291.84c0-30.72-40.96-48.64-71.68-48.64h-158.72v102.4h153.6v51.2h-742.4v-51.2h128v-102.4h-156.16c-30.72 0-74.24 17.92-74.24 48.64v463.36h921.6v-463.36zM896 645.12c0-21.208-17.192-38.4-38.4-38.4s-38.4 17.192-38.4 38.4c0 21.208 17.192 38.4 38.4 38.4s38.4-17.192 38.4-38.4z" />
<glyph unicode="&#xe94b;" glyph-name="google-circle" d="M512 896c253.44 0 460.8-207.36 460.8-460.8s-207.36-460.8-460.8-460.8-460.8 207.36-460.8 460.8 207.36 460.8 460.8 460.8zM512 947.2c-281.6 0-512-230.4-512-512s230.4-512 512-512 512 230.4 512 512-230.4 512-512 512v0zM522.24 537.6c5.12-15.36 7.68-23.040 7.68-35.84 0-56.32-51.2-97.28-125.44-97.28-20.48 0-35.84 2.56-53.76 7.68-7.68-5.12-12.8-12.8-12.8-20.48 0-15.36 10.24-23.040 40.96-23.040h76.8c69.12 0 107.52-30.72 107.52-84.48 0-69.12-58.88-107.52-163.84-107.52-89.6 0-143.36 28.16-143.36 76.8 0 25.6 15.36 43.52 48.64 58.88-23.040 12.8-33.28 30.72-33.28 53.76 0 25.6 12.8 46.080 43.52 61.44-25.6 20.48-35.84 43.52-35.84 71.68 0 58.88 53.76 102.4 125.44 102.4 28.16 0 51.2-5.12 79.36-20.48l81.92 17.92v-61.44h-43.52zM371.2 299.52c-10.24 0-15.36 0-20.48 0-12.8-7.68-17.92-17.92-17.92-28.16 0-23.040 20.48-33.28 69.12-33.28 53.76 0 81.92 12.8 81.92 38.4 0 17.92-12.8 23.040-40.96 23.040h-71.68zM358.4 501.76c0-30.72 17.92-48.64 46.080-48.64s46.080 17.92 46.080 48.64c0 28.16-17.92 46.080-46.080 46.080-30.72 2.56-46.080-15.36-46.080-46.080zM716.8 588.8v51.2h-51.2v-51.2h-51.2v-51.2h51.2v-51.2h51.2v51.2h51.2v51.2z" />
<glyph unicode="&#xe94c;" glyph-name="grid-view" d="M358.4 896v-332.8h-307.2v332.8h307.2zM409.6 947.2h-409.6v-435.2h409.6v435.2zM972.8 896v-332.8h-307.2v332.8h307.2zM1024 947.2h-409.6v-435.2h409.6v435.2zM358.4 307.2v-332.8h-307.2v332.8h307.2zM409.6 358.4h-409.6v-435.2h409.6v435.2zM972.8 307.2v-332.8h-307.2v332.8h307.2zM1024 358.4h-409.6v-435.2h409.6v435.2z" />
<glyph unicode="&#xe94d;" glyph-name="industrie4-1" d="M934.4 747.52c-53.76 53.76-125.44 84.48-204.8 84.48-76.8 0-148.48-30.72-202.24-84.48l-35.84 35.84c64 64 148.48 99.84 240.64 99.84 89.6 0 176.64-35.84 240.64-99.84l-38.4-35.84zM611.84 668.16l-35.84 35.84c43.52 43.52 99.84 66.56 158.72 66.56s117.76-23.040 158.72-66.56l-35.84-35.84c-33.28 33.28-76.8 51.2-122.88 51.2s-89.6-17.92-122.88-51.2zM775.68 586.24c-23.040 23.040-61.44 23.040-84.48 0l-35.84 35.84c43.52 43.52 112.64 43.52 156.16 0l-35.84-35.84zM79.36 330.24l-28.16-343.040h230.4l-30.72 343.040c-23.040-20.48-51.2-33.28-84.48-33.28s-64 12.8-87.040 33.28zM268.8 609.28l-71.68-61.44c46.080-10.24 84.48-48.64 94.72-94.72l61.44 74.24c-20.48 2.56-40.96 12.8-53.76 28.16-17.92 15.36-28.16 33.28-30.72 53.76zM404.48 663.040c-10.24 10.24-23.040 15.36-35.84 15.36s-25.6-5.12-35.84-15.36c-20.48-20.48-20.48-53.76 0-71.68 10.24-10.24 23.040-15.36 35.84-15.36s25.6 5.12 35.84 15.36c20.48 20.48 20.48 51.2 0 71.68zM693.76 422.4c7.68-15.36 10.24-33.28 5.12-51.2h43.52v-51.2h51.2v102.4h-99.84zM588.8 299.52v-81.92h102.4v51.2h-51.2v33.28c-10.24-2.56-17.92-5.12-28.16-5.12-7.68 0-15.36 2.56-23.040 2.56zM573.44 468.48l-110.080 128c-5.12-15.36-12.8-28.16-25.6-40.96-10.24-10.24-23.040-17.92-35.84-23.040l125.44-107.52c5.12 10.24 10.24 20.48 17.92 28.16 10.24 5.12 20.48 10.24 28.16 15.36zM637.44 414.72c-7.68 7.68-17.92 10.24-28.16 10.24s-20.48-2.56-28.16-10.24c-15.36-15.36-15.36-38.4 0-53.76 7.68-7.68 17.92-10.24 28.16-10.24s20.48 2.56 28.16 10.24c15.36 12.8 15.36 38.4 0 53.76zM243.2 424.96c0-42.415-34.385-76.8-76.8-76.8s-76.8 34.385-76.8 76.8c0 42.415 34.385 76.8 76.8 76.8s76.8-34.385 76.8-76.8z" />
<glyph unicode="&#xe94e;" glyph-name="industrie4-2" d="M545.28 760.32c-53.76 53.76-125.44 84.48-204.8 84.48s-148.48-30.72-202.24-84.48l-35.84 35.84c64 64 148.48 99.84 240.64 99.84s176.64-35.84 240.64-99.84l-38.4-35.84zM220.16 680.96l-38.4 35.84c43.52 43.52 99.84 66.56 158.72 66.56s117.76-23.040 158.72-66.56l-35.84-35.84c-33.28 33.28-76.8 51.2-122.88 51.2-43.52-2.56-89.6-20.48-120.32-51.2zM384 599.040c-23.040 23.040-61.44 23.040-84.48 0l-35.84 35.84c43.52 43.52 112.64 43.52 156.16 0l-35.84-35.84zM844.8 742.4l23.040-716.8h-714.24v320l76.8 43.52v-102.4l79.36 40.96 125.44 66.56v-104.96l64 35.84 140.8 74.24v-117.76h128l2.56 43.52 20.48 417.28h53.76zM896 793.6h-153.6l-23.040-460.8h-28.16v148.48l-204.8-107.52v107.52l-204.8-107.52v107.52l-179.2-107.52v-399.36h819.2l-25.6 819.2z" />
<glyph unicode="&#xe94f;" glyph-name="info-i" d="M565.76 668.16c0-28.16-25.6-51.2-53.76-51.2-28.16 2.56-48.64 25.6-48.64 53.76 2.56 28.16 25.6 48.64 53.76 48.64 28.16-2.56 48.64-23.040 48.64-51.2zM463.36 573.44h94.72v-322.56h-92.16l-2.56 322.56zM512 896c204.8 0 371.2-166.4 371.2-371.2 0-158.72-102.4-299.52-250.88-350.72-10.24-2.56-20.48-10.24-25.6-20.48l-94.72-138.24-92.16 138.24c-5.12 10.24-15.36 15.36-25.6 20.48-194.56 66.56-296.96 276.48-230.4 471.040 48.64 148.48 189.44 250.88 348.16 250.88zM512 947.2c-232.96 0-422.4-189.44-422.4-422.4 0-181.76 115.2-343.040 286.72-399.36l135.68-202.24 135.68 202.24c220.16 74.24 340.48 314.88 263.68 535.040-56.32 171.52-217.6 286.72-399.36 286.72v0z" />
<glyph unicode="&#xe950;" glyph-name="linkedin-circle" d="M512 896c253.44 0 460.8-207.36 460.8-460.8s-207.36-460.8-460.8-460.8-460.8 207.36-460.8 460.8 207.36 460.8 460.8 460.8zM512 947.2c-281.6 0-512-230.4-512-512s230.4-512 512-512 512 230.4 512 512-230.4 512-512 512v0zM768 368.64v-189.44h-110.080v176.64c0 43.52-15.36 74.24-56.32 74.24-30.72 0-48.64-20.48-56.32-40.96-2.56-7.68-2.56-17.92-2.56-25.6v-184.32h-110.080c0 0 2.56 299.52 0 330.24h110.080v-46.080c15.36 23.040 40.96 53.76 99.84 53.76 71.68 0 125.44-46.080 125.44-148.48v0zM317.44 668.16c-38.4 0-61.44-25.6-61.44-56.32s23.040-56.32 61.44-56.32v0c38.4 0 61.44 25.6 61.44 56.32s-23.040 56.32-61.44 56.32v0zM263.68 179.2h110.080v330.24h-110.080v-330.24z" />
<glyph unicode="&#xe951;" glyph-name="list-view" d="M256 793.6h768v-51.2h-768v51.2zM102.4 665.6c-56.32 0-102.4 46.080-102.4 102.4s46.080 102.4 102.4 102.4 102.4-46.080 102.4-102.4-46.080-102.4-102.4-102.4zM102.4 819.2c-28.16 0-51.2-23.040-51.2-51.2s23.040-51.2 51.2-51.2 51.2 23.040 51.2 51.2-23.040 51.2-51.2 51.2zM102.4 332.8c-56.32 0-102.4 46.080-102.4 102.4s46.080 102.4 102.4 102.4 102.4-46.080 102.4-102.4-46.080-102.4-102.4-102.4zM102.4 486.4c-28.16 0-51.2-23.040-51.2-51.2s23.040-51.2 51.2-51.2 51.2 23.040 51.2 51.2-23.040 51.2-51.2 51.2zM102.4 0c-56.32 0-102.4 46.080-102.4 102.4s46.080 102.4 102.4 102.4 102.4-46.080 102.4-102.4-46.080-102.4-102.4-102.4zM102.4 153.6c-28.16 0-51.2-23.040-51.2-51.2s23.040-51.2 51.2-51.2 51.2 23.040 51.2 51.2c0 28.16-23.040 51.2-51.2 51.2zM256 460.8h768v-51.2h-768v51.2zM256 128h768v-51.2h-768v51.2z" />
<glyph unicode="&#xe952;" glyph-name="list-view-mobile" d="M102.4 716.8h819.2v-51.2h-819.2v51.2zM102.4 460.8h819.2v-51.2h-819.2v51.2zM102.4 204.8h819.2v-51.2h-819.2v51.2z" />
<glyph unicode="&#xe953;" glyph-name="logout" d="M816.64 634.88l-35.84-35.84 138.24-138.24h-373.76v-51.2h373.76l-138.24-138.24 35.84-35.84 199.68 199.68zM519.68-76.8c-281.6 0-512 230.4-512 512 0 135.68 53.76 266.24 148.48 360.96 199.68 199.68 524.8 199.68 724.48 0l-35.84-35.84c-179.2 179.2-471.040 179.2-652.8 0s-179.2-471.040 0-652.8c179.2-179.2 471.040-179.2 652.8 0v0l35.84-35.84c-94.72-94.72-225.28-148.48-360.96-148.48z" />
<glyph unicode="&#xe954;" glyph-name="mobile" d="M665.6 793.6c28.16 0 51.2-23.040 51.2-51.2v-614.4c0-28.16-23.040-51.2-51.2-51.2h-307.2c-28.16 0-51.2 23.040-51.2 51.2v614.4c0 28.16 23.040 51.2 51.2 51.2h307.2zM665.6 844.8h-307.2c-56.32 0-102.4-46.080-102.4-102.4v-614.4c0-56.32 46.080-102.4 102.4-102.4h307.2c56.32 0 102.4 46.080 102.4 102.4v614.4c0 56.32-46.080 102.4-102.4 102.4v0zM550.4 153.6c0-21.208-17.192-38.4-38.4-38.4s-38.4 17.192-38.4 38.4c0 21.208 17.192 38.4 38.4 38.4s38.4-17.192 38.4-38.4z" />
<glyph unicode="&#xe955;" glyph-name="my-product" d="M847.36 704c-2.56 2.56-5.12 5.12-7.68 7.68l-66.56 38.4-46.080 23.040c-12.8 5.12-25.6 7.68-38.4 5.12-7.68 64-43.52 79.36-74.24 79.36h-419.84c-51.2 0-66.56-51.2-74.24-71.68l-117.76-417.28c-7.68-33.28 0-71.68 25.6-97.28 2.56-2.56 5.12-2.56 5.12-5.12 10.24-12.8 25.6-20.48 40.96-23.040h2.56v-87.040c2.56-76.8 61.44-138.24 138.24-143.36h220.16v51.2h-220.16c-48.64 5.12-84.48 43.52-87.040 92.16v87.040h53.76c46.080 0 64 33.28 76.8 66.56l53.76 189.44h51.2l7.68-87.040 51.2 5.12-7.68 81.92h207.36c20.48 0 53.76 12.8 64 79.36 5.12 0 10.24-2.56 15.36-2.56 10.24 0 17.92 2.56 25.6 7.68l110.080 61.44c2.56 2.56 5.12 5.12 7.68 7.68h179.2v51.2h-176.64zM640 729.6v-110.080c0-53.76-12.8-71.68-17.92-71.68h-345.6l-66.56-225.28c-10.24-28.16-15.36-28.16-28.16-28.16h-104.96c-2.56 2.56-5.12 5.12-7.68 7.68s-7.68 7.68-10.24 10.24c-7.68 12.8-10.24 28.16-7.68 43.52l115.2 414.72c12.8 35.84 23.040 35.84 28.16 35.84h419.84c10.24 0 25.6 0 25.6-46.080v-30.72zM704 629.76v0c-2.56 0-5.12 0-5.12 0v99.84l2.56 2.56h2.56l87.040-51.2-87.040-51.2z" />
<glyph unicode="&#xe956;" glyph-name="newsletter" d="M102.4 780.8v-128h51.2v53.76l409.6-291.84 409.6 291.84v-488.96c0-43.52-33.28-76.8-76.8-76.8h-665.6c-43.52 0-76.8 33.28-76.8 76.8h-51.2c0-71.68 56.32-128 128-128h665.6c71.68 0 128 56.32 128 128v563.2h-921.6zM207.36 729.6h709.12l-353.28-253.44-355.84 253.44zM0 320h204.8v-51.2h-204.8v51.2zM0 576h204.8v-51.2h-204.8v51.2zM51.2 448h153.6v-51.2h-153.6v51.2z" />
<glyph unicode="&#xe957;" glyph-name="payment" d="M102.4 307.2h230.4v-51.2h-230.4v51.2zM921.6 768h-819.2c-56.32 0-102.4-46.080-102.4-102.4v-458.24c0-56.32 46.080-102.4 102.4-104.96h819.2c56.32 0 102.4 46.080 102.4 104.96v458.24c0 56.32-46.080 102.4-102.4 102.4zM102.4 716.8h819.2c28.16 0 51.2-23.040 51.2-51.2v-51.2h-921.6v51.2c0 28.16 23.040 51.2 51.2 51.2zM921.6 153.6h-819.2c-28.16 0-51.2 23.040-51.2 53.76v253.44h921.6v-253.44c0-30.72-23.040-53.76-51.2-53.76z" />
</font>
</defs>
</svg>
